Fraternidad-LightItalic.ufo
<glyph name="exclam" format="2">
  <advance width="523"/>
  <unicode hex="0021"/>
  <outline>
    <contour>
      <point x="180" y="-6" type="curve" smooth="yes"/>
      <point x="159" y="-6"/>
      <point x="143" y="1"/>
      <point x="132" y="16" type="curve"/>
      <point x="119" y="30"/>
      <point x="115" y="47"/>
      <point x="118" y="67" type="curve"/>
      <point x="122" y="88"/>
      <point x="132" y="106"/>
      <point x="149" y="120" type="curve"/>
      <point x="165" y="134"/>
      <point x="183" y="141"/>
      <point x="204" y="141" type="curve" smooth="yes"/>
      <point x="225" y="141"/>
      <point x="241" y="134"/>
      <point x="254" y="120" type="curve"/>
      <point x="266" y="106"/>
      <point x="270" y="88"/>
      <point x="266" y="67" type="curve"/>
      <point x="263" y="46"/>
      <point x="253" y="29"/>
      <point x="236" y="15" type="curve" smooth="yes"/>
      <point x="219" y="1"/>
      <point x="201" y="-6"/>
    </contour>
    <contour>
      <point x="221" y="360" type="line"/>
      <point x="271" y="800" type="line"/>
      <point x="377" y="1440" type="line"/>
      <point x="461" y="1440" type="line"/>
      <point x="355" y="800" type="line"/>
      <point x="273" y="360" type="line"/>
    </contour>
  </outline>
</glyph>
<glyph name="numbersign" format="2">
  <advance width="1772"/>
  <unicode hex="0023"/>
  <outline>
    <contour>
      <point x="323" y="0" type="line"/>
      <point x="519" y="462" type="line"/>
      <point x="92" y="462" type="line"/>
      <point x="127" y="546" type="line"/>
      <point x="556" y="546" type="line"/>
      <point x="717" y="924" type="line"/>
      <point x="290" y="924" type="line"/>
      <point x="325" y="1008" type="line"/>
      <point x="754" y="1008" type="line"/>
      <point x="938" y="1440" type="line"/>
      <point x="1024" y="1440" type="line"/>
      <point x="839" y="1008" type="line"/>
      <point x="1225" y="1008" type="line"/>
      <point x="1408" y="1440" type="line"/>
      <point x="1494" y="1440" type="line"/>
      <point x="1309" y="1008" type="line"/>
      <point x="1736" y="1008" type="line"/>
      <point x="1701" y="924" type="line"/>
      <point x="1274" y="924" type="line"/>
      <point x="1111" y="546" type="line"/>
      <point x="1538" y="546" type="line"/>
      <point x="1503" y="462" type="line"/>
      <point x="1076" y="462" type="line"/>
      <point x="878" y="0" type="line"/>
      <point x="793" y="0" type="line"/>
      <point x="989" y="462" type="line"/>
      <point x="605" y="462" type="line"/>
      <point x="407" y="0" type="line"/>
    </contour>
    <contour>
      <point x="641" y="546" type="line"/>
      <point x="1027" y="546" type="line"/>
      <point x="1187" y="924" type="line"/>
      <point x="803" y="924" type="line"/>
    </contour>
  </outline>
</glyph>
<glyph name="dollar" format="2">
  <advance width="1095"/>
  <unicode hex="0024"/>
  <outline>
    <contour>
      <point x="366" y="-196" type="line"/>
      <point x="403" y="26" type="line"/>
      <point x="485" y="26" type="line"/>
      <point x="448" y="-196" type="line"/>
    </contour>
    <contour>
      <point x="633" y="1416" type="line"/>
      <point x="670" y="1640" type="line"/>
      <point x="752" y="1640" type="line"/>
      <point x="715" y="1416" type="line"/>
    </contour>
    <contour>
      <point x="460" y="-30" type="curve" smooth="yes"/>
      <point x="222" y="-30"/>
      <point x="13" y="95"/>
      <point x="5" y="358" type="curve"/>
      <point x="86" y="374" type="line"/>
      <point x="101" y="158"/>
      <point x="270" y="54"/>
      <point x="474" y="54" type="curve" smooth="yes"/>
      <point x="682" y="54"/>
      <point x="878" y="159"/>
      <point x="916" y="378" type="curve" smooth="yes"/>
      <point x="947" y="556"/>
      <point x="832" y="619"/>
      <point x="681" y="668" type="curve"/>
      <point x="401" y="762" type="line" smooth="yes"/>
      <point x="225" y="822"/>
      <point x="152" y="930"/>
      <point x="179" y="1090" type="curve" smooth="yes"/>
      <point x="217" y="1331"/>
      <point x="443" y="1470"/>
      <point x="677" y="1470" type="curve" smooth="yes"/>
      <point x="929" y="1470"/>
      <point x="1110" y="1318"/>
      <point x="1099" y="1050" type="curve"/>
      <point x="1018" y="1034" type="line"/>
      <point x="1027" y="1249"/>
      <point x="882" y="1386"/>
      <point x="665" y="1386" type="curve" smooth="yes"/>
      <point x="484" y="1386"/>
      <point x="296" y="1286"/>
      <point x="264" y="1092" type="curve" smooth="yes"/>
      <point x="243" y="967"/>
      <point x="309" y="886"/>
      <point x="482" y="826" type="curve"/>
      <point x="748" y="738" type="line" smooth="yes"/>
      <point x="937" y="674"/>
      <point x="1027" y="581"/>
      <point x="993" y="374" type="curve" smooth="yes"/>
      <point x="951" y="109"/>
      <point x="718" y="-30"/>
    </contour>
  </outline>
</glyph>
<glyph name="percent" format="2">
  <advance width="1751"/>
  <unicode hex="0025"/>
  <outline>
    <contour>
      <point x="118" y="0" type="line"/>
      <point x="69" y="60" type="line"/>
      <point x="1654" y="1440" type="line"/>
      <point x="1703" y="1382" type="line"/>
    </contour>
    <contour>
      <point x="1175" y="-30" type="qcurve" smooth="yes"/>
      <point x="1102" y="-30"/>
      <point x="984" y="27"/>
      <point x="904" y="125"/>
      <point x="870" y="256"/>
      <point x="882" y="330" type="qcurve" smooth="yes"/>
      <point x="894" y="403"/>
      <point x="973" y="534"/>
      <point x="1085" y="632"/>
      <point x="1223" y="690"/>
      <point x="1294" y="690" type="qcurve" smooth="yes"/>
      <point x="1368" y="690"/>
      <point x="1487" y="634"/>
      <point x="1567" y="536"/>
      <point x="1600" y="405"/>
      <point x="1588" y="330" type="qcurve" smooth="yes"/>
      <point x="1576" y="255"/>
      <point x="1499" y="124"/>
      <point x="1386" y="27"/>
      <point x="1249" y="-30"/>
    </contour>
    <contour>
      <point x="1189" y="54" type="qcurve" smooth="yes"/>
      <point x="1244" y="54"/>
      <point x="1350" y="98"/>
      <point x="1436" y="173"/>
      <point x="1496" y="274"/>
      <point x="1505" y="331" type="qcurve" smooth="yes"/>
      <point x="1514" y="387"/>
      <point x="1489" y="488"/>
      <point x="1428" y="563"/>
      <point x="1336" y="606"/>
      <point x="1280" y="606" type="qcurve" smooth="yes"/>
      <point x="1224" y="606"/>
      <point x="1119" y="562"/>
      <point x="1033" y="487"/>
      <point x="974" y="387"/>
      <point x="964" y="330" type="qcurve" smooth="yes"/>
      <point x="955" y="274"/>
      <point x="981" y="173"/>
      <point x="1042" y="98"/>
      <point x="1134" y="54"/>
    </contour>
    <contour>
      <point x="477" y="750" type="qcurve" smooth="yes"/>
      <point x="403" y="750"/>
      <point x="285" y="807"/>
      <point x="206" y="904"/>
      <point x="172" y="1035"/>
      <point x="184" y="1110" type="qcurve" smooth="yes"/>
      <point x="196" y="1183"/>
      <point x="275" y="1314"/>
      <point x="387" y="1412"/>
      <point x="525" y="1470"/>
      <point x="596" y="1470" type="qcurve" smooth="yes"/>
      <point x="670" y="1470"/>
      <point x="789" y="1413"/>
      <point x="868" y="1316"/>
      <point x="902" y="1185"/>
      <point x="890" y="1110" type="qcurve" smooth="yes"/>
      <point x="878" y="1036"/>
      <point x="800" y="905"/>
      <point x="687" y="807"/>
      <point x="550" y="750"/>
    </contour>
    <contour>
      <point x="491" y="834" type="qcurve" smooth="yes"/>
      <point x="546" y="834"/>
      <point x="652" y="878"/>
      <point x="738" y="953"/>
      <point x="798" y="1054"/>
      <point x="807" y="1111" type="qcurve" smooth="yes"/>
      <point x="816" y="1167"/>
      <point x="791" y="1268"/>
      <point x="730" y="1343"/>
      <point x="638" y="1386"/>
      <point x="582" y="1386" type="qcurve" smooth="yes"/>
      <point x="526" y="1386"/>
      <point x="421" y="1342"/>
      <point x="335" y="1267"/>
      <point x="276" y="1167"/>
      <point x="266" y="1110" type="qcurve" smooth="yes"/>
      <point x="257" y="1054"/>
      <point x="283" y="953"/>
      <point x="344" y="878"/>
      <point x="436" y="834"/>
    </contour>
  </outline>
</glyph>
<glyph name="ampersand" format="2">
  <advance width="1245"/>
  <unicode hex="0026"/>
  <outline>
    <contour>
      <point x="461" y="-30" type="qcurve" smooth="yes"/>
      <point x="369" y="-30"/>
      <point x="203" y="19"/>
      <point x="84" y="120"/>
      <point x="28" y="275"/>
      <point x="45" y="380" type="qcurve" smooth="yes"/>
      <point x="68" y="521"/>
      <point x="229" y="722"/>
      <point x="369" y="772" type="qcurve"/>
      <point x="339" y="809"/>
      <point x="287" y="880"/>
      <point x="253" y="958"/>
      <point x="242" y="1048"/>
      <point x="251" y="1102" type="qcurve" smooth="yes"/>
      <point x="266" y="1190"/>
      <point x="349" y="1327"/>
      <point x="470" y="1421"/>
      <point x="621" y="1470"/>
      <point x="704" y="1470" type="qcurve" smooth="yes"/>
      <point x="761" y="1470"/>
      <point x="869" y="1448"/>
      <point x="959" y="1399"/>
      <point x="1026" y="1320"/>
      <point x="1042" y="1264" type="qcurve"/>
      <point x="959" y="1228" type="line"/>
      <point x="948" y="1271"/>
      <point x="896" y="1331"/>
      <point x="824" y="1369"/>
      <point x="740" y="1386"/>
      <point x="698" y="1386" type="qcurve" smooth="yes"/>
      <point x="633" y="1386"/>
      <point x="514" y="1352"/>
      <point x="418" y="1283"/>
      <point x="351" y="1178"/>
      <point x="340" y="1106" type="qcurve" smooth="yes"/>
      <point x="331" y="1049"/>
      <point x="348" y="962"/>
      <point x="389" y="889"/>
      <point x="448" y="824"/>
      <point x="479" y="788" type="qcurve" smooth="yes"/>
      <point x="907" y="306" type="line"/>
      <point x="922" y="349"/>
      <point x="941" y="438"/>
      <point x="955" y="527"/>
      <point x="966" y="617"/>
      <point x="973" y="660" type="qcurve"/>
      <point x="1061" y="660" type="line"/>
      <point x="1029" y="466" type="line" smooth="yes"/>
      <point x="1019" y="408"/>
      <point x="993" y="294"/>
      <point x="966" y="238" type="qcurve"/>
      <point x="1123" y="62" type="line"/>
      <point x="1056" y="0" type="line"/>
      <point x="914" y="162" type="line"/>
      <point x="874" y="106"/>
      <point x="766" y="32"/>
      <point x="645" y="-12"/>
      <point x="519" y="-30"/>
    </contour>
    <contour>
      <point x="471" y="54" type="qcurve" smooth="yes"/>
      <point x="529" y="54"/>
      <point x="635" y="68"/>
      <point x="733" y="107"/>
      <point x="822" y="174"/>
      <point x="864" y="226" type="qcurve"/>
      <point x="428" y="706" type="line"/>
      <point x="302" y="671"/>
      <point x="155" y="510"/>
      <point x="133" y="382" type="qcurve" smooth="yes"/>
      <point x="119" y="296"/>
      <point x="165" y="172"/>
      <point x="261" y="92"/>
      <point x="397" y="54"/>
    </contour>
  </outline>
</glyph>
<glyph name="parenleft" format="2">
  <advance width="773"/>
  <unicode hex="0028"/>
  <outline>
    <contour>
      <point x="480" y="-344" type="line"/>
      <point x="432" y="-277"/>
      <point x="358" y="-129"/>
      <point x="329" y="-47" type="qcurve" smooth="yes"/>
      <point x="271" y="117"/>
      <point x="239" y="475"/>
      <point x="270" y="660" type="qcurve" smooth="yes"/>
      <point x="285" y="753"/>
      <point x="339" y="933"/>
      <point x="376" y="1024" type="qcurve"/>
      <point x="453" y="1205"/>
      <point x="675" y="1529"/>
      <point x="813" y="1664" type="qcurve"/>
      <point x="865" y="1612" type="line"/>
      <point x="798" y="1545"/>
      <point x="679" y="1401"/>
      <point x="625" y="1323" type="qcurve"/>
      <point x="519" y="1166"/>
      <point x="377" y="832"/>
      <point x="348" y="660" type="qcurve" smooth="yes"/>
      <point x="334" y="575"/>
      <point x="328" y="407"/>
      <point x="337" y="322" type="qcurve"/>
      <point x="353" y="152"/>
      <point x="461" y="-162"/>
      <point x="550" y="-290" type="qcurve"/>
    </contour>
  </outline>
</glyph>
<glyph name="parenright" format="2">
  <advance width="762"/>
  <unicode hex="0029"/>
  <outline>
    <contour>
      <point x="198" y="-344" type="line"/>
      <point x="318" y="-226"/>
      <point x="518" y="58"/>
      <point x="663" y="372"/>
      <point x="744" y="708"/>
      <point x="744" y="878" type="qcurve" smooth="yes"/>
      <point x="744" y="981"/>
      <point x="714" y="1189"/>
      <point x="653" y="1390"/>
      <point x="563" y="1580"/>
      <point x="503" y="1664" type="qcurve"/>
      <point x="434" y="1612" type="line"/>
      <point x="490" y="1530"/>
      <point x="576" y="1349"/>
      <point x="634" y="1159"/>
      <point x="664" y="961"/>
      <point x="664" y="861" type="qcurve" smooth="yes"/>
      <point x="664" y="702"/>
      <point x="586" y="385"/>
      <point x="447" y="88"/>
      <point x="257" y="-180"/>
      <point x="145" y="-290" type="qcurve"/>
    </contour>
  </outline>
</glyph>
<glyph name="asterisk" format="2">
  <advance width="806"/>
  <unicode hex="002A"/>
  <outline>
    <contour>
      <point x="243" y="814" type="line"/>
      <point x="185" y="864" type="line"/>
      <point x="380" y="1086" type="line"/>
      <point x="139" y="1170" type="line"/>
      <point x="178" y="1250" type="line"/>
      <point x="419" y="1166" type="line"/>
      <point x="464" y="1440" type="line"/>
      <point x="547" y="1440" type="line"/>
      <point x="501" y="1166" type="line"/>
      <point x="770" y="1250" type="line"/>
      <point x="782" y="1170" type="line"/>
      <point x="513" y="1086" type="line"/>
      <point x="634" y="864" type="line"/>
      <point x="559" y="814" type="line"/>
      <point x="439" y="1036" type="line"/>
    </contour>
  </outline>
</glyph>
<glyph name="plus" format="2">
  <advance width="1120"/>
  <unicode hex="002B"/>
  <outline>
    <contour>
      <point x="528" y="260" type="line"/>
      <point x="597" y="678" type="line"/>
      <point x="187" y="678" type="line"/>
      <point x="201" y="762" type="line"/>
      <point x="611" y="762" type="line"/>
      <point x="680" y="1180" type="line"/>
      <point x="763" y="1180" type="line"/>
      <point x="693" y="762" type="line"/>
      <point x="1103" y="762" type="line"/>
      <point x="1089" y="678" type="line"/>
      <point x="679" y="678" type="line"/>
      <point x="610" y="260" type="line"/>
    </contour>
  </outline>
</glyph>
<glyph name="comma" format="2">
  <advance width="441"/>
  <unicode hex="002C"/>
  <outline>
    <contour>
      <point x="97" y="180" type="line"/>
      <point x="188" y="180" type="line"/>
      <point x="1" y="-240" type="line"/>
      <point x="-64" y="-240" type="line"/>
    </contour>
  </outline>
</glyph>
<glyph name="hyphen" format="2">
  <advance width="806"/>
  <unicode hex="002D"/>
  <outline>
    <contour>
      <point x="123" y="498" type="line"/>
      <point x="137" y="582" type="line"/>
      <point x="725" y="582" type="line"/>
      <point x="711" y="498" type="line"/>
    </contour>
  </outline>
</glyph>
<glyph name="period" format="2">
  <advance width="410"/>
  <unicode hex="002E"/>
  <outline>
    <contour>
      <point x="110" y="-6" type="qcurve" smooth="yes"/>
      <point x="95" y="-6"/>
      <point x="71" y="5"/>
      <point x="55" y="25"/>
      <point x="47" y="52"/>
      <point x="50" y="67" type="qcurve" smooth="yes"/>
      <point x="53" y="83"/>
      <point x="68" y="110"/>
      <point x="91" y="130"/>
      <point x="119" y="141"/>
      <point x="135" y="141" type="qcurve" smooth="yes"/>
      <point x="151" y="141"/>
      <point x="175" y="130"/>
      <point x="191" y="110"/>
      <point x="198" y="83"/>
      <point x="195" y="67" type="qcurve"/>
      <point x="193" y="52"/>
      <point x="176" y="25"/>
      <point x="153" y="5"/>
      <point x="126" y="-6"/>
    </contour>
  </outline>
</glyph>
<glyph name="slash" format="2">
  <advance width="682"/>
  <unicode hex="002F"/>
  <outline>
    <contour>
      <point x="690" y="1440" type="line"/>
      <point x="75" y="0" type="line"/>
      <point x="163" y="0" type="line"/>
      <point x="778" y="1440" type="line"/>
    </contour>
  </outline>
</glyph>
<glyph name="zero" format="2">
  <advance width="1298"/>
  <unicode hex="0030"/>
  <outline>
    <contour>
      <point x="707.472" y="-35.136" type="curve" smooth="yes"/>
      <point x="360.992" y="-35.136"/>
      <point x="225.328" y="220.576"/>
      <point x="225.328" y="535.824" type="curve" smooth="yes"/>
      <point x="225.328" y="903.776"/>
      <point x="376.608" y="1454.24"/>
      <point x="830.448" y="1454.24" type="curve" smooth="yes"/>
      <point x="1183.76" y="1454.24"/>
      <point x="1308.69" y="1191.7"/>
      <point x="1308.69" y="876.448" type="curve" smooth="yes"/>
      <point x="1308.69" y="511.424"/>
      <point x="1157.41" y="-35.136"/>
    </contour>
    <contour>
      <point x="706.496" y="48.8" type="curve" smooth="yes"/>
      <point x="1099.82" y="48.8"/>
      <point x="1219.87" y="568.032"/>
      <point x="1219.87" y="877.424" type="curve" smooth="yes"/>
      <point x="1219.87" y="1135.09"/>
      <point x="1119.34" y="1370.3"/>
      <point x="826.544" y="1370.3" type="curve" smooth="yes"/>
      <point x="435.168" y="1370.3"/>
      <point x="314.144" y="849.12"/>
      <point x="314.144" y="540.704" type="curve" smooth="yes"/>
      <point x="314.144" y="286.944"/>
      <point x="416.624" y="48.8"/>
    </contour>
  </outline>
</glyph>
<glyph name="one" format="2">
  <advance width="699"/>
  <unicode hex="0031"/>
  <outline>
    <contour>
      <point x="417" y="0" type="line"/>
      <point x="624" y="1345" type="line"/>
      <point x="336" y="1181" type="line"/>
      <point x="307" y="1250" type="line"/>
      <point x="637" y="1440" type="line"/>
      <point x="719" y="1440" type="line"/>
      <point x="499" y="0" type="line"/>
    </contour>
  </outline>
</glyph>
<glyph name="two" format="2">
  <advance width="1086"/>
  <unicode hex="0032"/>
  <outline>
    <contour>
      <point x="66" y="84" type="line"/>
      <point x="752" y="689" type="line" smooth="yes"/>
      <point x="871" y="794"/>
      <point x="1021" y="934"/>
      <point x="1021" y="1112" type="curve" smooth="yes"/>
      <point x="1021" y="1299"/>
      <point x="828" y="1388"/>
      <point x="668" y="1388" type="curve" smooth="yes"/>
      <point x="478" y="1388"/>
      <point x="311" y="1260"/>
      <point x="262" y="1072" type="curve"/>
      <point x="184" y="1094" type="line"/>
      <point x="250" y="1320"/>
      <point x="438" y="1472"/>
      <point x="675" y="1472" type="curve" smooth="yes"/>
      <point x="886" y="1472"/>
      <point x="1105" y="1358"/>
      <point x="1105" y="1116" type="curve" smooth="yes"/>
      <point x="1105" y="917"/>
      <point x="970" y="771"/>
      <point x="834" y="652" type="curve" smooth="yes"/>
      <point x="183" y="84" type="line"/>
      <point x="949" y="84" type="line"/>
      <point x="935" y="0" type="line"/>
      <point x="53" y="0" type="line"/>
    </contour>
  </outline>
</glyph>
<glyph name="three" format="2">
  <advance width="1032"/>
  <unicode hex="0033"/>
  <outline>
    <contour>
      <point x="395" y="-30" type="qcurve" smooth="yes"/>
      <point x="342" y="-30"/>
      <point x="252" y="-12"/>
      <point x="213" y="5" type="qcurve" smooth="yes"/>
      <point x="134" y="40"/>
      <point x="37" y="172"/>
      <point x="23" y="266" type="qcurve"/>
      <point x="104" y="294" type="line"/>
      <point x="115" y="233"/>
      <point x="167" y="143"/>
      <point x="208" y="112" type="qcurve" smooth="yes"/>
      <point x="249" y="81"/>
      <point x="348" y="52"/>
      <point x="407" y="54" type="qcurve" smooth="yes"/>
      <point x="463" y="56"/>
      <point x="561" y="81"/>
      <point x="603" y="104" type="qcurve" smooth="yes"/>
      <point x="687" y="152"/>
      <point x="794" y="317"/>
      <point x="813" y="432" type="qcurve" smooth="yes"/>
      <point x="828" y="520"/>
      <point x="803" y="656"/>
      <point x="764" y="707" type="qcurve" smooth="yes"/>
      <point x="724" y="758"/>
      <point x="607" y="808"/>
      <point x="528" y="808" type="qcurve" smooth="yes"/>
      <point x="486" y="808"/>
      <point x="383" y="784"/>
      <point x="339" y="764" type="qcurve"/>
      <point x="301" y="832" type="line"/>
      <point x="996" y="1418" type="line"/>
      <point x="1011" y="1356" type="line"/>
      <point x="260" y="1356" type="line"/>
      <point x="274" y="1440" type="line"/>
      <point x="1056" y="1440" type="line"/>
      <point x="1042" y="1354" type="line"/>
      <point x="412" y="826" type="line"/>
      <point x="418" y="876" type="line"/>
      <point x="501" y="895"/>
      <point x="642" y="891"/>
      <point x="702" y="868" type="qcurve" smooth="yes"/>
      <point x="761" y="845"/>
      <point x="846" y="766"/>
      <point x="874" y="709" type="qcurve" smooth="yes"/>
      <point x="901" y="652"/>
      <point x="915" y="514"/>
      <point x="901" y="432" type="qcurve" smooth="yes"/>
      <point x="889" y="362"/>
      <point x="843" y="240"/>
      <point x="807" y="188" type="qcurve" smooth="yes"/>
      <point x="771" y="136"/>
      <point x="683" y="56"/>
      <point x="630" y="27" type="qcurve" smooth="yes"/>
      <point x="576" y="-2"/>
      <point x="460" y="-30"/>
    </contour>
  </outline>
</glyph>
<glyph name="four" format="2">
  <advance width="1110"/>
  <unicode hex="0034"/>
  <outline>
    <contour>
      <point x="672" y="0" type="line"/>
      <point x="721" y="306" type="line"/>
      <point x="36" y="306" type="line"/>
      <point x="50" y="390" type="line"/>
      <point x="702" y="1440" type="line"/>
      <point x="792" y="1440" type="line"/>
      <point x="140" y="390" type="line"/>
      <point x="734" y="390" type="line"/>
      <point x="805" y="840" type="line"/>
      <point x="887" y="840" type="line"/>
      <point x="816" y="390" type="line"/>
      <point x="985" y="390" type="line"/>
      <point x="971" y="306" type="line"/>
      <point x="803" y="306" type="line"/>
      <point x="754" y="0" type="line"/>
    </contour>
  </outline>
</glyph>
<glyph name="five" format="2">
  <advance width="1107"/>
  <unicode hex="0035"/>
  <outline>
    <contour>
      <point x="447" y="-30" type="curve" smooth="yes"/>
      <point x="231" y="-30"/>
      <point x="72" y="115"/>
      <point x="52" y="330" type="curve"/>
      <point x="134" y="352" type="line"/>
      <point x="145" y="176"/>
      <point x="288" y="56"/>
      <point x="461" y="56" type="curve" smooth="yes"/>
      <point x="702" y="56"/>
      <point x="920" y="275"/>
      <point x="920" y="516" type="curve" smooth="yes"/>
      <point x="920" y="707"/>
      <point x="785" y="848"/>
      <point x="592" y="848" type="curve" smooth="yes"/>
      <point x="443" y="848"/>
      <point x="312" y="766"/>
      <point x="224" y="650" type="curve"/>
      <point x="148" y="700" type="line"/>
      <point x="271" y="1440" type="line"/>
      <point x="1059" y="1440" type="line"/>
      <point x="1045" y="1356" type="line"/>
      <point x="278" y="1356" type="line"/>
      <point x="349" y="1414" type="line"/>
      <point x="231" y="702" type="line"/>
      <point x="207" y="748" type="line"/>
      <point x="307" y="859"/>
      <point x="455" y="932"/>
      <point x="606" y="932" type="curve" smooth="yes"/>
      <point x="833" y="932"/>
      <point x="1004" y="760"/>
      <point x="1004" y="533" type="curve" smooth="yes"/>
      <point x="1004" y="246"/>
      <point x="736" y="-30"/>
    </contour>
  </outline>
</glyph>
<glyph name="six" format="2">
  <advance width="1086"/>
  <unicode hex="0036"/>
  <outline>
    <contour>
      <point x="444" y="-30" type="qcurve" smooth="yes"/>
      <point x="347" y="-30"/>
      <point x="188" y="45"/>
      <point x="81" y="176"/>
      <point x="37" y="351"/>
      <point x="53" y="450" type="qcurve" smooth="yes"/>
      <point x="58" y="483"/>
      <point x="86" y="567"/>
      <point x="125" y="653"/>
      <point x="171" y="732"/>
      <point x="193" y="760" type="qcurve" smooth="yes"/>
      <point x="737" y="1440" type="line"/>
      <point x="832" y="1440" type="line"/>
      <point x="171" y="626" type="line"/>
      <point x="140" y="664" type="line"/>
      <point x="181" y="724"/>
      <point x="285" y="822"/>
      <point x="405" y="892"/>
      <point x="536" y="930"/>
      <point x="603" y="930" type="qcurve" smooth="yes"/>
      <point x="700" y="930"/>
      <point x="859" y="855"/>
      <point x="966" y="724"/>
      <point x="1010" y="549"/>
      <point x="994" y="450" type="qcurve" smooth="yes"/>
      <point x="978" y="351"/>
      <point x="875" y="176"/>
      <point x="725" y="45"/>
      <point x="541" y="-30"/>
    </contour>
    <contour>
      <point x="458" y="54" type="qcurve" smooth="yes"/>
      <point x="539" y="54"/>
      <point x="691" y="116"/>
      <point x="813" y="223"/>
      <point x="898" y="367"/>
      <point x="912" y="450" type="qcurve" smooth="yes"/>
      <point x="926" y="533"/>
      <point x="889" y="677"/>
      <point x="801" y="784"/>
      <point x="671" y="846"/>
      <point x="589" y="846" type="qcurve" smooth="yes"/>
      <point x="508" y="846"/>
      <point x="357" y="784"/>
      <point x="234" y="677"/>
      <point x="149" y="533"/>
      <point x="136" y="450" type="qcurve" smooth="yes"/>
      <point x="122" y="367"/>
      <point x="159" y="223"/>
      <point x="246" y="116"/>
      <point x="377" y="54"/>
    </contour>
  </outline>
</glyph>
<glyph name="seven" format="2">
  <advance width="930"/>
  <unicode hex="0037"/>
  <outline>
    <contour>
      <point x="116" y="0" type="line"/>
      <point x="881" y="1354" type="line"/>
      <point x="203" y="1354" type="line"/>
      <point x="217" y="1440" type="line"/>
      <point x="984" y="1440" type="line"/>
      <point x="969" y="1354" type="line"/>
      <point x="204" y="0" type="line"/>
    </contour>
  </outline>
</glyph>
<glyph name="eight" format="2">
  <advance width="1173"/>
  <unicode hex="0038"/>
  <outline>
    <contour>
      <point x="664" y="700" type="curve" smooth="yes"/>
      <point x="451" y="700"/>
      <point x="213" y="657"/>
      <point x="213" y="373" type="curve" smooth="yes"/>
      <point x="213" y="181"/>
      <point x="390" y="54"/>
      <point x="565" y="54" type="curve" smooth="yes"/>
      <point x="783" y="54"/>
      <point x="1021" y="133"/>
      <point x="1021" y="410" type="curve" smooth="yes"/>
      <point x="1021" y="601"/>
      <point x="829" y="700"/>
    </contour>
    <contour>
      <point x="676" y="784" type="curve" smooth="yes"/>
      <point x="874" y="784"/>
      <point x="1085" y="848"/>
      <point x="1085" y="1102" type="curve" smooth="yes"/>
      <point x="1085" y="1280"/>
      <point x="927" y="1384"/>
      <point x="770" y="1384" type="curve" smooth="yes"/>
      <point x="571" y="1384"/>
      <point x="361" y="1322"/>
      <point x="361" y="1066" type="curve" smooth="yes"/>
      <point x="361" y="893"/>
      <point x="526" y="784"/>
    </contour>
    <contour>
      <point x="783" y="1469" type="curve" smooth="yes"/>
      <point x="982" y="1469"/>
      <point x="1170" y="1324"/>
      <point x="1170" y="1109" type="curve" smooth="yes"/>
      <point x="1170" y="930"/>
      <point x="1063" y="769"/>
      <point x="894" y="723" type="curve"/>
      <point x="1026" y="680"/>
      <point x="1107" y="553"/>
      <point x="1107" y="412" type="curve" smooth="yes"/>
      <point x="1107" y="88"/>
      <point x="831" y="-30"/>
      <point x="550" y="-30" type="curve" smooth="yes"/>
      <point x="333" y="-30"/>
      <point x="127" y="134"/>
      <point x="127" y="369" type="curve" smooth="yes"/>
      <point x="127" y="560"/>
      <point x="256" y="740"/>
      <point x="447" y="763" type="curve"/>
      <point x="336" y="817"/>
      <point x="276" y="934"/>
      <point x="276" y="1059" type="curve" smooth="yes"/>
      <point x="276" y="1372"/>
      <point x="530" y="1469"/>
    </contour>
  </outline>
</glyph>
<glyph name="nine" format="2">
  <advance width="1142"/>
  <unicode hex="0039"/>
  <outline>
    <contour>
      <point x="724.376" y="1468.88" type="curve" smooth="yes"/>
      <point x="1107.94" y="1468.88"/>
      <point x="1234.82" y="1255.14"/>
      <point x="1234.82" y="953.552" type="curve" smooth="yes"/>
      <point x="1234.82" y="504.592"/>
      <point x="1025.96" y="-30.256"/>
      <point x="498.92" y="-30.256" type="curve" smooth="yes"/>
      <point x="390.584" y="-30.256"/>
      <point x="281.272" y="-8.784"/>
      <point x="179.768" y="30.256" type="curve"/>
      <point x="200.264" y="112.24" type="line"/>
      <point x="291.032" y="72.224"/>
      <point x="383.752" y="51.728"/>
      <point x="480.376" y="51.728" type="curve" smooth="yes"/>
      <point x="904.936" y="51.728"/>
      <point x="1060.12" y="362.096"/>
      <point x="1129.42" y="718.336" type="curve"/>
      <point x="1047.43" y="573.888"/>
      <point x="867.848" y="517.28"/>
      <point x="712.664" y="517.28" type="curve" smooth="yes"/>
      <point x="444.264" y="517.28"/>
      <point x="212.952" y="658.8"/>
      <point x="212.952" y="958.432" type="curve" smooth="yes"/>
      <point x="212.952" y="1273.68"/>
      <point x="425.72" y="1468.88"/>
    </contour>
    <contour>
      <point x="719.496" y="1384.94" type="curve" smooth="yes"/>
      <point x="467.688" y="1384.94"/>
      <point x="302.744" y="1221.95"/>
      <point x="302.744" y="960.384" type="curve" smooth="yes"/>
      <point x="302.744" y="707.6"/>
      <point x="499.896" y="600.24"/>
      <point x="720.472" y="600.24" type="curve" smooth="yes"/>
      <point x="971.304" y="600.24"/>
      <point x="1138.2" y="760.304"/>
      <point x="1138.2" y="1024.8" type="curve" smooth="yes"/>
      <point x="1138.2" y="1283.44"/>
      <point x="944.952" y="1384.94"/>
    </contour>
  </outline>
</glyph>
<glyph name="less" format="2">
  <advance width="1106"/>
  <unicode hex="003C"/>
  <outline>
    <contour>
      <point x="626" y="168" type="line"/>
      <point x="246" y="630" type="line"/>
      <point x="772" y="1092" type="line"/>
      <point x="818" y="1038" type="line"/>
      <point x="354" y="630" type="line"/>
      <point x="689" y="222" type="line"/>
    </contour>
  </outline>
</glyph>
<glyph name="equal" format="2">
  <advance width="1436"/>
  <unicode hex="003D"/>
  <outline>
    <contour>
      <point x="248" y="836" type="line"/>
      <point x="262" y="920" type="line"/>
      <point x="1261" y="920" type="line"/>
      <point x="1247" y="836" type="line"/>
    </contour>
    <contour>
      <point x="195" y="520" type="line"/>
      <point x="209" y="604" type="line"/>
      <point x="1209" y="604" type="line"/>
      <point x="1195" y="520" type="line"/>
    </contour>
  </outline>
</glyph>
<glyph name="greater" format="2">
  <advance width="1126"/>
  <unicode hex="003E"/>
  <outline>
    <contour>
      <point x="367" y="222" type="line"/>
      <point x="834" y="630" type="line"/>
      <point x="502" y="1038" type="line"/>
      <point x="566" y="1092" type="line"/>
      <point x="942" y="630" type="line"/>
      <point x="413" y="168" type="line"/>
    </contour>
  </outline>
</glyph>
<glyph name="question" format="2">
  <advance width="1129"/>
  <unicode hex="003F"/>
  <outline>
    <contour>
      <point x="585" y="-6" type="curve" smooth="yes"/>
      <point x="626" y="-6"/>
      <point x="662" y="25"/>
      <point x="669" y="67" type="curve" smooth="yes"/>
      <point x="676" y="109"/>
      <point x="650" y="141"/>
      <point x="609" y="141" type="curve" smooth="yes"/>
      <point x="568" y="141"/>
      <point x="531" y="109"/>
      <point x="524" y="67" type="curve" smooth="yes"/>
      <point x="517" y="26"/>
      <point x="545" y="-6"/>
    </contour>
    <contour>
      <point x="591" y="360" type="line"/>
      <point x="624" y="560" type="line" smooth="yes"/>
      <point x="639" y="650"/>
      <point x="669" y="702"/>
      <point x="736" y="730" type="curve" smooth="yes"/>
      <point x="985" y="834" type="line" smooth="yes"/>
      <point x="1108" y="885"/>
      <point x="1151" y="968"/>
      <point x="1151" y="1094" type="curve" smooth="yes"/>
      <point x="1151" y="1328"/>
      <point x="1004" y="1386"/>
      <point x="806" y="1386" type="curve" smooth="yes"/>
      <point x="556" y="1386"/>
      <point x="414" y="1293"/>
      <point x="309" y="1066" type="curve"/>
      <point x="232" y="1082" type="line"/>
      <point x="339" y="1341"/>
      <point x="531" y="1470"/>
      <point x="822" y="1470" type="curve" smooth="yes"/>
      <point x="1061" y="1470"/>
      <point x="1236" y="1383"/>
      <point x="1236" y="1121" type="curve" smooth="yes"/>
      <point x="1236" y="955"/>
      <point x="1166" y="827"/>
      <point x="1011" y="760" type="curve" smooth="yes"/>
      <point x="778" y="660" type="line" smooth="yes"/>
      <point x="729" y="639"/>
      <point x="709" y="595"/>
      <point x="698" y="520" type="curve" smooth="yes"/>
      <point x="674" y="360" type="line"/>
    </contour>
  </outline>
</glyph>
<glyph name="at" format="2">
  <advance width="1735"/>
  <unicode hex="0040"/>
  <outline>
    <contour>
      <point x="806" y="-210" type="curve" smooth="yes"/>
      <point x="450" y="-210"/>
      <point x="189" y="43"/>
      <point x="189" y="401" type="curve" smooth="yes"/>
      <point x="189" y="885"/>
      <point x="583" y="1290"/>
      <point x="1068" y="1290" type="curve" smooth="yes"/>
      <point x="1410" y="1290"/>
      <point x="1669" y="1099"/>
      <point x="1669" y="739" type="curve" smooth="yes"/>
      <point x="1669" y="515"/>
      <point x="1559" y="202"/>
      <point x="1290" y="202" type="curve" smooth="yes"/>
      <point x="1177" y="202"/>
      <point x="1084" y="254"/>
      <point x="1075" y="376" type="curve"/>
      <point x="1111" y="368" type="line"/>
      <point x="1058" y="281"/>
      <point x="954" y="238"/>
      <point x="855" y="238" type="curve" smooth="yes"/>
      <point x="723" y="238"/>
      <point x="632" y="319"/>
      <point x="632" y="453" type="curve" smooth="yes"/>
      <point x="632" y="634"/>
      <point x="762" y="784"/>
      <point x="947" y="784" type="curve" smooth="yes"/>
      <point x="1038" y="784"/>
      <point x="1130" y="752"/>
      <point x="1159" y="658" type="curve"/>
      <point x="1116" y="620" type="line"/>
      <point x="1138" y="756" type="line"/>
      <point x="1215" y="756" type="line"/>
      <point x="1200" y="664"/>
      <point x="1164" y="513"/>
      <point x="1164" y="426" type="curve" smooth="yes"/>
      <point x="1164" y="325"/>
      <point x="1219" y="286"/>
      <point x="1313" y="286" type="curve" smooth="yes"/>
      <point x="1519" y="286"/>
      <point x="1579" y="565"/>
      <point x="1579" y="725" type="curve" smooth="yes"/>
      <point x="1579" y="1042"/>
      <point x="1355" y="1206"/>
      <point x="1054" y="1206" type="curve" smooth="yes"/>
      <point x="634" y="1206"/>
      <point x="279" y="842"/>
      <point x="279" y="423" type="curve" smooth="yes"/>
      <point x="279" y="109"/>
      <point x="512" y="-126"/>
      <point x="826" y="-126" type="curve" smooth="yes"/>
      <point x="960" y="-126"/>
      <point x="1102" y="-89"/>
      <point x="1216" y="-18" type="curve"/>
      <point x="1240" y="-86" type="line"/>
      <point x="1109" y="-165"/>
      <point x="959" y="-210"/>
    </contour>
    <contour>
      <point x="873" y="324" type="curve" smooth="yes"/>
      <point x="1010" y="324"/>
      <point x="1090" y="428"/>
      <point x="1090" y="560" type="curve" smooth="yes"/>
      <point x="1090" y="655"/>
      <point x="1026" y="702"/>
      <point x="935" y="702" type="curve" smooth="yes"/>
      <point x="793" y="702"/>
      <point x="716" y="601"/>
      <point x="716" y="464" type="curve" smooth="yes"/>
      <point x="716" y="368"/>
      <point x="783" y="324"/>
    </contour>
  </outline>
</glyph>
<glyph name="B" format="2">
  <advance width="1164"/>
  <unicode hex="0042"/>
  <outline>
    <contour>
      <point x="58" y="0" type="line"/>
      <point x="297" y="1440" type="line"/>
      <point x="832" y="1440" type="line" smooth="yes"/>
      <point x="1007" y="1440"/>
      <point x="1157" y="1332"/>
      <point x="1157" y="1146" type="curve" smooth="yes"/>
      <point x="1157" y="967"/>
      <point x="1026" y="801"/>
      <point x="859" y="742" type="curve"/>
      <point x="863" y="790" type="line"/>
      <point x="1013" y="739"/>
      <point x="1113" y="630"/>
      <point x="1113" y="466" type="curve" smooth="yes"/>
      <point x="1113" y="192"/>
      <point x="900" y="0"/>
      <point x="631" y="0" type="curve" smooth="yes"/>
    </contour>
    <contour>
      <point x="155" y="84" type="line"/>
      <point x="605" y="84" type="line" smooth="yes"/>
      <point x="823" y="84"/>
      <point x="1021" y="208"/>
      <point x="1021" y="444" type="curve" smooth="yes"/>
      <point x="1021" y="599"/>
      <point x="906" y="718"/>
      <point x="750" y="718" type="curve" smooth="yes"/>
      <point x="260" y="718" type="line"/>
    </contour>
    <contour>
      <point x="273" y="800" type="line"/>
      <point x="726" y="800" type="line" smooth="yes"/>
      <point x="908" y="800"/>
      <point x="1068" y="961"/>
      <point x="1068" y="1143" type="curve" smooth="yes"/>
      <point x="1068" y="1286"/>
      <point x="949" y="1358"/>
      <point x="818" y="1358" type="curve" smooth="yes"/>
      <point x="366" y="1358" type="line"/>
    </contour>
  </outline>
</glyph>
<glyph name="C" format="2">
  <advance width="1362"/>
  <unicode hex="0043"/>
  <outline>
    <contour>
      <point x="649" y="-30" type="curve" smooth="yes"/>
      <point x="293" y="-30"/>
      <point x="123" y="188"/>
      <point x="123" y="531" type="curve" smooth="yes"/>
      <point x="123" y="994"/>
      <point x="384" y="1470"/>
      <point x="897" y="1470" type="curve" smooth="yes"/>
      <point x="1208" y="1470"/>
      <point x="1396" y="1300"/>
      <point x="1419" y="988" type="curve"/>
      <point x="1329" y="968" type="line"/>
      <point x="1307" y="1237"/>
      <point x="1155" y="1386"/>
      <point x="883" y="1386" type="curve" smooth="yes"/>
      <point x="427" y="1386"/>
      <point x="212" y="938"/>
      <point x="212" y="536" type="curve" smooth="yes"/>
      <point x="212" y="245"/>
      <point x="362" y="54"/>
      <point x="663" y="54" type="curve" smooth="yes"/>
      <point x="944" y="54"/>
      <point x="1144" y="218"/>
      <point x="1247" y="472" type="curve"/>
      <point x="1330" y="452" type="line"/>
      <point x="1209" y="156"/>
      <point x="975" y="-30"/>
    </contour>
  </outline>
</glyph>
<glyph name="D" format="2">
  <advance width="1262"/>
  <unicode hex="0044"/>
  <outline>
    <contour>
      <point x="58" y="0" type="line"/>
      <point x="297" y="1440" type="line"/>
      <point x="743" y="1440" type="line" smooth="yes"/>
      <point x="1087" y="1440"/>
      <point x="1257" y="1285"/>
      <point x="1257" y="919" type="curve" smooth="yes"/>
      <point x="1257" y="393"/>
      <point x="1011" y="0"/>
      <point x="472" y="0" type="curve" smooth="yes"/>
    </contour>
    <contour>
      <point x="161" y="84" type="line"/>
      <point x="486" y="84" type="line" smooth="yes"/>
      <point x="974" y="84"/>
      <point x="1169" y="445"/>
      <point x="1169" y="911" type="curve" smooth="yes"/>
      <point x="1169" y="1245"/>
      <point x="1016" y="1356"/>
      <point x="696" y="1356" type="curve" smooth="yes"/>
      <point x="371" y="1356" type="line"/>
    </contour>
  </outline>
</glyph>
<glyph name="E" format="2">
  <advance width="1080"/>
  <unicode hex="0045"/>
  <outline>
    <contour>
      <point x="33" y="0" type="line"/>
      <point x="272" y="1440" type="line"/>
      <point x="1134" y="1440" type="line"/>
      <point x="1120" y="1356" type="line"/>
      <point x="340" y="1356" type="line"/>
      <point x="242" y="762" type="line"/>
      <point x="904" y="762" type="line"/>
      <point x="890" y="678" type="line"/>
      <point x="228" y="678" type="line"/>
      <point x="130" y="84" type="line"/>
      <point x="910" y="84" type="line"/>
      <point x="896" y="0" type="line"/>
    </contour>
  </outline>
</glyph>
<glyph name="F" format="2">
  <advance width="947"/>
  <unicode hex="0046"/>
  <outline>
    <contour>
      <point x="93" y="0" type="line"/>
      <point x="332" y="1440" type="line"/>
      <point x="1116" y="1440" type="line"/>
      <point x="1102" y="1356" type="line"/>
      <point x="400" y="1356" type="line"/>
      <point x="302" y="762" type="line"/>
      <point x="886" y="762" type="line"/>
      <point x="872" y="678" type="line"/>
      <point x="288" y="678" type="line"/>
      <point x="176" y="0" type="line"/>
    </contour>
  </outline>
</glyph>
<glyph name="G" format="2">
  <advance width="1342"/>
  <unicode hex="0047"/>
  <outline>
    <contour>
      <point x="1162" y="0" type="line"/>
      <point x="1236" y="0" type="line"/>
      <point x="1355" y="720" type="line"/>
      <point x="1281" y="720" type="line"/>
      <point x="1212" y="303" type="line"/>
    </contour>
    <contour>
      <point x="897" y="1468" type="curve" smooth="yes"/>
      <point x="699" y="1468"/>
      <point x="529" y="1398"/>
      <point x="399" y="1270" type="curve" smooth="yes"/>
      <point x="269" y="1142"/>
      <point x="178" y="954"/>
      <point x="140" y="720" type="curve" smooth="yes"/>
      <point x="97" y="460"/>
      <point x="136" y="257"/>
      <point x="247" y="128" type="curve" smooth="yes"/>
      <point x="335" y="26"/>
      <point x="469" y="-30"/>
      <point x="644" y="-30" type="curve" smooth="yes"/>
      <point x="783" y="-30"/>
      <point x="919" y="7"/>
      <point x="1031" y="82" type="curve" smooth="yes"/>
      <point x="1104" y="131"/>
      <point x="1167" y="196"/>
      <point x="1213" y="277" type="curve"/>
      <point x="1351" y="720" type="line"/>
      <point x="823" y="720" type="line"/>
      <point x="809" y="636" type="line"/>
      <point x="1267" y="636" type="line"/>
      <point x="1232" y="425"/>
      <point x="1146" y="251"/>
      <point x="998" y="150" type="curve" smooth="yes"/>
      <point x="908" y="89"/>
      <point x="796" y="54"/>
      <point x="658" y="54" type="curve" smooth="yes"/>
      <point x="508" y="54"/>
      <point x="394" y="101"/>
      <point x="319" y="188" type="curve" smooth="yes"/>
      <point x="222" y="300"/>
      <point x="189" y="478"/>
      <point x="226" y="708" type="curve" smooth="yes"/>
      <point x="262" y="926"/>
      <point x="337" y="1093"/>
      <point x="450" y="1209" type="curve" smooth="yes"/>
      <point x="563" y="1325"/>
      <point x="706" y="1384"/>
      <point x="883" y="1384" type="curve" smooth="yes"/>
      <point x="986" y="1384"/>
      <point x="1073" y="1359"/>
      <point x="1142" y="1310" type="curve" smooth="yes"/>
      <point x="1213" y="1261"/>
      <point x="1260" y="1188"/>
      <point x="1281" y="1088" type="curve"/>
      <point x="1367" y="1122" type="line"/>
      <point x="1342" y="1239"/>
      <point x="1283" y="1325"/>
      <point x="1203" y="1382" type="curve" smooth="yes"/>
      <point x="1121" y="1439"/>
      <point x="1019" y="1468"/>
    </contour>
  </outline>
</glyph>
<glyph name="H" format="2">
  <advance width="1265"/>
  <unicode hex="0048"/>
  <outline>
    <contour>
      <point x="23" y="0" type="line"/>
      <point x="251" y="1440" type="line"/>
      <point x="334" y="1440" type="line"/>
      <point x="226" y="762" type="line"/>
      <point x="1081" y="762" type="line"/>
      <point x="1188" y="1440" type="line"/>
      <point x="1270" y="1440" type="line"/>
      <point x="1042" y="0" type="line"/>
      <point x="960" y="0" type="line"/>
      <point x="1067" y="678" type="line"/>
      <point x="213" y="678" type="line"/>
      <point x="106" y="0" type="line"/>
    </contour>
  </outline>
</glyph>
<glyph name="I" format="2">
  <advance width="373"/>
  <unicode hex="0049"/>
  <outline>
    <contour>
      <point x="112" y="0" type="line"/>
      <point x="350" y="1440" type="line"/>
      <point x="432" y="1440" type="line"/>
      <point x="194" y="0" type="line"/>
    </contour>
  </outline>
</glyph>
<glyph name="J" format="2">
  <advance width="849"/>
  <unicode hex="004A"/>
  <outline>
    <contour>
      <point x="237" y="-28" type="curve" smooth="yes"/>
      <point x="66" y="-28"/>
      <point x="-54" y="79"/>
      <point x="-68" y="250" type="curve"/>
      <point x="20" y="270" type="line"/>
      <point x="28" y="141"/>
      <point x="128" y="56"/>
      <point x="255" y="56" type="curve" smooth="yes"/>
      <point x="376" y="56"/>
      <point x="485" y="128"/>
      <point x="536" y="237" type="curve" smooth="yes"/>
      <point x="562" y="294"/>
      <point x="571" y="362"/>
      <point x="581" y="424" type="curve" smooth="yes"/>
      <point x="749" y="1440" type="line"/>
      <point x="831" y="1440" type="line"/>
      <point x="663" y="424" type="line" smooth="yes"/>
      <point x="652" y="359"/>
      <point x="643" y="293"/>
      <point x="620" y="231" type="curve" smooth="yes"/>
      <point x="559" y="72"/>
      <point x="405" y="-28"/>
    </contour>
  </outline>
</glyph>
<glyph name="K" format="2">
  <advance width="1083"/>
  <unicode hex="004B"/>
  <outline>
    <contour>
      <point x="1113" y="1440" type="line"/>
      <point x="1226" y="1440" type="line"/>
      <point x="218" y="518" type="line"/>
      <point x="238" y="639" type="line"/>
    </contour>
    <contour>
      <point x="937" y="0" type="line"/>
      <point x="464" y="782" type="line"/>
      <point x="544" y="828" type="line"/>
      <point x="1050" y="0" type="line"/>
    </contour>
    <contour>
      <point x="93" y="0" type="line"/>
      <point x="332" y="1440" type="line"/>
      <point x="414" y="1440" type="line"/>
      <point x="176" y="0" type="line"/>
    </contour>
  </outline>
</glyph>
<glyph name="L" format="2">
  <advance width="956"/>
  <unicode hex="004C"/>
  <outline>
    <contour>
      <point x="112" y="0" type="line"/>
      <point x="350" y="1440" type="line"/>
      <point x="432" y="1440" type="line"/>
      <point x="208" y="84" type="line"/>
      <point x="910" y="84" type="line"/>
      <point x="896" y="0" type="line"/>
    </contour>
  </outline>
</glyph>
<glyph name="M" format="2">
  <advance width="1511"/>
  <unicode hex="004D"/>
  <outline>
    <contour>
      <point x="18" y="0" type="line"/>
      <point x="257" y="1440" type="line"/>
      <point x="335" y="1440" type="line"/>
      <point x="686" y="232" type="line"/>
      <point x="1431" y="1440" type="line"/>
      <point x="1513" y="1440" type="line"/>
      <point x="1275" y="2" type="line"/>
      <point x="1193" y="2" type="line"/>
      <point x="1397" y="1238" type="line"/>
      <point x="714" y="130" type="line"/>
      <point x="622" y="130" type="line"/>
      <point x="306" y="1238" type="line"/>
      <point x="101" y="0" type="line"/>
    </contour>
  </outline>
</glyph>
<glyph name="N" format="2">
  <advance width="1277"/>
  <unicode hex="004E"/>
  <outline>
    <contour>
      <point x="93" y="0" type="line"/>
      <point x="332" y="1440" type="line"/>
      <point x="414" y="1440" type="line"/>
      <point x="1059" y="150" type="line"/>
      <point x="1273" y="1440" type="line"/>
      <point x="1355" y="1440" type="line"/>
      <point x="1117" y="0" type="line"/>
      <point x="1034" y="0" type="line"/>
      <point x="390" y="1292" type="line"/>
      <point x="176" y="0" type="line"/>
    </contour>
  </outline>
</glyph>
<glyph name="P" format="2">
  <advance width="1124"/>
  <unicode hex="0050"/>
  <outline>
    <contour>
      <point x="18" y="0" type="line"/>
      <point x="257" y="1440" type="line"/>
      <point x="776" y="1440" type="line" smooth="yes"/>
      <point x="797" y="1440"/>
      <point x="839" y="1437"/>
      <point x="865" y="1432" type="qcurve"/>
      <point x="915" y="1424"/>
      <point x="998" y="1386"/>
      <point x="1030" y="1357" type="qcurve" smooth="yes"/>
      <point x="1096" y="1297"/>
      <point x="1146" y="1117"/>
      <point x="1128" y="1008" type="qcurve" smooth="yes"/>
      <point x="1119" y="954"/>
      <point x="1082" y="855"/>
      <point x="1055" y="810" type="qcurve" smooth="yes"/>
      <point x="999" y="719"/>
      <point x="830" y="600"/>
      <point x="725" y="584" type="qcurve" smooth="yes"/>
      <point x="711" y="582"/>
      <point x="687" y="579"/>
      <point x="676" y="578" type="qcurve" smooth="yes"/>
      <point x="665" y="577"/>
      <point x="644" y="576"/>
      <point x="633" y="576" type="qcurve" smooth="yes"/>
      <point x="196" y="576" type="line"/>
      <point x="101" y="0" type="line"/>
    </contour>
    <contour>
      <point x="210" y="660" type="line"/>
      <point x="647" y="660" type="line" smooth="yes"/>
      <point x="664" y="660"/>
      <point x="710" y="664"/>
      <point x="735" y="668" type="qcurve"/>
      <point x="777" y="676"/>
      <point x="850" y="709"/>
      <point x="883" y="734" type="qcurve" smooth="yes"/>
      <point x="947" y="785"/>
      <point x="1026" y="927"/>
      <point x="1040" y="1008" type="qcurve" smooth="yes"/>
      <point x="1047" y="1049"/>
      <point x="1045" y="1125"/>
      <point x="1037" y="1161" type="qcurve" smooth="yes"/>
      <point x="1021" y="1233"/>
      <point x="927" y="1332"/>
      <point x="847" y="1348" type="qcurve" smooth="yes"/>
      <point x="824" y="1353"/>
      <point x="779" y="1356"/>
      <point x="762" y="1356" type="qcurve" smooth="yes"/>
      <point x="325" y="1356" type="line"/>
    </contour>
  </outline>
</glyph>
<glyph name="Q" format="2">
  <advance width="1375"/>
  <unicode hex="0051"/>
  <outline>
    <contour>
      <point x="1046" y="180" type="line"/>
      <point x="1087" y="75"/>
      <point x="1156" y="26"/>
      <point x="1268" y="18" type="curve"/>
      <point x="1239" y="-70" type="line"/>
      <point x="1115" y="-54"/>
      <point x="1018" y="-2"/>
      <point x="972" y="121" type="curve"/>
    </contour>
    <contour>
      <point x="633" y="-30" type="curve" smooth="yes"/>
      <point x="239" y="-30"/>
      <point x="62" y="240"/>
      <point x="62" y="608" type="curve" smooth="yes"/>
      <point x="62" y="1049"/>
      <point x="273" y="1470"/>
      <point x="767" y="1470" type="curve" smooth="yes"/>
      <point x="1161" y="1470"/>
      <point x="1338" y="1202"/>
      <point x="1338" y="832" type="curve" smooth="yes"/>
      <point x="1338" y="392"/>
      <point x="1125" y="-30"/>
    </contour>
    <contour>
      <point x="641" y="54" type="curve" smooth="yes"/>
      <point x="1074" y="54"/>
      <point x="1249" y="441"/>
      <point x="1249" y="820" type="curve" smooth="yes"/>
      <point x="1249" y="1141"/>
      <point x="1106" y="1386"/>
      <point x="758" y="1386" type="curve" smooth="yes"/>
      <point x="324" y="1386"/>
      <point x="150" y="991"/>
      <point x="150" y="612" type="curve" smooth="yes"/>
      <point x="150" y="295"/>
      <point x="300" y="54"/>
    </contour>
  </outline>
</glyph>
<glyph name="R" format="2">
  <advance width="1173"/>
  <unicode hex="0052"/>
  <outline>
    <contour>
      <point x="887" y="0" type="line"/>
      <point x="651" y="682" type="line"/>
      <point x="747" y="682" type="line"/>
      <point x="985" y="0" type="line"/>
    </contour>
    <contour>
      <point x="23" y="0" type="line"/>
      <point x="251" y="1440" type="line"/>
      <point x="771" y="1440" type="line" smooth="yes"/>
      <point x="848" y="1440"/>
      <point x="981" y="1397"/>
      <point x="1079" y="1313"/>
      <point x="1136" y="1189"/>
      <point x="1136" y="1108" type="qcurve" smooth="yes"/>
      <point x="1136" y="1032"/>
      <point x="1091" y="897"/>
      <point x="1050" y="840" type="qcurve" smooth="yes"/>
      <point x="1016" y="793"/>
      <point x="927" y="718"/>
      <point x="823" y="665"/>
      <point x="705" y="636"/>
      <point x="643" y="636" type="qcurve" smooth="yes"/>
      <point x="621" y="636"/>
      <point x="578" y="636"/>
      <point x="556" y="636" type="qcurve" smooth="yes"/>
      <point x="206" y="636" type="line"/>
      <point x="106" y="0" type="line"/>
    </contour>
    <contour>
      <point x="220" y="720" type="line"/>
      <point x="657" y="720" type="line" smooth="yes"/>
      <point x="679" y="720"/>
      <point x="723" y="724"/>
      <point x="744" y="728" type="qcurve" smooth="yes"/>
      <point x="761" y="731"/>
      <point x="791" y="740"/>
      <point x="806" y="745" type="qcurve"/>
      <point x="859" y="765"/>
      <point x="947" y="835"/>
      <point x="1010" y="927"/>
      <point x="1046" y="1035"/>
      <point x="1046" y="1092" type="qcurve" smooth="yes"/>
      <point x="1046" y="1158"/>
      <point x="1003" y="1257"/>
      <point x="926" y="1323"/>
      <point x="820" y="1356"/>
      <point x="757" y="1356" type="qcurve" smooth="yes"/>
      <point x="320" y="1356" type="line"/>
    </contour>
  </outline>
</glyph>
<glyph name="S" format="2">
  <advance width="1146"/>
  <unicode hex="0053"/>
  <outline>
    <contour>
      <point x="502" y="-30" type="curve" smooth="yes"/>
      <point x="258" y="-30"/>
      <point x="31" y="90"/>
      <point x="20" y="358" type="curve"/>
      <point x="105" y="374" type="line"/>
      <point x="126" y="151"/>
      <point x="310" y="54"/>
      <point x="516" y="54" type="curve" smooth="yes"/>
      <point x="742" y="54"/>
      <point x="984" y="176"/>
      <point x="984" y="431" type="curve" smooth="yes"/>
      <point x="984" y="788"/>
      <point x="192" y="619"/>
      <point x="192" y="1037" type="curve" smooth="yes"/>
      <point x="192" y="1315"/>
      <point x="470" y="1470"/>
      <point x="719" y="1470" type="curve" smooth="yes"/>
      <point x="983" y="1470"/>
      <point x="1165" y="1324"/>
      <point x="1165" y="1050" type="curve"/>
      <point x="1080" y="1034" type="line"/>
      <point x="1080" y="1264"/>
      <point x="928" y="1386"/>
      <point x="706" y="1386" type="curve" smooth="yes"/>
      <point x="513" y="1386"/>
      <point x="281" y="1270"/>
      <point x="281" y="1050" type="curve" smooth="yes"/>
      <point x="281" y="716"/>
      <point x="1066" y="865"/>
      <point x="1066" y="450" type="curve" smooth="yes"/>
      <point x="1066" y="134"/>
      <point x="789" y="-30"/>
    </contour>
  </outline>
</glyph>
<glyph name="T" format="2">
  <advance width="1153"/>
  <unicode hex="0054"/>
  <outline>
    <contour>
      <point x="427" y="0" type="line"/>
      <point x="651" y="1356" type="line"/>
      <point x="134" y="1356" type="line"/>
      <point x="148" y="1440" type="line"/>
      <point x="1265" y="1440" type="line"/>
      <point x="1251" y="1356" type="line"/>
      <point x="733" y="1356" type="line"/>
      <point x="509" y="0" type="line"/>
    </contour>
  </outline>
</glyph>
<glyph name="V" format="2">
  <advance width="1132"/>
  <unicode hex="0056"/>
  <outline>
    <contour>
      <point x="422" y="0" type="line"/>
      <point x="137" y="1440" type="line"/>
      <point x="225" y="1440" type="line"/>
      <point x="485" y="122" type="line"/>
      <point x="1164" y="1440" type="line"/>
      <point x="1252" y="1440" type="line"/>
      <point x="511" y="0" type="line"/>
    </contour>
  </outline>
</glyph>
<glyph name="W" format="2">
  <advance width="1776"/>
  <unicode hex="0057"/>
  <outline>
    <contour>
      <point x="331" y="0" type="line"/>
      <point x="166" y="1440" type="line"/>
      <point x="250" y="1440" type="line"/>
      <point x="399" y="152" type="line"/>
      <point x="973" y="1440" type="line"/>
      <point x="1060" y="1440" type="line"/>
      <point x="1209" y="152" type="line"/>
      <point x="1783" y="1440" type="line"/>
      <point x="1869" y="1440" type="line"/>
      <point x="1227" y="0" type="line"/>
      <point x="1141" y="0" type="line"/>
      <point x="991" y="1286" type="line"/>
      <point x="417" y="0" type="line"/>
    </contour>
  </outline>
</glyph>
<glyph name="X" format="2">
  <advance width="1120"/>
  <unicode hex="0058"/>
  <outline>
    <contour>
      <point x="-76" y="0" type="line"/>
      <point x="541" y="730" type="line"/>
      <point x="174" y="1440" type="line"/>
      <point x="272" y="1440" type="line"/>
      <point x="597" y="798" type="line"/>
      <point x="1137" y="1440" type="line"/>
      <point x="1235" y="1440" type="line"/>
      <point x="633" y="730" type="line"/>
      <point x="1008" y="0" type="line"/>
      <point x="910" y="0" type="line"/>
      <point x="574" y="660" type="line"/>
      <point x="22" y="0" type="line"/>
    </contour>
  </outline>
</glyph>
<glyph name="Y" format="2">
  <advance width="1017"/>
  <unicode hex="0059"/>
  <outline>
    <contour>
      <point x="374" y="0" type="line"/>
      <point x="476" y="612" type="line"/>
      <point x="144" y="1440" type="line"/>
      <point x="238" y="1440" type="line"/>
      <point x="533" y="708" type="line"/>
      <point x="1068" y="1440" type="line"/>
      <point x="1162" y="1440" type="line"/>
      <point x="558" y="612" type="line"/>
      <point x="457" y="0" type="line"/>
    </contour>
  </outline>
</glyph>
<glyph name="Z" format="2">
  <advance width="1124"/>
  <unicode hex="005A"/>
  <outline>
    <contour>
      <point x="22" y="0" type="line"/>
      <point x="27" y="30" type="line"/>
      <point x="1068" y="1356" type="line"/>
      <point x="246" y="1356" type="line"/>
      <point x="260" y="1440" type="line"/>
      <point x="1203" y="1440" type="line"/>
      <point x="1198" y="1406" type="line"/>
      <point x="161" y="82" type="line"/>
      <point x="978" y="82" type="line"/>
      <point x="965" y="0" type="line"/>
    </contour>
  </outline>
</glyph>
<glyph name="bracketleft" format="2">
  <advance width="743"/>
  <unicode hex="005B"/>
  <outline>
    <contour>
      <point x="112" y="-444" type="line"/>
      <point x="478" y="1764" type="line"/>
      <point x="803" y="1764" type="line"/>
      <point x="789" y="1680" type="line"/>
      <point x="546" y="1680" type="line"/>
      <point x="209" y="-360" type="line"/>
      <point x="452" y="-360" type="line"/>
      <point x="438" y="-444" type="line"/>
    </contour>
  </outline>
</glyph>
<glyph name="backslash" format="2">
  <advance width="682"/>
  <unicode hex="005C"/>
  <outline>
    <contour>
      <point x="402" y="1440" type="line"/>
      <point x="540" y="0" type="line"/>
      <point x="452" y="0" type="line"/>
      <point x="314" y="1440" type="line"/>
    </contour>
  </outline>
</glyph>
<glyph name="bracketright" format="2">
  <advance width="743"/>
  <unicode hex="005D"/>
  <outline>
    <contour>
      <point x="307" y="-444" type="line"/>
      <point x="672" y="1764" type="line"/>
      <point x="347" y="1764" type="line"/>
      <point x="333" y="1680" type="line"/>
      <point x="576" y="1680" type="line"/>
      <point x="238" y="-360" type="line"/>
      <point x="-5" y="-360" type="line"/>
      <point x="-19" y="-444" type="line"/>
    </contour>
  </outline>
</glyph>
<glyph name="asciicircum" format="2">
  <advance width="1269"/>
  <unicode hex="005E"/>
  <outline>
    <contour>
      <point x="265" y="1010" type="line"/>
      <point x="793" y="1472" type="line"/>
      <point x="1171" y="1011" type="line"/>
      <point x="1109" y="955" type="line"/>
      <point x="775" y="1362" type="line"/>
      <point x="309" y="954" type="line"/>
    </contour>
  </outline>
</glyph>
<glyph name="grave" format="2">
  <advance width="843"/>
  <unicode hex="0060"/>
  <outline>
    <contour>
      <point x="621" y="1890" type="line"/>
      <point x="641" y="1620" type="line"/>
      <point x="576" y="1620" type="line"/>
      <point x="527" y="1890" type="line"/>
    </contour>
  </outline>
</glyph>
<glyph name="a" format="2">
  <advance width="1131"/>
  <unicode hex="0061"/>
  <outline>
    <contour>
      <point x="1114" y="1080" type="line"/>
      <point x="1035" y="1080" type="line"/>
      <point x="1001" y="877" type="line"/>
      <point x="991" y="907"/>
      <point x="979" y="934"/>
      <point x="964" y="958" type="curve" smooth="yes"/>
      <point x="901" y="1062"/>
      <point x="794" y="1110"/>
      <point x="656" y="1110" type="curve" smooth="yes"/>
      <point x="350" y="1110"/>
      <point x="149" y="875"/>
      <point x="94" y="542" type="curve" smooth="yes"/>
      <point x="38" y="201"/>
      <point x="167" y="-30"/>
      <point x="468" y="-30" type="curve" smooth="yes"/>
      <point x="620" y="-30"/>
      <point x="741" y="29"/>
      <point x="833" y="130" type="curve" smooth="yes"/>
      <point x="854" y="153"/>
      <point x="873" y="177"/>
      <point x="890" y="204" type="curve"/>
      <point x="857" y="0" type="line"/>
      <point x="935" y="0" type="line"/>
    </contour>
    <contour>
      <point x="481" y="54" type="curve" smooth="yes"/>
      <point x="223" y="54"/>
      <point x="130" y="252"/>
      <point x="178" y="542" type="curve" smooth="yes"/>
      <point x="227" y="835"/>
      <point x="386" y="1026"/>
      <point x="642" y="1026" type="curve" smooth="yes"/>
      <point x="903" y="1026"/>
      <point x="993" y="826"/>
      <point x="946" y="542" type="curve" smooth="yes"/>
      <point x="897" y="249"/>
      <point x="735" y="54"/>
    </contour>
  </outline>
</glyph>
<glyph name="b" format="2">
  <advance width="1131"/>
  <unicode hex="0062"/>
  <outline>
    <contour>
      <point x="93" y="0" type="line"/>
      <point x="172" y="0" type="line"/>
      <point x="206" y="203" type="line"/>
      <point x="215" y="176"/>
      <point x="227" y="150"/>
      <point x="241" y="127" type="curve" smooth="yes"/>
      <point x="299" y="27"/>
      <point x="402" y="-30"/>
      <point x="551" y="-30" type="curve" smooth="yes"/>
      <point x="857" y="-30"/>
      <point x="1059" y="205"/>
      <point x="1114" y="538" type="curve" smooth="yes"/>
      <point x="1170" y="879"/>
      <point x="1041" y="1110"/>
      <point x="740" y="1110" type="curve" smooth="yes"/>
      <point x="588" y="1110"/>
      <point x="466" y="1051"/>
      <point x="374" y="950" type="curve" smooth="yes"/>
      <point x="353" y="927"/>
      <point x="334" y="903"/>
      <point x="317" y="876" type="curve"/>
      <point x="411" y="1440" type="line"/>
      <point x="332" y="1440" type="line"/>
    </contour>
    <contour>
      <point x="726" y="1026" type="curve" smooth="yes"/>
      <point x="984" y="1026"/>
      <point x="1077" y="828"/>
      <point x="1029" y="538" type="curve" smooth="yes"/>
      <point x="980" y="245"/>
      <point x="821" y="54"/>
      <point x="565" y="54" type="curve" smooth="yes"/>
      <point x="304" y="54"/>
      <point x="214" y="254"/>
      <point x="261" y="538" type="curve" smooth="yes"/>
      <point x="310" y="831"/>
      <point x="472" y="1026"/>
    </contour>
  </outline>
</glyph>
<glyph name="d" format="2">
  <advance width="1131"/>
  <unicode hex="0064"/>
  <outline>
    <contour>
      <point x="1094" y="1440" type="line"/>
      <point x="1001" y="876" type="line"/>
      <point x="993" y="903"/>
      <point x="982" y="927"/>
      <point x="969" y="950" type="curve" smooth="yes"/>
      <point x="911" y="1051"/>
      <point x="808" y="1110"/>
      <point x="656" y="1110" type="curve" smooth="yes"/>
      <point x="355" y="1110"/>
      <point x="149" y="879"/>
      <point x="93" y="538" type="curve" smooth="yes"/>
      <point x="38" y="205"/>
      <point x="162" y="-30"/>
      <point x="468" y="-30" type="curve" smooth="yes"/>
      <point x="617" y="-30"/>
      <point x="739" y="27"/>
      <point x="831" y="127" type="curve" smooth="yes"/>
      <point x="853" y="150"/>
      <point x="872" y="176"/>
      <point x="890" y="203" type="curve"/>
      <point x="856" y="0" type="line"/>
      <point x="935" y="0" type="line"/>
      <point x="1173" y="1440" type="line"/>
    </contour>
    <contour>
      <point x="642" y="1026" type="curve" smooth="yes"/>
      <point x="896" y="1026"/>
      <point x="994" y="831"/>
      <point x="945" y="538" type="curve" smooth="yes"/>
      <point x="898" y="254"/>
      <point x="742" y="54"/>
      <point x="481" y="54" type="curve" smooth="yes"/>
      <point x="225" y="54"/>
      <point x="128" y="245"/>
      <point x="177" y="538" type="curve" smooth="yes"/>
      <point x="225" y="828"/>
      <point x="384" y="1026"/>
    </contour>
  </outline>
</glyph>
<glyph name="e" format="2">
  <advance width="1091"/>
  <unicode hex="0065"/>
  <outline>
    <contour>
      <point x="508" y="-30" type="qcurve" smooth="yes"/>
      <point x="434" y="-30"/>
      <point x="314" y="4"/>
      <point x="267" y="39" type="qcurve" smooth="yes"/>
      <point x="219" y="74"/>
      <point x="154" y="172"/>
      <point x="135" y="236" type="qcurve" smooth="yes"/>
      <point x="117" y="300"/>
      <point x="114" y="452"/>
      <point x="128" y="540" type="qcurve" smooth="yes"/>
      <point x="143" y="629"/>
      <point x="197" y="781"/>
      <point x="236" y="845" type="qcurve" smooth="yes"/>
      <point x="315" y="974"/>
      <point x="548" y="1110"/>
      <point x="696" y="1110" type="qcurve" smooth="yes"/>
      <point x="771" y="1110"/>
      <point x="892" y="1075"/>
      <point x="939" y="1040" type="qcurve" smooth="yes"/>
      <point x="1034" y="970"/>
      <point x="1101" y="705"/>
      <point x="1070" y="516" type="qcurve"/>
      <point x="984" y="516" type="line"/>
      <point x="989" y="544" type="line"/>
      <point x="1005" y="661"/>
      <point x="983" y="839"/>
      <point x="943" y="902" type="qcurve" smooth="yes"/>
      <point x="904" y="965"/>
      <point x="774" y="1026"/>
      <point x="683" y="1026" type="qcurve" smooth="yes"/>
      <point x="590" y="1026"/>
      <point x="438" y="963"/>
      <point x="375" y="899" type="qcurve" smooth="yes"/>
      <point x="313" y="835"/>
      <point x="233" y="656"/>
      <point x="214" y="540" type="qcurve" smooth="yes"/>
      <point x="195" y="424"/>
      <point x="215" y="246"/>
      <point x="257" y="182" type="qcurve" smooth="yes"/>
      <point x="298" y="118"/>
      <point x="428" y="54"/>
      <point x="522" y="54" type="qcurve" smooth="yes"/>
      <point x="652" y="54"/>
      <point x="865" y="180"/>
      <point x="942" y="298" type="qcurve"/>
      <point x="1002" y="258" type="line"/>
      <point x="959" y="189"/>
      <point x="853" y="83"/>
      <point x="788" y="45" type="qcurve" smooth="yes"/>
      <point x="723" y="7"/>
      <point x="584" y="-30"/>
    </contour>
    <contour>
      <point x="176" y="516" type="line"/>
      <point x="190" y="600" type="line"/>
      <point x="1034" y="600" type="line"/>
      <point x="1020" y="516" type="line"/>
    </contour>
  </outline>
</glyph>
<glyph name="f" format="2">
  <advance width="646"/>
  <unicode hex="0066"/>
  <outline>
    <contour>
      <point x="149" y="0" type="line"/>
      <point x="348" y="1202" type="line" smooth="yes"/>
      <point x="359" y="1269"/>
      <point x="405" y="1369"/>
      <point x="478" y="1436"/>
      <point x="579" y="1470"/>
      <point x="643" y="1470" type="qcurve" smooth="yes"/>
      <point x="777" y="1470" type="line"/>
      <point x="765" y="1394" type="line"/>
      <point x="654" y="1394" type="line" smooth="yes"/>
      <point x="611" y="1394"/>
      <point x="537" y="1380"/>
      <point x="479" y="1337"/>
      <point x="437" y="1259"/>
      <point x="426" y="1194" type="qcurve" smooth="yes"/>
      <point x="229" y="0" type="line"/>
    </contour>
    <contour>
      <point x="125" y="996" type="line"/>
      <point x="139" y="1080" type="line"/>
      <point x="713" y="1080" type="line"/>
      <point x="699" y="996" type="line"/>
    </contour>
  </outline>
</glyph>
<glyph name="g" format="2">
  <advance width="1131"/>
  <unicode hex="0067"/>
  <outline>
    <contour>
      <point x="1074" y="1080" type="line"/>
      <point x="995" y="1080" type="line"/>
      <point x="961" y="877" type="line"/>
      <point x="915" y="1017"/>
      <point x="805" y="1110"/>
      <point x="616" y="1110" type="curve" smooth="yes"/>
      <point x="305" y="1110"/>
      <point x="107" y="865"/>
      <point x="56" y="558" type="curve" smooth="yes"/>
      <point x="5" y="251"/>
      <point x="125" y="10"/>
      <point x="434" y="10" type="curve" smooth="yes"/>
      <point x="623" y="10"/>
      <point x="764" y="102"/>
      <point x="856" y="241" type="curve"/>
      <point x="826" y="60" type="line" smooth="yes"/>
      <point x="783" y="-202"/>
      <point x="639" y="-426"/>
      <point x="362" y="-426" type="curve" smooth="yes"/>
      <point x="213" y="-426"/>
      <point x="103" y="-354"/>
      <point x="63" y="-210" type="curve"/>
      <point x="-21" y="-246" type="line"/>
      <point x="36" y="-418"/>
      <point x="163" y="-510"/>
      <point x="348" y="-510" type="curve" smooth="yes"/>
      <point x="672" y="-510"/>
      <point x="853" y="-252"/>
      <point x="905" y="60" type="curve" smooth="yes"/>
    </contour>
    <contour>
      <point x="448" y="94" type="curve" smooth="yes"/>
      <point x="182" y="94"/>
      <point x="98" y="300"/>
      <point x="141" y="558" type="curve" smooth="yes"/>
      <point x="183" y="814"/>
      <point x="337" y="1026"/>
      <point x="602" y="1026" type="curve" smooth="yes"/>
      <point x="866" y="1026"/>
      <point x="950" y="813"/>
      <point x="908" y="558" type="curve" smooth="yes"/>
      <point x="866" y="303"/>
      <point x="710" y="94"/>
    </contour>
  </outline>
</glyph>
<glyph name="h" format="2">
  <advance width="1068"/>
  <unicode hex="0068"/>
  <outline>
    <contour>
      <point x="784" y="0" type="line"/>
      <point x="875" y="572" type="line" smooth="yes"/>
      <point x="880" y="607"/>
      <point x="887" y="678"/>
      <point x="887" y="713" type="qcurve" smooth="yes"/>
      <point x="887" y="782"/>
      <point x="856" y="896"/>
      <point x="789" y="977"/>
      <point x="684" y="1022"/>
      <point x="610" y="1022" type="qcurve" smooth="yes"/>
      <point x="515" y="1022"/>
      <point x="372" y="951"/>
      <point x="270" y="831"/>
      <point x="209" y="675"/>
      <point x="196" y="590" type="qcurve"/>
      <point x="122" y="588" type="line"/>
      <point x="137" y="690"/>
      <point x="213" y="877"/>
      <point x="336" y="1020"/>
      <point x="510" y="1104"/>
      <point x="623" y="1104" type="qcurve" smooth="yes"/>
      <point x="711" y="1104"/>
      <point x="841" y="1047"/>
      <point x="926" y="945"/>
      <point x="968" y="805"/>
      <point x="968" y="722" type="qcurve" smooth="yes"/>
      <point x="968" y="688"/>
      <point x="961" y="621"/>
      <point x="956" y="588" type="qcurve" smooth="yes"/>
      <point x="863" y="0" type="line"/>
    </contour>
    <contour>
      <point x="23" y="0" type="line"/>
      <point x="251" y="1440" type="line"/>
      <point x="325" y="1440" type="line"/>
      <point x="190" y="590" type="line"/>
      <point x="196" y="590" type="line"/>
      <point x="102" y="0" type="line"/>
    </contour>
  </outline>
</glyph>
<glyph name="j" format="2">
  <advance width="425"/>
  <unicode hex="006A"/>
  <outline>
    <contour>
      <point x="-167" y="-480" type="line"/>
      <point x="-152" y="-394" type="line"/>
      <point x="-87" y="-394" type="line" smooth="yes"/>
      <point x="-56" y="-394"/>
      <point x="-1" y="-376"/>
      <point x="25" y="-359" type="qcurve"/>
      <point x="50" y="-341"/>
      <point x="84" y="-277"/>
      <point x="91" y="-230" type="qcurve"/>
      <point x="308" y="1080" type="line"/>
      <point x="388" y="1080" type="line"/>
      <point x="173" y="-220" type="line" smooth="yes"/>
      <point x="162" y="-289"/>
      <point x="118" y="-388"/>
      <point x="86" y="-419" type="qcurve" smooth="yes"/>
      <point x="53" y="-450"/>
      <point x="-40" y="-480"/>
      <point x="-104" y="-480" type="qcurve" smooth="yes"/>
    </contour>
    <contour>
      <point x="385" y="1303" type="qcurve" smooth="yes"/>
      <point x="370" y="1303"/>
      <point x="348" y="1313"/>
      <point x="339" y="1324" type="qcurve" smooth="yes"/>
      <point x="330" y="1335"/>
      <point x="324" y="1360"/>
      <point x="327" y="1376" type="qcurve" smooth="yes"/>
      <point x="330" y="1392"/>
      <point x="344" y="1418"/>
      <point x="357" y="1429" type="qcurve"/>
      <point x="369" y="1440"/>
      <point x="394" y="1450"/>
      <point x="409" y="1450" type="qcurve" smooth="yes"/>
      <point x="424" y="1450"/>
      <point x="448" y="1440"/>
      <point x="456" y="1429" type="qcurve"/>
      <point x="465" y="1418"/>
      <point x="470" y="1392"/>
      <point x="467" y="1376" type="qcurve" smooth="yes"/>
      <point x="464" y="1360"/>
      <point x="451" y="1335"/>
      <point x="439" y="1324" type="qcurve" smooth="yes"/>
      <point x="427" y="1313"/>
      <point x="400" y="1303"/>
    </contour>
  </outline>
</glyph>
<glyph name="k" format="2">
  <advance width="889"/>
  <unicode hex="006B"/>
  <outline>
    <contour>
      <point x="93" y="0" type="line"/>
      <point x="332" y="1440" type="line"/>
      <point x="412" y="1440" type="line"/>
      <point x="173" y="0" type="line"/>
    </contour>
    <contour>
      <point x="880" y="1080" type="line"/>
      <point x="991" y="1080" type="line"/>
      <point x="197" y="421" type="line"/>
      <point x="215" y="528" type="line"/>
    </contour>
    <contour>
      <point x="339" y="591" type="line"/>
      <point x="416" y="646" type="line"/>
      <point x="834" y="0" type="line"/>
      <point x="721" y="0" type="line"/>
    </contour>
  </outline>
</glyph>
<glyph name="l" format="2">
  <advance width="472"/>
  <unicode hex="006C"/>
  <outline>
    <contour>
      <point x="407" y="84" type="qcurve"/>
      <point x="393" y="0" type="line"/>
      <point x="342" y="0" type="line" smooth="yes"/>
      <point x="289" y="0"/>
      <point x="209" y="34"/>
      <point x="185" y="65" type="qcurve" smooth="yes"/>
      <point x="160" y="96"/>
      <point x="142" y="186"/>
      <point x="151" y="241" type="qcurve" smooth="yes"/>
      <point x="155" y="263"/>
      <point x="162" y="305"/>
      <point x="166" y="327" type="qcurve" smooth="yes"/>
      <point x="350" y="1440" type="line"/>
      <point x="430" y="1440" type="line"/>
      <point x="267" y="455" type="line" smooth="yes"/>
      <point x="260" y="410"/>
      <point x="245" y="321"/>
      <point x="237" y="276" type="qcurve" smooth="yes"/>
      <point x="230" y="231"/>
      <point x="231" y="166"/>
      <point x="241" y="145" type="qcurve" smooth="yes"/>
      <point x="251" y="123"/>
      <point x="287" y="97"/>
      <point x="315" y="91" type="qcurve" smooth="yes"/>
      <point x="334" y="87"/>
      <point x="379" y="84"/>
    </contour>
  </outline>
</glyph>
<glyph name="m" format="2">
  <advance width="1547"/>
  <unicode hex="006D"/>
  <outline>
    <contour>
      <point x="1323" y="0" type="line"/>
      <point x="1448" y="744" type="line" smooth="yes"/>
      <point x="1452" y="766"/>
      <point x="1454" y="789"/>
      <point x="1454" y="811" type="curve" smooth="yes"/>
      <point x="1454" y="944"/>
      <point x="1367" y="1034"/>
      <point x="1233" y="1034" type="curve" smooth="yes"/>
      <point x="1045" y="1034"/>
      <point x="937" y="889"/>
      <point x="908" y="718" type="curve"/>
      <point x="837" y="718" type="line"/>
      <point x="866" y="934"/>
      <point x="1024" y="1110"/>
      <point x="1251" y="1110" type="curve" smooth="yes"/>
      <point x="1419" y="1110"/>
      <point x="1535" y="1006"/>
      <point x="1535" y="834" type="curve" smooth="yes"/>
      <point x="1535" y="806"/>
      <point x="1533" y="778"/>
      <point x="1528" y="750" type="curve" smooth="yes"/>
      <point x="1402" y="0" type="line"/>
    </contour>
    <contour>
      <point x="93" y="0" type="line"/>
      <point x="272" y="1080" type="line"/>
      <point x="346" y="1080" type="line"/>
      <point x="310" y="860" type="line"/>
      <point x="316" y="860" type="line"/>
      <point x="173" y="0" type="line"/>
    </contour>
    <contour>
      <point x="709" y="0" type="line"/>
      <point x="832" y="730" type="line" smooth="yes"/>
      <point x="836" y="754"/>
      <point x="839" y="778"/>
      <point x="839" y="802" type="curve" smooth="yes"/>
      <point x="839" y="940"/>
      <point x="756" y="1034"/>
      <point x="615" y="1034" type="curve" smooth="yes"/>
      <point x="432" y="1034"/>
      <point x="320" y="885"/>
      <point x="292" y="718" type="curve"/>
      <point x="227" y="750" type="line"/>
      <point x="262" y="954"/>
      <point x="426" y="1110"/>
      <point x="637" y="1110" type="curve" smooth="yes"/>
      <point x="807" y="1110"/>
      <point x="920" y="1007"/>
      <point x="920" y="834" type="curve" smooth="yes"/>
      <point x="920" y="804"/>
      <point x="917" y="774"/>
      <point x="912" y="744" type="curve" smooth="yes"/>
      <point x="787" y="0" type="line"/>
    </contour>
  </outline>
</glyph>
<glyph name="n" format="2">
  <advance width="1068"/>
  <unicode hex="006E"/>
  <outline>
    <contour>
      <point x="784" y="0" type="line"/>
      <point x="875" y="572" type="line" smooth="yes"/>
      <point x="880" y="607"/>
      <point x="887" y="678"/>
      <point x="887" y="713" type="qcurve" smooth="yes"/>
      <point x="887" y="782"/>
      <point x="856" y="896"/>
      <point x="789" y="977"/>
      <point x="684" y="1022"/>
      <point x="610" y="1022" type="qcurve" smooth="yes"/>
      <point x="515" y="1022"/>
      <point x="372" y="951"/>
      <point x="270" y="831"/>
      <point x="209" y="675"/>
      <point x="196" y="590" type="qcurve"/>
      <point x="122" y="588" type="line"/>
      <point x="137" y="690"/>
      <point x="213" y="877"/>
      <point x="336" y="1019"/>
      <point x="509" y="1104"/>
      <point x="623" y="1104" type="qcurve" smooth="yes"/>
      <point x="711" y="1104"/>
      <point x="841" y="1047"/>
      <point x="926" y="945"/>
      <point x="968" y="805"/>
      <point x="968" y="722" type="qcurve" smooth="yes"/>
      <point x="968" y="688"/>
      <point x="961" y="621"/>
      <point x="956" y="588" type="qcurve" smooth="yes"/>
      <point x="863" y="0" type="line"/>
    </contour>
    <contour>
      <point x="23" y="0" type="line"/>
      <point x="194" y="1080" type="line"/>
      <point x="268" y="1080" type="line"/>
      <point x="233" y="860" type="line"/>
      <point x="238" y="860" type="line"/>
      <point x="102" y="0" type="line"/>
    </contour>
  </outline>
</glyph>
<glyph name="o" format="2">
  <advance width="1092"/>
  <unicode hex="006F"/>
  <outline>
    <contour>
      <point x="432" y="-30" type="curve" smooth="yes"/>
      <point x="168" y="-30"/>
      <point x="41" y="144"/>
      <point x="41" y="395" type="curve" smooth="yes"/>
      <point x="41" y="742"/>
      <point x="234" y="1110"/>
      <point x="621" y="1110" type="curve" smooth="yes"/>
      <point x="885" y="1110"/>
      <point x="1013" y="942"/>
      <point x="1013" y="689" type="curve" smooth="yes"/>
      <point x="1013" y="343"/>
      <point x="819" y="-30"/>
    </contour>
    <contour>
      <point x="446" y="54" type="curve" smooth="yes"/>
      <point x="781" y="54"/>
      <point x="927" y="388"/>
      <point x="927" y="680" type="curve" smooth="yes"/>
      <point x="927" y="893"/>
      <point x="829" y="1026"/>
      <point x="607" y="1026" type="curve" smooth="yes"/>
      <point x="274" y="1026"/>
      <point x="127" y="697"/>
      <point x="127" y="407" type="curve" smooth="yes"/>
      <point x="127" y="197"/>
      <point x="225" y="54"/>
    </contour>
  </outline>
</glyph>
<glyph name="p" format="2">
  <advance width="1131"/>
  <unicode hex="0070"/>
  <outline>
    <contour>
      <point x="33" y="-480" type="line"/>
      <point x="146" y="204" type="line"/>
      <point x="154" y="177"/>
      <point x="165" y="153"/>
      <point x="178" y="130" type="curve" smooth="yes"/>
      <point x="236" y="29"/>
      <point x="339" y="-30"/>
      <point x="491" y="-30" type="curve" smooth="yes"/>
      <point x="792" y="-30"/>
      <point x="998" y="201"/>
      <point x="1054" y="542" type="curve" smooth="yes"/>
      <point x="1109" y="875"/>
      <point x="986" y="1110"/>
      <point x="680" y="1110" type="curve" smooth="yes"/>
      <point x="531" y="1110"/>
      <point x="409" y="1053"/>
      <point x="318" y="954" type="curve" smooth="yes"/>
      <point x="296" y="930"/>
      <point x="276" y="904"/>
      <point x="258" y="877" type="curve"/>
      <point x="291" y="1080" type="line"/>
      <point x="212" y="1080" type="line"/>
      <point x="-46" y="-480" type="line"/>
    </contour>
    <contour>
      <point x="505" y="54" type="curve" smooth="yes"/>
      <point x="251" y="54"/>
      <point x="153" y="249"/>
      <point x="202" y="542" type="curve" smooth="yes"/>
      <point x="249" y="826"/>
      <point x="405" y="1026"/>
      <point x="666" y="1026" type="curve" smooth="yes"/>
      <point x="922" y="1026"/>
      <point x="1019" y="835"/>
      <point x="970" y="542" type="curve" smooth="yes"/>
      <point x="922" y="252"/>
      <point x="763" y="54"/>
    </contour>
  </outline>
</glyph>
<glyph name="q" format="2">
  <advance width="1131"/>
  <unicode hex="0071"/>
  <outline>
    <contour>
      <point x="1089" y="1080" type="line"/>
      <point x="1010" y="1080" type="line"/>
      <point x="976" y="877" type="line"/>
      <point x="966" y="907"/>
      <point x="954" y="934"/>
      <point x="939" y="958" type="curve" smooth="yes"/>
      <point x="876" y="1062"/>
      <point x="769" y="1110"/>
      <point x="631" y="1110" type="curve" smooth="yes"/>
      <point x="325" y="1110"/>
      <point x="124" y="875"/>
      <point x="69" y="542" type="curve" smooth="yes"/>
      <point x="13" y="201"/>
      <point x="142" y="-30"/>
      <point x="443" y="-30" type="curve" smooth="yes"/>
      <point x="595" y="-30"/>
      <point x="716" y="29"/>
      <point x="808" y="130" type="curve" smooth="yes"/>
      <point x="829" y="153"/>
      <point x="848" y="177"/>
      <point x="865" y="204" type="curve"/>
      <point x="752" y="-480" type="line"/>
      <point x="830" y="-480" type="line"/>
    </contour>
    <contour>
      <point x="456" y="54" type="curve" smooth="yes"/>
      <point x="198" y="54"/>
      <point x="105" y="252"/>
      <point x="153" y="542" type="curve" smooth="yes"/>
      <point x="202" y="835"/>
      <point x="361" y="1026"/>
      <point x="617" y="1026" type="curve" smooth="yes"/>
      <point x="878" y="1026"/>
      <point x="968" y="826"/>
      <point x="921" y="542" type="curve" smooth="yes"/>
      <point x="872" y="249"/>
      <point x="710" y="54"/>
    </contour>
  </outline>
</glyph>
<glyph name="r" format="2">
  <advance width="632"/>
  <unicode hex="0072"/>
  <outline>
    <contour>
      <point x="93" y="0" type="line"/>
      <point x="272" y="1080" type="line"/>
      <point x="346" y="1080" type="line"/>
      <point x="304" y="822" type="line"/>
      <point x="285" y="856" type="line"/>
      <point x="359" y="995"/>
      <point x="487" y="1100"/>
      <point x="649" y="1100" type="curve" smooth="yes"/>
      <point x="677" y="1100"/>
      <point x="740" y="1085"/>
      <point x="762" y="1066" type="curve"/>
      <point x="719" y="997" type="line"/>
      <point x="698" y="1013"/>
      <point x="666" y="1017"/>
      <point x="639" y="1017" type="curve" smooth="yes"/>
      <point x="373" y="1017"/>
      <point x="296" y="746"/>
      <point x="261" y="532" type="curve" smooth="yes"/>
      <point x="173" y="0" type="line"/>
    </contour>
  </outline>
</glyph>
<glyph name="s" format="2">
  <advance width="977"/>
  <unicode hex="0073"/>
  <outline>
    <contour>
      <point x="409" y="-28" type="curve" smooth="yes"/>
      <point x="225" y="-28"/>
      <point x="28" y="47"/>
      <point x="22" y="260" type="curve"/>
      <point x="107" y="276" type="line"/>
      <point x="123" y="113"/>
      <point x="282" y="56"/>
      <point x="425" y="56" type="curve" smooth="yes"/>
      <point x="589" y="56"/>
      <point x="774" y="137"/>
      <point x="774" y="327" type="curve" smooth="yes"/>
      <point x="774" y="567"/>
      <point x="141" y="486"/>
      <point x="141" y="774" type="curve" smooth="yes"/>
      <point x="141" y="1001"/>
      <point x="380" y="1110"/>
      <point x="576" y="1110" type="curve" smooth="yes"/>
      <point x="771" y="1110"/>
      <point x="951" y="1018"/>
      <point x="942" y="798" type="curve"/>
      <point x="858" y="782" type="line"/>
      <point x="858" y="963"/>
      <point x="706" y="1026"/>
      <point x="548" y="1026" type="curve" smooth="yes"/>
      <point x="413" y="1026"/>
      <point x="227" y="957"/>
      <point x="227" y="796" type="curve" smooth="yes"/>
      <point x="227" y="557"/>
      <point x="860" y="655"/>
      <point x="860" y="339" type="curve" smooth="yes"/>
      <point x="860" y="87"/>
      <point x="632" y="-28"/>
    </contour>
  </outline>
</glyph>
<glyph name="t" format="2">
  <advance width="722"/>
  <unicode hex="0074"/>
  <outline>
    <contour>
      <point x="574" y="0" type="line"/>
      <point x="532" y="-9"/>
      <point x="490" y="-15"/>
      <point x="447" y="-15" type="curve" smooth="yes"/>
      <point x="303" y="-15"/>
      <point x="208" y="49"/>
      <point x="208" y="201" type="curve" smooth="yes"/>
      <point x="208" y="252"/>
      <point x="219" y="307"/>
      <point x="227" y="358" type="curve" smooth="yes"/>
      <point x="396" y="1380" type="line"/>
      <point x="476" y="1380" type="line"/>
      <point x="307" y="358" type="line" smooth="yes"/>
      <point x="299" y="313"/>
      <point x="288" y="263"/>
      <point x="288" y="217" type="curve" smooth="yes"/>
      <point x="288" y="99"/>
      <point x="369" y="68"/>
      <point x="471" y="68" type="curve" smooth="yes"/>
      <point x="510" y="68"/>
      <point x="549" y="73"/>
      <point x="587" y="80" type="curve"/>
    </contour>
    <contour>
      <point x="89" y="996" type="line"/>
      <point x="103" y="1080" type="line"/>
      <point x="753" y="1080" type="line"/>
      <point x="739" y="996" type="line"/>
    </contour>
  </outline>
</glyph>
<glyph name="u" format="2">
  <advance width="1068"/>
  <unicode hex="0075"/>
  <outline>
    <contour>
      <point x="417" y="-24" type="qcurve" smooth="yes"/>
      <point x="329" y="-24"/>
      <point x="199" y="33"/>
      <point x="114" y="135"/>
      <point x="72" y="275"/>
      <point x="72" y="358" type="qcurve" smooth="yes"/>
      <point x="72" y="392"/>
      <point x="79" y="459"/>
      <point x="84" y="492" type="qcurve" smooth="yes"/>
      <point x="177" y="1080" type="line"/>
      <point x="256" y="1080" type="line"/>
      <point x="165" y="508" type="line" smooth="yes"/>
      <point x="160" y="473"/>
      <point x="153" y="403"/>
      <point x="153" y="368" type="qcurve" smooth="yes"/>
      <point x="153" y="298"/>
      <point x="184" y="184"/>
      <point x="250" y="103"/>
      <point x="355" y="58"/>
      <point x="430" y="58" type="qcurve" smooth="yes"/>
      <point x="526" y="58"/>
      <point x="669" y="129"/>
      <point x="769" y="249"/>
      <point x="830" y="405"/>
      <point x="844" y="490" type="qcurve"/>
      <point x="918" y="492" type="line"/>
      <point x="902" y="390"/>
      <point x="827" y="203"/>
      <point x="703" y="61"/>
      <point x="530" y="-24"/>
    </contour>
    <contour>
      <point x="772" y="0" type="line"/>
      <point x="807" y="220" type="line"/>
      <point x="802" y="220" type="line"/>
      <point x="938" y="1080" type="line"/>
      <point x="1017" y="1080" type="line"/>
      <point x="846" y="0" type="line"/>
    </contour>
  </outline>
</glyph>
<glyph name="v" format="2">
  <advance width="913"/>
  <unicode hex="0076"/>
  <outline>
    <contour>
      <point x="379" y="0" type="line"/>
      <point x="181" y="1080" type="line"/>
      <point x="266" y="1080" type="line"/>
      <point x="443" y="122" type="line"/>
      <point x="936" y="1080" type="line"/>
      <point x="1022" y="1080" type="line"/>
      <point x="467" y="0" type="line"/>
    </contour>
  </outline>
</glyph>
<glyph name="w" format="2">
  <advance width="1424"/>
  <unicode hex="0077"/>
  <outline>
    <contour>
      <point x="259" y="0" type="line"/>
      <point x="121" y="1080" type="line"/>
      <point x="206" y="1080" type="line"/>
      <point x="325" y="144" type="line"/>
      <point x="755" y="1080" type="line"/>
      <point x="839" y="1080" type="line"/>
      <point x="959" y="144" type="line"/>
      <point x="1390" y="1080" type="line"/>
      <point x="1473" y="1080" type="line"/>
      <point x="977" y="0" type="line"/>
      <point x="893" y="0" type="line"/>
      <point x="774" y="938" type="line"/>
      <point x="344" y="0" type="line"/>
    </contour>
  </outline>
</glyph>
<glyph name="x" format="2">
  <advance width="975"/>
  <unicode hex="0078"/>
  <outline>
    <contour>
      <point x="-91" y="0" type="line"/>
      <point x="422" y="546" type="line"/>
      <point x="98" y="1080" type="line"/>
      <point x="197" y="1080" type="line"/>
      <point x="480" y="608" type="line"/>
      <point x="917" y="1080" type="line"/>
      <point x="1017" y="1080" type="line"/>
      <point x="516" y="546" type="line"/>
      <point x="848" y="0" type="line"/>
      <point x="746" y="0" type="line"/>
      <point x="460" y="484" type="line"/>
      <point x="11" y="0" type="line"/>
    </contour>
  </outline>
</glyph>
<glyph name="y" format="2">
  <advance width="950"/>
  <unicode hex="0079"/>
  <outline>
    <contour>
      <point x="218" y="1080" type="line"/>
      <point x="302" y="1080" type="line"/>
      <point x="479" y="122" type="line"/>
      <point x="972" y="1080" type="line"/>
      <point x="1059" y="1080" type="line"/>
      <point x="503" y="0" type="line" smooth="yes"/>
      <point x="411" y="-179"/>
      <point x="299" y="-480"/>
      <point x="57" y="-480" type="curve" smooth="yes"/>
      <point x="-1" y="-480" type="line"/>
      <point x="12" y="-404" type="line"/>
      <point x="48" y="-404" type="line" smooth="yes"/>
      <point x="242" y="-404"/>
      <point x="340" y="-143"/>
      <point x="415" y="0" type="curve"/>
    </contour>
  </outline>
</glyph>
<glyph name="z" format="2">
  <advance width="1005"/>
  <unicode hex="007A"/>
  <outline>
    <contour>
      <point x="-73" y="0" type="line"/>
      <point x="-68" y="30" type="line"/>
      <point x="840" y="992" type="line"/>
      <point x="138" y="992" type="line"/>
      <point x="152" y="1080" type="line"/>
      <point x="1003" y="1080" type="line"/>
      <point x="997" y="1046" type="line"/>
      <point x="90" y="88" type="line"/>
      <point x="793" y="88" type="line"/>
      <point x="778" y="0" type="line"/>
    </contour>
  </outline>
</glyph>
<glyph name="braceleft" format="2">
  <advance width="757"/>
  <unicode hex="007B"/>
  <outline>
    <contour>
      <point x="402" y="-444" type="line" smooth="yes"/>
      <point x="359" y="-444"/>
      <point x="292" y="-414"/>
      <point x="267" y="-383" type="qcurve" smooth="yes"/>
      <point x="242" y="-352"/>
      <point x="223" y="-279"/>
      <point x="231" y="-236" type="qcurve"/>
      <point x="344" y="450" type="line" smooth="yes"/>
      <point x="347" y="469"/>
      <point x="342" y="505"/>
      <point x="334" y="522" type="qcurve"/>
      <point x="273" y="636" type="line"/>
      <point x="268" y="647"/>
      <point x="272" y="674"/>
      <point x="281" y="684" type="qcurve" smooth="yes"/>
      <point x="380" y="798" type="line" smooth="yes"/>
      <point x="394" y="815"/>
      <point x="410" y="851"/>
      <point x="414" y="870" type="qcurve"/>
      <point x="527" y="1554" type="line" smooth="yes"/>
      <point x="534" y="1598"/>
      <point x="577" y="1672"/>
      <point x="612" y="1703" type="qcurve" smooth="yes"/>
      <point x="648" y="1734"/>
      <point x="724" y="1764"/>
      <point x="767" y="1764" type="qcurve" smooth="yes"/>
      <point x="873" y="1764" type="line"/>
      <point x="859" y="1680" type="line"/>
      <point x="754" y="1680" type="line" smooth="yes"/>
      <point x="729" y="1680"/>
      <point x="682" y="1662"/>
      <point x="660" y="1644" type="qcurve"/>
      <point x="638" y="1625"/>
      <point x="613" y="1580"/>
      <point x="609" y="1554" type="qcurve" smooth="yes"/>
      <point x="496" y="870" type="line" smooth="yes"/>
      <point x="490" y="836"/>
      <point x="462" y="776"/>
      <point x="439" y="750" type="qcurve" smooth="yes"/>
      <point x="361" y="660" type="line"/>
      <point x="409" y="570" type="line" smooth="yes"/>
      <point x="423" y="544"/>
      <point x="432" y="484"/>
      <point x="426" y="450" type="qcurve" smooth="yes"/>
      <point x="313" y="-236" type="line" smooth="yes"/>
      <point x="309" y="-262"/>
      <point x="319" y="-305"/>
      <point x="335" y="-324" type="qcurve"/>
      <point x="351" y="-342"/>
      <point x="390" y="-360"/>
      <point x="416" y="-360" type="qcurve" smooth="yes"/>
      <point x="522" y="-360" type="line"/>
      <point x="508" y="-444" type="line"/>
    </contour>
  </outline>
</glyph>
<glyph name="bar" format="2">
  <advance width="409"/>
  <unicode hex="007C"/>
  <outline>
    <contour>
      <point x="70" y="0" type="line"/>
      <point x="308" y="1440" type="line"/>
      <point x="391" y="1440" type="line"/>
      <point x="152" y="0" type="line"/>
    </contour>
  </outline>
</glyph>
<glyph name="braceright" format="2">
  <advance width="757"/>
  <unicode hex="007D"/>
  <outline>
    <contour>
      <point x="-86" y="-444" type="line"/>
      <point x="-72" y="-360" type="line"/>
      <point x="34" y="-360" type="line" smooth="yes"/>
      <point x="59" y="-360"/>
      <point x="106" y="-342"/>
      <point x="127" y="-324" type="qcurve" smooth="yes"/>
      <point x="149" y="-305"/>
      <point x="174" y="-262"/>
      <point x="178" y="-236" type="qcurve" smooth="yes"/>
      <point x="292" y="450" type="line" smooth="yes"/>
      <point x="298" y="484"/>
      <point x="326" y="544"/>
      <point x="349" y="570" type="qcurve" smooth="yes"/>
      <point x="426" y="660" type="line"/>
      <point x="379" y="750" type="line" smooth="yes"/>
      <point x="365" y="776"/>
      <point x="356" y="836"/>
      <point x="361" y="870" type="qcurve"/>
      <point x="474" y="1554" type="line" smooth="yes"/>
      <point x="478" y="1580"/>
      <point x="469" y="1625"/>
      <point x="453" y="1644" type="qcurve"/>
      <point x="437" y="1662"/>
      <point x="397" y="1680"/>
      <point x="372" y="1680" type="qcurve" smooth="yes"/>
      <point x="266" y="1680" type="line"/>
      <point x="280" y="1764" type="line"/>
      <point x="386" y="1764" type="line" smooth="yes"/>
      <point x="429" y="1764"/>
      <point x="496" y="1734"/>
      <point x="522" y="1703" type="qcurve" smooth="yes"/>
      <point x="547" y="1672"/>
      <point x="564" y="1598"/>
      <point x="557" y="1554" type="qcurve" smooth="yes"/>
      <point x="444" y="870" type="line" smooth="yes"/>
      <point x="441" y="851"/>
      <point x="445" y="815"/>
      <point x="453" y="798" type="qcurve"/>
      <point x="515" y="684" type="line"/>
      <point x="520" y="674"/>
      <point x="515" y="647"/>
      <point x="507" y="636" type="qcurve"/>
      <point x="408" y="522" type="line" smooth="yes"/>
      <point x="394" y="505"/>
      <point x="377" y="469"/>
      <point x="374" y="450" type="qcurve" smooth="yes"/>
      <point x="260" y="-236" type="line" smooth="yes"/>
      <point x="253" y="-279"/>
      <point x="212" y="-352"/>
      <point x="176" y="-383" type="qcurve" smooth="yes"/>
      <point x="140" y="-414"/>
      <point x="63" y="-444"/>
      <point x="20" y="-444" type="qcurve" smooth="yes"/>
    </contour>
  </outline>
</glyph>
<glyph name="asciitilde" format="2">
  <advance width="1193"/>
  <unicode hex="007E"/>
  <outline>
    <contour>
      <point x="838" y="504" type="qcurve" smooth="yes"/>
      <point x="784" y="504"/>
      <point x="687" y="545"/>
      <point x="643" y="572" type="qcurve"/>
      <point x="620" y="585"/>
      <point x="576" y="608"/>
      <point x="555" y="619" type="qcurve"/>
      <point x="534" y="629"/>
      <point x="492" y="639"/>
      <point x="471" y="639" type="qcurve" smooth="yes"/>
      <point x="441" y="639"/>
      <point x="400" y="618"/>
      <point x="389" y="598" type="qcurve" smooth="yes"/>
      <point x="378" y="577"/>
      <point x="371" y="537"/>
      <point x="376" y="518" type="qcurve"/>
      <point x="277" y="518" type="line"/>
      <point x="274" y="550"/>
      <point x="285" y="610"/>
      <point x="300" y="636" type="qcurve"/>
      <point x="328" y="689"/>
      <point x="428" y="752"/>
      <point x="492" y="752" type="qcurve" smooth="yes"/>
      <point x="547" y="752"/>
      <point x="646" y="711"/>
      <point x="692" y="684" type="qcurve" smooth="yes"/>
      <point x="738" y="657"/>
      <point x="821" y="616"/>
      <point x="863" y="616" type="qcurve" smooth="yes"/>
      <point x="888" y="616"/>
      <point x="927" y="636"/>
      <point x="941" y="656" type="qcurve"/>
      <point x="954" y="676"/>
      <point x="962" y="719"/>
      <point x="958" y="743" type="qcurve"/>
      <point x="1057" y="743" type="line"/>
      <point x="1060" y="711"/>
      <point x="1050" y="653"/>
      <point x="1036" y="626" type="qcurve" smooth="yes"/>
      <point x="1008" y="571"/>
      <point x="905" y="504"/>
    </contour>
  </outline>
</glyph>
<glyph name="exclamdown" format="2">
  <advance width="523"/>
  <unicode hex="00A1"/>
  <outline>
    <contour>
      <point x="348" y="1086" type="qcurve" smooth="yes"/>
      <point x="364" y="1086"/>
      <point x="387" y="1076"/>
      <point x="396" y="1065" type="qcurve" smooth="yes"/>
      <point x="405" y="1054"/>
      <point x="411" y="1029"/>
      <point x="408" y="1013" type="qcurve" smooth="yes"/>
      <point x="405" y="997"/>
      <point x="391" y="971"/>
      <point x="379" y="960" type="qcurve"/>
      <point x="366" y="949"/>
      <point x="339" y="939"/>
      <point x="323" y="939" type="qcurve" smooth="yes"/>
      <point x="307" y="939"/>
      <point x="285" y="949"/>
      <point x="276" y="960" type="qcurve" smooth="yes"/>
      <point x="267" y="971"/>
      <point x="260" y="997"/>
      <point x="263" y="1013" type="qcurve"/>
      <point x="265" y="1028"/>
      <point x="281" y="1054"/>
      <point x="293" y="1065" type="qcurve"/>
      <point x="306" y="1076"/>
      <point x="332" y="1086"/>
    </contour>
    <contour>
      <point x="318" y="720" type="line"/>
      <point x="159" y="-360" type="line"/>
      <point x="57" y="-360" type="line"/>
      <point x="256" y="720" type="line"/>
    </contour>
  </outline>
</glyph>
<glyph name="cent" format="2">
  <advance width="1045"/>
  <unicode hex="00A2"/>
  <outline>
    <contour>
      <point x="414" y="-60" type="line"/>
      <point x="444" y="122" type="line"/>
      <point x="371" y="127"/>
      <point x="258" y="168"/>
      <point x="215" y="205" type="qcurve" smooth="yes"/>
      <point x="129" y="280"/>
      <point x="69" y="527"/>
      <point x="93" y="690" type="qcurve"/>
      <point x="109" y="774"/>
      <point x="159" y="918"/>
      <point x="195" y="981" type="qcurve" smooth="yes"/>
      <point x="267" y="1106"/>
      <point x="485" y="1249"/>
      <point x="632" y="1258" type="qcurve"/>
      <point x="662" y="1440" type="line"/>
      <point x="744" y="1440" type="line"/>
      <point x="714" y="1258" type="line"/>
      <point x="780" y="1253"/>
      <point x="890" y="1213"/>
      <point x="936" y="1178" type="qcurve" smooth="yes"/>
      <point x="981" y="1143"/>
      <point x="1040" y="1050"/>
      <point x="1052" y="992" type="qcurve"/>
      <point x="968" y="958" type="line"/>
      <point x="954" y="1010"/>
      <point x="901" y="1090"/>
      <point x="860" y="1119" type="qcurve" smooth="yes"/>
      <point x="818" y="1148"/>
      <point x="717" y="1176"/>
      <point x="658" y="1176" type="qcurve" smooth="yes"/>
      <point x="590" y="1176"/>
      <point x="476" y="1146"/>
      <point x="427" y="1115" type="qcurve" smooth="yes"/>
      <point x="329" y="1053"/>
      <point x="207" y="835"/>
      <point x="181" y="690" type="qcurve"/>
      <point x="165" y="579"/>
      <point x="186" y="404"/>
      <point x="225" y="337" type="qcurve" smooth="yes"/>
      <point x="264" y="270"/>
      <point x="399" y="204"/>
      <point x="497" y="204" type="qcurve" smooth="yes"/>
      <point x="614" y="204"/>
      <point x="812" y="314"/>
      <point x="877" y="420" type="qcurve"/>
      <point x="952" y="384" type="line"/>
      <point x="870" y="263"/>
      <point x="657" y="131"/>
      <point x="526" y="122" type="qcurve"/>
      <point x="496" y="-60" type="line"/>
    </contour>
  </outline>
</glyph>
<glyph name="sterling" format="2">
  <advance width="1173"/>
  <unicode hex="00A3"/>
  <outline>
    <contour>
      <point x="233" y="71" type="line"/>
      <point x="265" y="94"/>
      <point x="311" y="152"/>
      <point x="344" y="217"/>
      <point x="365" y="288"/>
      <point x="370" y="322" type="qcurve" smooth="yes"/>
      <point x="386" y="419"/>
      <point x="369" y="604"/>
      <point x="340" y="786"/>
      <point x="322" y="968"/>
      <point x="338" y="1062" type="qcurve" smooth="yes"/>
      <point x="351" y="1143"/>
      <point x="431" y="1264"/>
      <point x="545" y="1345"/>
      <point x="684" y="1385"/>
      <point x="758" y="1385" type="qcurve" smooth="yes"/>
      <point x="839" y="1385"/>
      <point x="981" y="1340"/>
      <point x="1085" y="1252"/>
      <point x="1142" y="1121"/>
      <point x="1139" y="1034" type="qcurve"/>
      <point x="1224" y="1050" type="line"/>
      <point x="1229" y="1148"/>
      <point x="1163" y="1304"/>
      <point x="1041" y="1412"/>
      <point x="876" y="1470"/>
      <point x="784" y="1470" type="qcurve" smooth="yes"/>
      <point x="689" y="1470"/>
      <point x="511" y="1421"/>
      <point x="367" y="1319"/>
      <point x="266" y="1164"/>
      <point x="249" y="1059" type="qcurve" smooth="yes"/>
      <point x="233" y="963"/>
      <point x="253" y="781"/>
      <point x="283" y="600"/>
      <point x="303" y="417"/>
      <point x="287" y="321" type="qcurve" smooth="yes"/>
      <point x="274" y="243"/>
      <point x="196" y="123"/>
      <point x="120" y="84" type="qcurve"/>
    </contour>
    <contour>
      <point x="-14" y="0" type="line"/>
      <point x="1033" y="0" type="line"/>
      <point x="1047" y="84" type="line"/>
      <point x="0" y="84" type="line"/>
    </contour>
    <contour>
      <point x="110" y="670" type="line"/>
      <point x="920" y="670" type="line"/>
      <point x="934" y="754" type="line"/>
      <point x="124" y="754" type="line"/>
    </contour>
  </outline>
</glyph>
<glyph name="currency" format="2">
  <advance width="1207"/>
  <unicode hex="00A4"/>
  <outline>
    <contour>
      <point x="572" y="196" type="qcurve" smooth="yes"/>
      <point x="472" y="196"/>
      <point x="300" y="271"/>
      <point x="174" y="400"/>
      <point x="102" y="574"/>
      <point x="102" y="674" type="qcurve" smooth="yes"/>
      <point x="102" y="787"/>
      <point x="192" y="994"/>
      <point x="345" y="1152"/>
      <point x="550" y="1246"/>
      <point x="664" y="1246" type="qcurve" smooth="yes"/>
      <point x="765" y="1246"/>
      <point x="937" y="1172"/>
      <point x="1063" y="1043"/>
      <point x="1135" y="869"/>
      <point x="1135" y="769" type="qcurve" smooth="yes"/>
      <point x="1135" y="655"/>
      <point x="1045" y="448"/>
      <point x="892" y="290"/>
      <point x="687" y="196"/>
    </contour>
    <contour>
      <point x="37" y="160" type="line"/>
      <point x="-12" y="220" type="line"/>
      <point x="206" y="412" type="line"/>
      <point x="256" y="352" type="line"/>
    </contour>
    <contour>
      <point x="306" y="1028" type="line"/>
      <point x="146" y="1222" type="line"/>
      <point x="214" y="1280" type="line"/>
      <point x="372" y="1088" type="line"/>
    </contour>
    <contour>
      <point x="1021" y="160" type="line"/>
      <point x="863" y="352" type="line"/>
      <point x="931" y="412" type="line"/>
      <point x="1089" y="220" type="line"/>
    </contour>
    <contour>
      <point x="579" y="280" type="qcurve" smooth="yes"/>
      <point x="675" y="280"/>
      <point x="848" y="359"/>
      <point x="977" y="492"/>
      <point x="1053" y="667"/>
      <point x="1053" y="762" type="qcurve" smooth="yes"/>
      <point x="1053" y="845"/>
      <point x="991" y="990"/>
      <point x="884" y="1099"/>
      <point x="740" y="1162"/>
      <point x="657" y="1162" type="qcurve" smooth="yes"/>
      <point x="559" y="1162"/>
      <point x="387" y="1083"/>
      <point x="258" y="950"/>
      <point x="184" y="774"/>
      <point x="184" y="677" type="qcurve" smooth="yes"/>
      <point x="184" y="594"/>
      <point x="245" y="449"/>
      <point x="352" y="342"/>
      <point x="496" y="280"/>
    </contour>
    <contour>
      <point x="1027" y="1028" type="line"/>
      <point x="980" y="1088" type="line"/>
      <point x="1198" y="1280" type="line"/>
      <point x="1248" y="1222" type="line"/>
    </contour>
  </outline>
</glyph>
<glyph name="yen" format="2">
  <advance width="1017"/>
  <unicode hex="00A5"/>
  <outline>
    <contour>
      <point x="133" y="512" type="line"/>
      <point x="146" y="596" type="line"/>
      <point x="852" y="596" type="line"/>
      <point x="838" y="512" type="line"/>
    </contour>
    <contour>
      <point x="88" y="244" type="line"/>
      <point x="102" y="328" type="line"/>
      <point x="808" y="328" type="line"/>
      <point x="794" y="244" type="line"/>
    </contour>
    <contour>
      <point x="359" y="0" type="line"/>
      <point x="461" y="612" type="line"/>
      <point x="129" y="1440" type="line"/>
      <point x="223" y="1440" type="line"/>
      <point x="518" y="708" type="line"/>
      <point x="1053" y="1440" type="line"/>
      <point x="1147" y="1440" type="line"/>
      <point x="543" y="612" type="line"/>
      <point x="442" y="0" type="line"/>
    </contour>
  </outline>
</glyph>
<glyph name="brokenbar" format="2">
  <advance width="409"/>
  <unicode hex="00A6"/>
  <outline>
    <contour>
      <point x="194" y="752" type="line"/>
      <point x="308" y="1440" type="line"/>
      <point x="391" y="1440" type="line"/>
      <point x="277" y="752" type="line"/>
    </contour>
    <contour>
      <point x="29" y="-248" type="line"/>
      <point x="143" y="440" type="line"/>
      <point x="225" y="440" type="line"/>
      <point x="111" y="-248" type="line"/>
    </contour>
  </outline>
</glyph>
<glyph name="section" format="2">
  <advance width="992"/>
  <unicode hex="00A7"/>
  <outline>
    <contour>
      <point x="370" y="-328" type="qcurve" smooth="yes"/>
      <point x="301" y="-328"/>
      <point x="172" y="-295"/>
      <point x="71" y="-226"/>
      <point x="7" y="-117"/>
      <point x="2" y="-40" type="qcurve"/>
      <point x="89" y="-24" type="line"/>
      <point x="95" y="-81"/>
      <point x="150" y="-164"/>
      <point x="232" y="-218"/>
      <point x="333" y="-244"/>
      <point x="385" y="-244" type="qcurve" smooth="yes"/>
      <point x="444" y="-244"/>
      <point x="560" y="-209"/>
      <point x="653" y="-141"/>
      <point x="711" y="-41"/>
      <point x="711" y="24" type="qcurve" smooth="yes"/>
      <point x="711" y="45"/>
      <point x="700" y="85"/>
      <point x="686" y="102" type="qcurve" smooth="yes"/>
      <point x="663" y="131"/>
      <point x="572" y="174"/>
      <point x="459" y="211"/>
      <point x="333" y="246"/>
      <point x="216" y="287"/>
      <point x="119" y="339"/>
      <point x="91" y="375" type="qcurve" smooth="yes"/>
      <point x="80" y="389"/>
      <point x="66" y="422"/>
      <point x="62" y="439" type="qcurve" smooth="yes"/>
      <point x="60" y="448"/>
      <point x="59" y="466"/>
      <point x="59" y="475" type="qcurve" smooth="yes"/>
      <point x="59" y="547"/>
      <point x="120" y="663"/>
      <point x="219" y="744"/>
      <point x="348" y="787"/>
      <point x="415" y="787" type="qcurve" smooth="yes"/>
      <point x="431" y="787"/>
      <point x="461" y="784"/>
      <point x="477" y="782" type="qcurve"/>
      <point x="469" y="766" type="line"/>
      <point x="420" y="755"/>
      <point x="307" y="712"/>
      <point x="211" y="646"/>
      <point x="148" y="555"/>
      <point x="148" y="495" type="qcurve" smooth="yes"/>
      <point x="148" y="467"/>
      <point x="171" y="422"/>
      <point x="212" y="386"/>
      <point x="269" y="358"/>
      <point x="302" y="346" type="qcurve" smooth="yes"/>
      <point x="358" y="326"/>
      <point x="488" y="294"/>
      <point x="614" y="255"/>
      <point x="723" y="202"/>
      <point x="757" y="162" type="qcurve" smooth="yes"/>
      <point x="771" y="146"/>
      <point x="791" y="109"/>
      <point x="796" y="88" type="qcurve"/>
      <point x="798" y="77"/>
      <point x="801" y="54"/>
      <point x="801" y="41" type="qcurve" smooth="yes"/>
      <point x="801" y="-49"/>
      <point x="728" y="-187"/>
      <point x="608" y="-280"/>
      <point x="453" y="-328"/>
    </contour>
    <contour>
      <point x="529" y="232" type="qcurve"/>
      <point x="535" y="256" type="line"/>
      <point x="586" y="256"/>
      <point x="685" y="290"/>
      <point x="765" y="352"/>
      <point x="820" y="438"/>
      <point x="827" y="489" type="qcurve"/>
      <point x="829" y="497"/>
      <point x="830" y="515"/>
      <point x="830" y="524" type="qcurve" smooth="yes"/>
      <point x="830" y="545"/>
      <point x="819" y="585"/>
      <point x="805" y="602" type="qcurve" smooth="yes"/>
      <point x="787" y="625"/>
      <point x="722" y="661"/>
      <point x="680" y="676" type="qcurve" smooth="yes"/>
      <point x="622" y="698"/>
      <point x="484" y="736"/>
      <point x="352" y="780"/>
      <point x="240" y="836"/>
      <point x="209" y="875" type="qcurve"/>
      <point x="203" y="882"/>
      <point x="194" y="897"/>
      <point x="191" y="905" type="qcurve"/>
      <point x="184" y="922"/>
      <point x="178" y="957"/>
      <point x="178" y="975" type="qcurve" smooth="yes"/>
      <point x="178" y="1056"/>
      <point x="254" y="1181"/>
      <point x="374" y="1266"/>
      <point x="522" y="1310"/>
      <point x="594" y="1310" type="qcurve" smooth="yes"/>
      <point x="660" y="1310"/>
      <point x="785" y="1271"/>
      <point x="881" y="1196"/>
      <point x="939" y="1085"/>
      <point x="939" y="1013" type="qcurve"/>
      <point x="939" y="1013"/>
      <point x="939" y="1013"/>
      <point x="939" y="1013" type="qcurve"/>
      <point x="939" y="998" type="line"/>
      <point x="852" y="982" type="line"/>
      <point x="851" y="1043"/>
      <point x="806" y="1134"/>
      <point x="730" y="1195"/>
      <point x="628" y="1226"/>
      <point x="571" y="1226" type="qcurve" smooth="yes"/>
      <point x="522" y="1226"/>
      <point x="414" y="1197"/>
      <point x="324" y="1139"/>
      <point x="266" y="1052"/>
      <point x="266" y="995" type="qcurve" smooth="yes"/>
      <point x="266" y="965"/>
      <point x="291" y="919"/>
      <point x="314" y="900" type="qcurve" smooth="yes"/>
      <point x="349" y="872"/>
      <point x="452" y="835"/>
      <point x="512" y="818" type="qcurve" smooth="yes"/>
      <point x="566" y="803"/>
      <point x="680" y="773"/>
      <point x="782" y="733"/>
      <point x="866" y="680"/>
      <point x="891" y="641" type="qcurve" smooth="yes"/>
      <point x="905" y="620"/>
      <point x="919" y="571"/>
      <point x="919" y="541" type="qcurve" smooth="yes"/>
      <point x="919" y="478"/>
      <point x="877" y="360"/>
      <point x="799" y="270"/>
      <point x="690" y="215"/>
      <point x="624" y="215" type="qcurve" smooth="yes"/>
      <point x="616" y="215"/>
      <point x="599" y="216"/>
      <point x="591" y="217" type="qcurve" smooth="yes"/>
      <point x="575" y="219"/>
      <point x="544" y="227"/>
    </contour>
  </outline>
</glyph>
<glyph name="dieresis" format="2">
  <advance width="1123"/>
  <unicode hex="00A8"/>
  <outline>
    <contour>
      <point x="562" y="1303" type="curve" smooth="yes"/>
      <point x="529" y="1303"/>
      <point x="501" y="1328"/>
      <point x="501" y="1362" type="curve" smooth="yes"/>
      <point x="501" y="1409"/>
      <point x="540" y="1450"/>
      <point x="587" y="1450" type="curve" smooth="yes"/>
      <point x="621" y="1450"/>
      <point x="649" y="1427"/>
      <point x="649" y="1391" type="curve" smooth="yes"/>
      <point x="649" y="1343"/>
      <point x="610" y="1303"/>
    </contour>
    <contour>
      <point x="854" y="1303" type="curve" smooth="yes"/>
      <point x="821" y="1303"/>
      <point x="793" y="1328"/>
      <point x="793" y="1362" type="curve" smooth="yes"/>
      <point x="793" y="1409"/>
      <point x="832" y="1450"/>
      <point x="879" y="1450" type="curve" smooth="yes"/>
      <point x="913" y="1450"/>
      <point x="941" y="1427"/>
      <point x="941" y="1391" type="curve" smooth="yes"/>
      <point x="941" y="1343"/>
      <point x="902" y="1303"/>
    </contour>
  </outline>
</glyph>
<glyph name="copyright" format="2">
  <advance width="1457"/>
  <unicode hex="00A9"/>
  <outline>
    <contour>
      <point x="618" y="-10" type="curve" smooth="yes"/>
      <point x="288" y="-10"/>
      <point x="48" y="234"/>
      <point x="48" y="563" type="curve" smooth="yes"/>
      <point x="48" y="982"/>
      <point x="426" y="1366"/>
      <point x="846" y="1366" type="curve" smooth="yes"/>
      <point x="1174" y="1366"/>
      <point x="1416" y="1126"/>
      <point x="1416" y="797" type="curve" smooth="yes"/>
      <point x="1416" y="376"/>
      <point x="1041" y="-10"/>
    </contour>
    <contour>
      <point x="667" y="260" type="curve" smooth="yes"/>
      <point x="475" y="260"/>
      <point x="367" y="382"/>
      <point x="367" y="570" type="curve" smooth="yes"/>
      <point x="367" y="836"/>
      <point x="516" y="1100"/>
      <point x="810" y="1100" type="curve" smooth="yes"/>
      <point x="945" y="1100"/>
      <point x="1070" y="1034"/>
      <point x="1093" y="890" type="curve"/>
      <point x="1008" y="862" type="line"/>
      <point x="980" y="966"/>
      <point x="899" y="1018"/>
      <point x="794" y="1018" type="curve" smooth="yes"/>
      <point x="565" y="1018"/>
      <point x="459" y="791"/>
      <point x="459" y="591" type="curve" smooth="yes"/>
      <point x="459" y="447"/>
      <point x="524" y="342"/>
      <point x="680" y="342" type="curve" smooth="yes"/>
      <point x="797" y="342"/>
      <point x="885" y="398"/>
      <point x="945" y="496" type="curve"/>
      <point x="1022" y="466" type="line"/>
      <point x="945" y="336"/>
      <point x="819" y="260"/>
    </contour>
    <contour>
      <point x="633" y="78" type="curve" smooth="yes"/>
      <point x="1004" y="78"/>
      <point x="1327" y="419"/>
      <point x="1327" y="786" type="curve" smooth="yes"/>
      <point x="1327" y="1071"/>
      <point x="1113" y="1278"/>
      <point x="831" y="1278" type="curve" smooth="yes"/>
      <point x="462" y="1278"/>
      <point x="133" y="943"/>
      <point x="133" y="575" type="curve" smooth="yes"/>
      <point x="133" y="288"/>
      <point x="347" y="78"/>
    </contour>
  </outline>
</glyph>
<glyph name="ordfeminine" format="2">
  <advance width="719"/>
  <unicode hex="00AA"/>
  <outline>
    <contour>
      <point x="390" y="710" type="curve" smooth="yes"/>
      <point x="234" y="710"/>
      <point x="154" y="785"/>
      <point x="176" y="915" type="curve" smooth="yes"/>
      <point x="202" y="1074"/>
      <point x="338" y="1120"/>
      <point x="512" y="1142" type="curve" smooth="yes"/>
      <point x="742" y="1171" type="line"/>
      <point x="749" y="1216"/>
      <point x="751" y="1254"/>
      <point x="746" y="1286" type="curve" smooth="yes"/>
      <point x="733" y="1369"/>
      <point x="676" y="1407"/>
      <point x="568" y="1407" type="curve" smooth="yes"/>
      <point x="447" y="1407"/>
      <point x="366" y="1356"/>
      <point x="323" y="1252" type="curve"/>
      <point x="263" y="1262" type="line"/>
      <point x="317" y="1397"/>
      <point x="427" y="1470"/>
      <point x="580" y="1470" type="curve" smooth="yes"/>
      <point x="759" y="1470"/>
      <point x="834" y="1373"/>
      <point x="802" y="1181" type="curve" smooth="yes"/>
      <point x="728" y="730" type="line"/>
      <point x="669" y="730" type="line"/>
      <point x="692" y="873" type="line"/>
      <point x="622" y="768"/>
      <point x="516" y="710"/>
    </contour>
    <contour>
      <point x="407" y="773" type="curve" smooth="yes"/>
      <point x="552" y="773"/>
      <point x="664" y="858"/>
      <point x="709" y="1001" type="curve" smooth="yes"/>
      <point x="720" y="1034"/>
      <point x="726" y="1072"/>
      <point x="731" y="1107" type="curve"/>
      <point x="501" y="1079" type="line" smooth="yes"/>
      <point x="326" y="1058"/>
      <point x="253" y="1012"/>
      <point x="237" y="915" type="curve" smooth="yes"/>
      <point x="222" y="822"/>
      <point x="278" y="773"/>
    </contour>
    <contour>
      <point x="110" y="520" type="line"/>
      <point x="123" y="595" type="line"/>
      <point x="726" y="595" type="line"/>
      <point x="713" y="520" type="line"/>
    </contour>
  </outline>
  <guideline angle="0" x="0" y="1440"/>
</glyph>
<glyph name="guillemotleft" format="2">
  <advance width="962"/>
  <unicode hex="00AB"/>
  <outline>
    <contour>
      <point x="699" y="112" type="line"/>
      <point x="435" y="542" type="line"/>
      <point x="841" y="970" type="line"/>
      <point x="894" y="922" type="line"/>
      <point x="533" y="542" type="line"/>
      <point x="768" y="160" type="line"/>
    </contour>
    <contour>
      <point x="405" y="112" type="line"/>
      <point x="141" y="542" type="line"/>
      <point x="547" y="970" type="line"/>
      <point x="600" y="922" type="line"/>
      <point x="239" y="542" type="line"/>
      <point x="474" y="160" type="line"/>
    </contour>
  </outline>
</glyph>
<glyph name="logicalnot" format="2">
  <advance width="1159"/>
  <unicode hex="00AC"/>
  <outline>
    <contour>
      <point x="1000" y="402" type="line"/>
      <point x="1043" y="658" type="line"/>
      <point x="184" y="658" type="line"/>
      <point x="198" y="742" type="line"/>
      <point x="1139" y="742" type="line"/>
      <point x="1083" y="402" type="line"/>
    </contour>
  </outline>
</glyph>
<glyph name="registered" format="2">
  <advance width="1166"/>
  <unicode hex="00AE"/>
  <outline>
    <contour>
      <point x="573" y="594" type="qcurve" smooth="yes"/>
      <point x="478" y="594"/>
      <point x="325" y="666"/>
      <point x="273" y="730" type="qcurve" smooth="yes"/>
      <point x="221" y="794"/>
      <point x="178" y="963"/>
      <point x="194" y="1060" type="qcurve" smooth="yes"/>
      <point x="210" y="1157"/>
      <point x="308" y="1324"/>
      <point x="381" y="1388" type="qcurve" smooth="yes"/>
      <point x="454" y="1452"/>
      <point x="632" y="1524"/>
      <point x="727" y="1524" type="qcurve" smooth="yes"/>
      <point x="822" y="1524"/>
      <point x="974" y="1452"/>
      <point x="1026" y="1388" type="qcurve" smooth="yes"/>
      <point x="1078" y="1324"/>
      <point x="1121" y="1157"/>
      <point x="1105" y="1060" type="qcurve" smooth="yes"/>
      <point x="1089" y="963"/>
      <point x="991" y="794"/>
      <point x="917" y="730" type="qcurve" smooth="yes"/>
      <point x="844" y="666"/>
      <point x="668" y="594"/>
    </contour>
    <contour>
      <point x="587" y="678" type="qcurve" smooth="yes"/>
      <point x="639" y="678"/>
      <point x="737" y="704"/>
      <point x="784" y="730" type="qcurve" smooth="yes"/>
      <point x="830" y="756"/>
      <point x="908" y="824"/>
      <point x="941" y="868" type="qcurve" smooth="yes"/>
      <point x="974" y="911"/>
      <point x="1014" y="1006"/>
      <point x="1023" y="1060" type="qcurve" smooth="yes"/>
      <point x="1032" y="1113"/>
      <point x="1023" y="1208"/>
      <point x="1005" y="1251" type="qcurve" smooth="yes"/>
      <point x="987" y="1294"/>
      <point x="931" y="1363"/>
      <point x="893" y="1389" type="qcurve" smooth="yes"/>
      <point x="854" y="1415"/>
      <point x="765" y="1440"/>
      <point x="713" y="1440" type="qcurve" smooth="yes"/>
      <point x="660" y="1440"/>
      <point x="563" y="1415"/>
      <point x="517" y="1389" type="qcurve" smooth="yes"/>
      <point x="470" y="1363"/>
      <point x="391" y="1294"/>
      <point x="359" y="1251" type="qcurve" smooth="yes"/>
      <point x="326" y="1208"/>
      <point x="285" y="1113"/>
      <point x="276" y="1060" type="qcurve" smooth="yes"/>
      <point x="267" y="1006"/>
      <point x="277" y="911"/>
      <point x="295" y="868" type="qcurve" smooth="yes"/>
      <point x="313" y="824"/>
      <point x="369" y="756"/>
      <point x="408" y="730" type="qcurve" smooth="yes"/>
      <point x="446" y="704"/>
      <point x="534" y="678"/>
    </contour>
    <contour>
      <point x="454" y="834" type="line"/>
      <point x="531" y="1294" type="line"/>
      <point x="730" y="1294" type="line" smooth="yes"/>
      <point x="758" y="1294"/>
      <point x="807" y="1272"/>
      <point x="826" y="1250" type="qcurve" smooth="yes"/>
      <point x="845" y="1228"/>
      <point x="858" y="1176"/>
      <point x="853" y="1146" type="qcurve" smooth="yes"/>
      <point x="847" y="1107"/>
      <point x="789" y="1030"/>
      <point x="745" y="1012" type="qcurve"/>
      <point x="801" y="834" type="line"/>
      <point x="721" y="834" type="line"/>
      <point x="670" y="998" type="line"/>
      <point x="552" y="998" type="line"/>
      <point x="525" y="834" type="line"/>
    </contour>
    <contour>
      <point x="563" y="1066" type="line"/>
      <point x="691" y="1066" type="line" smooth="yes"/>
      <point x="706" y="1066"/>
      <point x="734" y="1078"/>
      <point x="748" y="1090" type="qcurve"/>
      <point x="762" y="1101"/>
      <point x="778" y="1129"/>
      <point x="780" y="1146" type="qcurve"/>
      <point x="783" y="1164"/>
      <point x="775" y="1193"/>
      <point x="765" y="1204" type="qcurve"/>
      <point x="754" y="1215"/>
      <point x="730" y="1226"/>
      <point x="717" y="1226" type="qcurve" smooth="yes"/>
      <point x="590" y="1226" type="line"/>
    </contour>
  </outline>
</glyph>
<glyph name="macron" format="2">
  <advance width="907"/>
  <unicode hex="00AF"/>
  <outline>
    <contour>
      <point x="428" y="1680" type="line"/>
      <point x="441" y="1764" type="line"/>
      <point x="912" y="1764" type="line"/>
      <point x="898" y="1680" type="line"/>
    </contour>
  </outline>
</glyph>
<glyph name="degree" format="2">
  <advance width="864"/>
  <unicode hex="00B0"/>
  <outline>
    <contour>
      <point x="449" y="750" type="qcurve" smooth="yes"/>
      <point x="380" y="750"/>
      <point x="263" y="800"/>
      <point x="176" y="887"/>
      <point x="127" y="1006"/>
      <point x="127" y="1074" type="qcurve" smooth="yes"/>
      <point x="127" y="1151"/>
      <point x="189" y="1294"/>
      <point x="295" y="1404"/>
      <point x="435" y="1470"/>
      <point x="513" y="1470" type="qcurve" smooth="yes"/>
      <point x="581" y="1470"/>
      <point x="699" y="1420"/>
      <point x="786" y="1333"/>
      <point x="836" y="1214"/>
      <point x="836" y="1146" type="qcurve" smooth="yes"/>
      <point x="836" y="1067"/>
      <point x="775" y="924"/>
      <point x="670" y="815"/>
      <point x="529" y="750"/>
    </contour>
    <contour>
      <point x="457" y="834" type="qcurve" smooth="yes"/>
      <point x="518" y="834"/>
      <point x="625" y="884"/>
      <point x="706" y="967"/>
      <point x="753" y="1077"/>
      <point x="753" y="1137" type="qcurve" smooth="yes"/>
      <point x="753" y="1188"/>
      <point x="715" y="1279"/>
      <point x="648" y="1347"/>
      <point x="558" y="1386"/>
      <point x="506" y="1386" type="qcurve" smooth="yes"/>
      <point x="446" y="1386"/>
      <point x="339" y="1336"/>
      <point x="258" y="1252"/>
      <point x="210" y="1142"/>
      <point x="210" y="1083" type="qcurve" smooth="yes"/>
      <point x="210" y="1032"/>
      <point x="248" y="941"/>
      <point x="315" y="873"/>
      <point x="405" y="834"/>
    </contour>
  </outline>
</glyph>
<glyph name="plusminus" format="2">
  <advance width="1159"/>
  <unicode hex="00B1"/>
  <outline>
    <contour>
      <point x="502" y="440" type="line"/>
      <point x="548" y="718" type="line"/>
      <point x="119" y="718" type="line"/>
      <point x="133" y="802" type="line"/>
      <point x="562" y="802" type="line"/>
      <point x="608" y="1080" type="line"/>
      <point x="691" y="1080" type="line"/>
      <point x="645" y="802" type="line"/>
      <point x="1074" y="802" type="line"/>
      <point x="1060" y="718" type="line"/>
      <point x="631" y="718" type="line"/>
      <point x="585" y="440" type="line"/>
    </contour>
    <contour>
      <point x="29" y="176" type="line"/>
      <point x="43" y="260" type="line"/>
      <point x="984" y="260" type="line"/>
      <point x="970" y="176" type="line"/>
    </contour>
  </outline>
</glyph>
<glyph name="twosuperior" format="2">
  <advance width="764"/>
  <unicode hex="00B2"/>
  <outline>
    <contour>
      <point x="215.712" y="618.784" type="line"/>
      <point x="641.248" y="969.168" type="line" smooth="yes"/>
      <point x="711.52" y="1027.73"/>
      <point x="799.36" y="1098.98"/>
      <point x="799.36" y="1201.46" type="curve" smooth="yes"/>
      <point x="799.36" y="1324.43"/>
      <point x="679.312" y="1381.04"/>
      <point x="574.88" y="1383.97" type="curve"/>
      <point x="471.424" y="1383.97"/>
      <point x="390.416" y="1319.55"/>
      <point x="360.16" y="1218.05" type="curve"/>
      <point x="280.128" y="1250.26" type="line"/>
      <point x="322.096" y="1386.9"/>
      <point x="430.432" y="1465.95"/>
      <point x="569.024" y="1465.95" type="curve" smooth="yes"/>
      <point x="715.424" y="1465.95"/>
      <point x="887.2" y="1376.16"/>
      <point x="887.2" y="1205.36" type="curve" smooth="yes"/>
      <point x="887.2" y="1079.46"/>
      <point x="795.456" y="989.664"/>
      <point x="704.688" y="916.464" type="curve" smooth="yes"/>
      <point x="328.928" y="618.784" type="line"/>
      <point x="784.72" y="618.784" type="line"/>
      <point x="773.008" y="539.728" type="line"/>
      <point x="203.024" y="539.728" type="line"/>
    </contour>
  </outline>
</glyph>
<glyph name="threesuperior" format="2">
  <advance width="799"/>
  <unicode hex="00B3"/>
  <outline>
    <contour>
      <point x="459" y="519" type="curve" smooth="yes"/>
      <point x="282" y="519"/>
      <point x="154" y="611"/>
      <point x="142" y="802" type="curve"/>
      <point x="224" y="809" type="line"/>
      <point x="241" y="667"/>
      <point x="325" y="600"/>
      <point x="460" y="598" type="curve"/>
      <point x="588" y="598"/>
      <point x="688" y="688"/>
      <point x="688" y="824" type="curve" smooth="yes"/>
      <point x="688" y="868"/>
      <point x="674" y="907"/>
      <point x="646" y="941" type="curve"/>
      <point x="617" y="974"/>
      <point x="567" y="992"/>
      <point x="495" y="993" type="curve" smooth="yes"/>
      <point x="417" y="994" type="line"/>
      <point x="427" y="1066" type="line"/>
      <point x="722" y="1361" type="line"/>
      <point x="280" y="1361" type="line"/>
      <point x="292" y="1440" type="line"/>
      <point x="835" y="1440" type="line"/>
      <point x="821" y="1361" type="line"/>
      <point x="522" y="1063" type="line"/>
      <point x="659" y="1054"/>
      <point x="772" y="990"/>
      <point x="772" y="834" type="curve" smooth="yes"/>
      <point x="772" y="646"/>
      <point x="638" y="519"/>
    </contour>
  </outline>
</glyph>
<glyph name="acute" format="2">
  <advance width="820"/>
  <unicode hex="00B4"/>
  <outline>
    <contour>
      <point x="613" y="1890" type="line"/>
      <point x="506" y="1620" type="line"/>
      <point x="571" y="1620" type="line"/>
      <point x="707" y="1890" type="line"/>
    </contour>
  </outline>
</glyph>
<glyph name="paragraph" format="2">
  <advance width="1113"/>
  <unicode hex="00B6"/>
  <outline>
    <contour>
      <point x="591" y="-282" type="line"/>
      <point x="733" y="576" type="line"/>
      <point x="649" y="576" type="line" smooth="yes"/>
      <point x="638" y="576"/>
      <point x="617" y="577"/>
      <point x="607" y="578" type="qcurve" smooth="yes"/>
      <point x="596" y="579"/>
      <point x="573" y="582"/>
      <point x="560" y="584" type="qcurve" smooth="yes"/>
      <point x="510" y="592"/>
      <point x="428" y="631"/>
      <point x="396" y="661" type="qcurve" smooth="yes"/>
      <point x="330" y="721"/>
      <point x="279" y="899"/>
      <point x="297" y="1008" type="qcurve" smooth="yes"/>
      <point x="306" y="1062"/>
      <point x="343" y="1161"/>
      <point x="371" y="1206" type="qcurve" smooth="yes"/>
      <point x="427" y="1297"/>
      <point x="594" y="1415"/>
      <point x="700" y="1432" type="qcurve"/>
      <point x="714" y="1435"/>
      <point x="738" y="1438"/>
      <point x="760" y="1439"/>
      <point x="782" y="1440"/>
      <point x="792" y="1440" type="qcurve" smooth="yes"/>
      <point x="958" y="1440" type="line"/>
      <point x="673" y="-282" type="line"/>
    </contour>
    <contour>
      <point x="787" y="-282" type="line"/>
      <point x="1072" y="1440" type="line"/>
      <point x="1154" y="1440" type="line"/>
      <point x="869" y="-282" type="line"/>
    </contour>
  </outline>
</glyph>
<glyph name="periodcentered" format="2">
  <advance width="375"/>
  <unicode hex="00B7"/>
  <outline>
    <contour>
      <point x="187" y="550" type="qcurve" smooth="yes"/>
      <point x="170" y="550"/>
      <point x="144" y="562"/>
      <point x="134" y="573" type="qcurve" smooth="yes"/>
      <point x="124" y="584"/>
      <point x="117" y="613"/>
      <point x="119" y="630" type="qcurve"/>
      <point x="122" y="647"/>
      <point x="139" y="677"/>
      <point x="153" y="688" type="qcurve" smooth="yes"/>
      <point x="167" y="699"/>
      <point x="196" y="710"/>
      <point x="213" y="710" type="qcurve" smooth="yes"/>
      <point x="229" y="710"/>
      <point x="254" y="699"/>
      <point x="263" y="688" type="qcurve" smooth="yes"/>
      <point x="272" y="677"/>
      <point x="279" y="647"/>
      <point x="276" y="630" type="qcurve" smooth="yes"/>
      <point x="273" y="613"/>
      <point x="257" y="584"/>
      <point x="244" y="573" type="qcurve" smooth="yes"/>
      <point x="231" y="562"/>
      <point x="203" y="550"/>
    </contour>
  </outline>
</glyph>
<glyph name="cedilla" format="2">
  <advance width="723"/>
  <unicode hex="00B8"/>
  <outline>
    <contour>
      <point x="163" y="-478" type="qcurve" smooth="yes"/>
      <point x="131" y="-478"/>
      <point x="74" y="-462"/>
      <point x="50" y="-450" type="qcurve"/>
      <point x="90" y="-376" type="line"/>
      <point x="113" y="-386"/>
      <point x="153" y="-396"/>
      <point x="171" y="-396" type="qcurve" smooth="yes"/>
      <point x="215" y="-396"/>
      <point x="272" y="-338"/>
      <point x="278" y="-302" type="qcurve" smooth="yes"/>
      <point x="282" y="-276"/>
      <point x="268" y="-241"/>
      <point x="249" y="-230" type="qcurve" smooth="yes"/>
      <point x="230" y="-219"/>
      <point x="188" y="-200"/>
      <point x="165" y="-192" type="qcurve"/>
      <point x="274" y="14" type="line"/>
      <point x="356" y="14" type="line"/>
      <point x="273" y="-142" type="line"/>
      <point x="320" y="-163"/>
      <point x="375" y="-241"/>
      <point x="364" y="-306" type="qcurve" smooth="yes"/>
      <point x="358" y="-342"/>
      <point x="322" y="-403"/>
      <point x="293" y="-428" type="qcurve" smooth="yes"/>
      <point x="263" y="-453"/>
      <point x="198" y="-478"/>
    </contour>
  </outline>
</glyph>
<glyph name="onesuperior" format="2">
  <advance width="574"/>
  <unicode hex="00B9"/>
  <outline>
    <contour>
      <point x="271" y="540" type="line"/>
      <point x="405" y="1348" type="line"/>
      <point x="221" y="1246" type="line"/>
      <point x="237" y="1338" type="line"/>
      <point x="420" y="1440" type="line"/>
      <point x="501" y="1440" type="line"/>
      <point x="352" y="540" type="line"/>
    </contour>
  </outline>
</glyph>
<glyph name="ordmasculine" format="2">
  <advance width="735"/>
  <unicode hex="00BA"/>
  <outline>
    <contour>
      <point x="810" y="520" type="line"/>
      <point x="823" y="596" type="line"/>
      <point x="156" y="596" type="line"/>
      <point x="144" y="520" type="line"/>
    </contour>
    <contour>
      <point x="505" y="710" type="curve" smooth="yes"/>
      <point x="729" y="710"/>
      <point x="854" y="885"/>
      <point x="888" y="1091" type="curve" smooth="yes"/>
      <point x="923" y="1304"/>
      <point x="847" y="1470"/>
      <point x="631" y="1470" type="curve" smooth="yes"/>
      <point x="409" y="1470"/>
      <point x="282" y="1296"/>
      <point x="248" y="1091" type="curve" smooth="yes"/>
      <point x="213" y="878"/>
      <point x="289" y="710"/>
    </contour>
    <contour>
      <point x="516" y="773" type="curve" smooth="yes"/>
      <point x="333" y="773"/>
      <point x="284" y="920"/>
      <point x="312" y="1091" type="curve" smooth="yes"/>
      <point x="341" y="1266"/>
      <point x="441" y="1407"/>
      <point x="621" y="1407" type="curve" smooth="yes"/>
      <point x="808" y="1407"/>
      <point x="853" y="1265"/>
      <point x="824" y="1091" type="curve" smooth="yes"/>
      <point x="796" y="923"/>
      <point x="704" y="773"/>
    </contour>
  </outline>
</glyph>
<glyph name="guillemotright" format="2">
  <advance width="962"/>
  <unicode hex="00BB"/>
  <outline>
    <contour>
      <point x="98" y="112" type="line"/>
      <point x="504" y="542" type="line"/>
      <point x="240" y="970" type="line"/>
      <point x="171" y="922" type="line"/>
      <point x="406" y="542" type="line"/>
      <point x="45" y="160" type="line"/>
    </contour>
    <contour>
      <point x="392" y="112" type="line"/>
      <point x="798" y="542" type="line"/>
      <point x="534" y="970" type="line"/>
      <point x="465" y="922" type="line"/>
      <point x="700" y="542" type="line"/>
      <point x="339" y="160" type="line"/>
    </contour>
  </outline>
</glyph>
<glyph name="onequarter" format="2">
  <advance width="1765"/>
  <unicode hex="00BC"/>
  <outline>
    <contour>
      <point x="281" y="-1" type="line"/>
      <point x="218" y="60" type="line"/>
      <point x="1482" y="1441" type="line"/>
      <point x="1542" y="1381" type="line"/>
    </contour>
    <contour>
      <point x="1389" y="0" type="line"/>
      <point x="1417" y="182" type="line"/>
      <point x="961" y="182" type="line"/>
      <point x="972" y="260" type="line"/>
      <point x="1366" y="900" type="line"/>
      <point x="1454" y="900" type="line"/>
      <point x="1062" y="260" type="line"/>
      <point x="1428" y="260" type="line"/>
      <point x="1479" y="581" type="line"/>
      <point x="1559" y="581" type="line"/>
      <point x="1510" y="260" type="line"/>
      <point x="1594" y="260" type="line"/>
      <point x="1582" y="182" type="line"/>
      <point x="1497" y="182" type="line"/>
      <point x="1469" y="0" type="line"/>
    </contour>
    <contour>
      <point x="365" y="540" type="line"/>
      <point x="489" y="1349" type="line"/>
      <point x="309" y="1246" type="line"/>
      <point x="282" y="1314" type="line"/>
      <point x="503" y="1440" type="line"/>
      <point x="583" y="1440" type="line"/>
      <point x="446" y="540" type="line"/>
    </contour>
  </outline>
</glyph>
<glyph name="onehalf" format="2">
  <advance width="1679"/>
  <unicode hex="00BD"/>
  <outline>
    <contour>
      <point x="211" y="-1" type="line"/>
      <point x="148" y="60" type="line"/>
      <point x="1412" y="1441" type="line"/>
      <point x="1472" y="1381" type="line"/>
    </contour>
    <contour>
      <point x="964" y="0" type="line"/>
      <point x="974" y="79" type="line"/>
      <point x="1398" y="443" type="line" smooth="yes"/>
      <point x="1468" y="502"/>
      <point x="1553" y="583"/>
      <point x="1553" y="683" type="curve" smooth="yes"/>
      <point x="1553" y="793"/>
      <point x="1449" y="836"/>
      <point x="1356" y="838" type="curve"/>
      <point x="1245" y="838"/>
      <point x="1160" y="768"/>
      <point x="1126" y="660" type="curve"/>
      <point x="1046" y="682" type="line"/>
      <point x="1093" y="827"/>
      <point x="1209" y="917"/>
      <point x="1358" y="917" type="curve" smooth="yes"/>
      <point x="1493" y="917"/>
      <point x="1638" y="848"/>
      <point x="1638" y="692" type="curve" smooth="yes"/>
      <point x="1638" y="561"/>
      <point x="1549" y="474"/>
      <point x="1460" y="397" type="curve" smooth="yes"/>
      <point x="1085" y="79" type="line"/>
      <point x="1544" y="79" type="line"/>
      <point x="1533" y="0" type="line"/>
    </contour>
    <contour>
      <point x="297" y="540" type="line"/>
      <point x="421" y="1349" type="line"/>
      <point x="241" y="1246" type="line"/>
      <point x="214" y="1314" type="line"/>
      <point x="435" y="1440" type="line"/>
      <point x="515" y="1440" type="line"/>
      <point x="378" y="540" type="line"/>
    </contour>
  </outline>
</glyph>
<glyph name="threequarters" format="2">
  <advance width="1804"/>
  <unicode hex="00BE"/>
  <outline>
    <contour>
      <point x="447" y="-1" type="line"/>
      <point x="384" y="60" type="line"/>
      <point x="1647" y="1441" type="line"/>
      <point x="1709" y="1381" type="line"/>
    </contour>
    <contour>
      <point x="1558" y="0" type="line"/>
      <point x="1587" y="182" type="line"/>
      <point x="1131" y="182" type="line"/>
      <point x="1142" y="260" type="line"/>
      <point x="1537" y="900" type="line"/>
      <point x="1626" y="900" type="line"/>
      <point x="1231" y="260" type="line"/>
      <point x="1599" y="260" type="line"/>
      <point x="1647" y="581" type="line"/>
      <point x="1729" y="581" type="line"/>
      <point x="1679" y="260" type="line"/>
      <point x="1764" y="260" type="line"/>
      <point x="1752" y="182" type="line"/>
      <point x="1668" y="182" type="line"/>
      <point x="1639" y="0" type="line"/>
    </contour>
    <contour>
      <point x="463" y="519" type="curve" smooth="yes"/>
      <point x="286" y="519"/>
      <point x="158" y="611"/>
      <point x="146" y="802" type="curve"/>
      <point x="228" y="809" type="line"/>
      <point x="245" y="667"/>
      <point x="329" y="599"/>
      <point x="464" y="598" type="curve" smooth="yes"/>
      <point x="592" y="597"/>
      <point x="692" y="688"/>
      <point x="692" y="824" type="curve" smooth="yes"/>
      <point x="692" y="868"/>
      <point x="679" y="907"/>
      <point x="650" y="941" type="curve" smooth="yes"/>
      <point x="622" y="974"/>
      <point x="571" y="992"/>
      <point x="499" y="993" type="curve" smooth="yes"/>
      <point x="421" y="994" type="line"/>
      <point x="431" y="1066" type="line"/>
      <point x="726" y="1361" type="line"/>
      <point x="284" y="1361" type="line"/>
      <point x="296" y="1440" type="line"/>
      <point x="839" y="1440" type="line"/>
      <point x="825" y="1361" type="line"/>
      <point x="526" y="1063" type="line"/>
      <point x="663" y="1054"/>
      <point x="776" y="990"/>
      <point x="776" y="834" type="curve" smooth="yes"/>
      <point x="776" y="646"/>
      <point x="642" y="519"/>
    </contour>
  </outline>
</glyph>
<glyph name="questiondown" format="2">
  <advance width="987"/>
  <unicode hex="00BF"/>
  <outline>
    <contour>
      <point x="-82" y="59" type="qcurve" smooth="yes"/>
      <point x="-65" y="162"/>
      <point x="25" y="317"/>
      <point x="95" y="370" type="qcurve" smooth="yes"/>
      <point x="166" y="423"/>
      <point x="350" y="475"/>
      <point x="463" y="475" type="qcurve" smooth="yes"/>
      <point x="504" y="475" type="line"/>
      <point x="490" y="391" type="line"/>
      <point x="449" y="391" type="line" smooth="yes"/>
      <point x="253" y="391"/>
      <point x="29" y="223"/>
      <point x="2" y="58" type="qcurve" smooth="yes"/>
      <point x="-11" y="-21"/>
      <point x="22" y="-155"/>
      <point x="66" y="-203" type="qcurve" smooth="yes"/>
      <point x="110" y="-252"/>
      <point x="244" y="-306"/>
      <point x="333" y="-306" type="qcurve" smooth="yes"/>
      <point x="424" y="-306"/>
      <point x="567" y="-269"/>
      <point x="626" y="-230" type="qcurve" smooth="yes"/>
      <point x="685" y="-191"/>
      <point x="778" y="-71"/>
      <point x="818" y="14" type="qcurve"/>
      <point x="893" y="-2" type="line"/>
      <point x="854" y="-98"/>
      <point x="744" y="-241"/>
      <point x="673" y="-291" type="qcurve" smooth="yes"/>
      <point x="602" y="-341"/>
      <point x="426" y="-390"/>
      <point x="319" y="-390" type="qcurve" smooth="yes"/>
      <point x="212" y="-390"/>
      <point x="49" y="-323"/>
      <point x="-3" y="-263" type="qcurve" smooth="yes"/>
      <point x="-56" y="-203"/>
      <point x="-98" y="-38"/>
    </contour>
    <contour>
      <point x="541" y="700" type="line"/>
      <point x="490" y="391" type="line"/>
      <point x="408" y="391" type="line"/>
      <point x="459" y="700" type="line"/>
    </contour>
    <contour>
      <point x="563" y="1086" type="qcurve" smooth="yes"/>
      <point x="579" y="1086"/>
      <point x="602" y="1076"/>
      <point x="611" y="1065" type="qcurve" smooth="yes"/>
      <point x="620" y="1054"/>
      <point x="626" y="1029"/>
      <point x="623" y="1013" type="qcurve" smooth="yes"/>
      <point x="620" y="997"/>
      <point x="607" y="971"/>
      <point x="594" y="960" type="qcurve" smooth="yes"/>
      <point x="581" y="949"/>
      <point x="554" y="939"/>
      <point x="538" y="939" type="qcurve" smooth="yes"/>
      <point x="522" y="939"/>
      <point x="500" y="949"/>
      <point x="491" y="960" type="qcurve" smooth="yes"/>
      <point x="482" y="971"/>
      <point x="476" y="997"/>
      <point x="478" y="1013" type="qcurve"/>
      <point x="481" y="1029"/>
      <point x="496" y="1054"/>
      <point x="508" y="1065" type="qcurve"/>
      <point x="521" y="1076"/>
      <point x="547" y="1086"/>
    </contour>
  </outline>
</glyph>
<glyph name="Agrave" format="2">
  <advance width="1188"/>
  <unicode hex="00C0"/>
  <outline>
    <contour>
      <point x="808" y="1620" type="line"/>
      <point x="743" y="1620" type="line"/>
      <point x="694" y="1890" type="line"/>
      <point x="788" y="1890" type="line"/>
    </contour>
    <contour>
      <point x="994" y="0" type="line"/>
      <point x="729" y="1402" type="line"/>
      <point x="787" y="1402" type="line"/>
      <point x="56" y="0" type="line"/>
      <point x="-33" y="0" type="line"/>
      <point x="719" y="1440" type="line"/>
      <point x="808" y="1440" type="line"/>
      <point x="1083" y="0" type="line"/>
    </contour>
    <contour>
      <point x="227" y="374" type="line"/>
      <point x="241" y="454" type="line"/>
      <point x="962" y="454" type="line"/>
      <point x="949" y="374" type="line"/>
    </contour>
  </outline>
</glyph>
<glyph name="Aacute" format="2">
  <advance width="1188"/>
  <unicode hex="00C1"/>
  <outline>
    <contour>
      <point x="923" y="1890" type="line"/>
      <point x="1017" y="1890" type="line"/>
      <point x="878" y="1620" type="line"/>
      <point x="814" y="1620" type="line"/>
    </contour>
    <contour>
      <point x="2" y="0" type="line"/>
      <point x="754" y="1440" type="line"/>
      <point x="843" y="1440" type="line"/>
      <point x="1118" y="0" type="line"/>
      <point x="1029" y="0" type="line"/>
      <point x="762" y="1402" type="line"/>
      <point x="821" y="1402" type="line"/>
      <point x="91" y="0" type="line"/>
    </contour>
    <contour>
      <point x="260" y="374" type="line"/>
      <point x="274" y="454" type="line"/>
      <point x="995" y="454" type="line"/>
      <point x="982" y="374" type="line"/>
    </contour>
  </outline>
</glyph>
<glyph name="Acircumflex" format="2">
  <advance width="1188"/>
  <unicode hex="00C2"/>
  <outline>
    <contour>
      <point x="553" y="1620" type="line"/>
      <point x="789" y="1860" type="line"/>
      <point x="879" y="1860" type="line"/>
      <point x="1035" y="1620" type="line"/>
      <point x="937" y="1620" type="line"/>
      <point x="822" y="1790" type="line"/>
      <point x="651" y="1620" type="line"/>
    </contour>
    <contour>
      <point x="-33" y="0" type="line"/>
      <point x="719" y="1440" type="line"/>
      <point x="808" y="1440" type="line"/>
      <point x="1083" y="0" type="line"/>
      <point x="994" y="0" type="line"/>
      <point x="727" y="1402" type="line"/>
      <point x="786" y="1402" type="line"/>
      <point x="56" y="0" type="line"/>
    </contour>
    <contour>
      <point x="225" y="374" type="line"/>
      <point x="239" y="454" type="line"/>
      <point x="960" y="454" type="line"/>
      <point x="947" y="374" type="line"/>
    </contour>
  </outline>
</glyph>
<glyph name="Atilde" format="2">
  <advance width="1188"/>
  <unicode hex="00C3"/>
  <outline>
    <contour>
      <point x="898" y="1670" type="qcurve" smooth="yes"/>
      <point x="860" y="1670"/>
      <point x="791" y="1699"/>
      <point x="759" y="1718" type="qcurve" smooth="yes"/>
      <point x="727" y="1737"/>
      <point x="667" y="1766"/>
      <point x="637" y="1766" type="qcurve" smooth="yes"/>
      <point x="615" y="1766"/>
      <point x="588" y="1751"/>
      <point x="580" y="1737" type="qcurve"/>
      <point x="573" y="1722"/>
      <point x="567" y="1694"/>
      <point x="570" y="1680" type="qcurve"/>
      <point x="500" y="1680" type="line"/>
      <point x="497" y="1715"/>
      <point x="516" y="1773"/>
      <point x="540" y="1798" type="qcurve" smooth="yes"/>
      <point x="563" y="1822"/>
      <point x="618" y="1846"/>
      <point x="652" y="1846" type="qcurve" smooth="yes"/>
      <point x="691" y="1846"/>
      <point x="761" y="1817"/>
      <point x="793" y="1798" type="qcurve" smooth="yes"/>
      <point x="825" y="1779"/>
      <point x="885" y="1750"/>
      <point x="915" y="1750" type="qcurve" smooth="yes"/>
      <point x="952" y="1750"/>
      <point x="989" y="1806"/>
      <point x="983" y="1840" type="qcurve"/>
      <point x="1053" y="1840" type="line"/>
      <point x="1056" y="1806"/>
      <point x="1037" y="1748"/>
      <point x="1014" y="1722" type="qcurve" smooth="yes"/>
      <point x="991" y="1696"/>
      <point x="933" y="1670"/>
    </contour>
    <contour>
      <point x="-73" y="0" type="line"/>
      <point x="679" y="1440" type="line"/>
      <point x="768" y="1440" type="line"/>
      <point x="1043" y="0" type="line"/>
      <point x="954" y="0" type="line"/>
      <point x="687" y="1402" type="line"/>
      <point x="746" y="1402" type="line"/>
      <point x="16" y="0" type="line"/>
    </contour>
    <contour>
      <point x="185" y="374" type="line"/>
      <point x="199" y="454" type="line"/>
      <point x="920" y="454" type="line"/>
      <point x="907" y="374" type="line"/>
    </contour>
  </outline>
</glyph>
<glyph name="Aring" format="2">
  <advance width="1188"/>
  <unicode hex="00C5"/>
  <outline>
    <contour>
      <point x="819" y="1560" type="curve" smooth="yes"/>
      <point x="728" y="1560"/>
      <point x="658" y="1629"/>
      <point x="658" y="1720" type="curve" smooth="yes"/>
      <point x="658" y="1837"/>
      <point x="764" y="1948"/>
      <point x="883" y="1948" type="curve" smooth="yes"/>
      <point x="975" y="1948"/>
      <point x="1044" y="1882"/>
      <point x="1044" y="1789" type="curve" smooth="yes"/>
      <point x="1044" y="1668"/>
      <point x="941" y="1560"/>
    </contour>
    <contour>
      <point x="833" y="1644" type="curve" smooth="yes"/>
      <point x="904" y="1644"/>
      <point x="961" y="1706"/>
      <point x="961" y="1776" type="curve" smooth="yes"/>
      <point x="961" y="1829"/>
      <point x="922" y="1864"/>
      <point x="870" y="1864" type="curve" smooth="yes"/>
      <point x="801" y="1864"/>
      <point x="742" y="1802"/>
      <point x="742" y="1733" type="curve" smooth="yes"/>
      <point x="742" y="1683"/>
      <point x="783" y="1644"/>
    </contour>
    <contour>
      <point x="2" y="0" type="line"/>
      <point x="754" y="1440" type="line"/>
      <point x="843" y="1440" type="line"/>
      <point x="1118" y="0" type="line"/>
      <point x="1029" y="0" type="line"/>
      <point x="762" y="1402" type="line"/>
      <point x="821" y="1402" type="line"/>
      <point x="91" y="0" type="line"/>
    </contour>
    <contour>
      <point x="260" y="374" type="line"/>
      <point x="274" y="454" type="line"/>
      <point x="995" y="454" type="line"/>
      <point x="982" y="374" type="line"/>
    </contour>
  </outline>
</glyph>
<glyph name="AE" format="2">
  <advance width="1759"/>
  <unicode hex="00C6"/>
  <outline>
    <contour>
      <point x="-65" y="0" type="line"/>
      <point x="677" y="1440" type="line"/>
      <point x="977" y="1440" type="line"/>
      <point x="963" y="1356" type="line"/>
      <point x="671" y="1356" type="line"/>
      <point x="741" y="1398" type="line"/>
      <point x="23" y="0" type="line"/>
    </contour>
    <contour>
      <point x="190" y="374" type="line"/>
      <point x="203" y="454" type="line"/>
      <point x="826" y="454" type="line"/>
      <point x="814" y="374" type="line"/>
    </contour>
    <contour>
      <point x="709" y="0" type="line"/>
      <point x="937" y="1440" type="line"/>
      <point x="1800" y="1440" type="line"/>
      <point x="1787" y="1356" type="line"/>
      <point x="1006" y="1356" type="line"/>
      <point x="912" y="762" type="line"/>
      <point x="1575" y="762" type="line"/>
      <point x="1562" y="678" type="line"/>
      <point x="899" y="678" type="line"/>
      <point x="805" y="84" type="line"/>
      <point x="1585" y="84" type="line"/>
      <point x="1572" y="0" type="line"/>
    </contour>
  </outline>
</glyph>
<glyph name="Ccedilla" format="2">
  <advance width="1362"/>
  <unicode hex="00C7"/>
  <outline>
    <contour>
      <point x="505" y="-478" type="curve" smooth="yes"/>
      <point x="466" y="-478"/>
      <point x="427" y="-468"/>
      <point x="392" y="-450" type="curve"/>
      <point x="431" y="-376" type="line"/>
      <point x="456" y="-387"/>
      <point x="484" y="-396"/>
      <point x="512" y="-396" type="curve" smooth="yes"/>
      <point x="573" y="-396"/>
      <point x="621" y="-344"/>
      <point x="621" y="-284" type="curve" smooth="yes"/>
      <point x="621" y="-229"/>
      <point x="551" y="-207"/>
      <point x="507" y="-192" type="curve"/>
      <point x="616" y="14" type="line"/>
      <point x="698" y="14" type="line"/>
      <point x="615" y="-142" type="line"/>
      <point x="670" y="-167"/>
      <point x="709" y="-210"/>
      <point x="709" y="-273" type="curve" smooth="yes"/>
      <point x="709" y="-382"/>
      <point x="615" y="-478"/>
    </contour>
    <contour>
      <point x="589" y="-30" type="curve" smooth="yes"/>
      <point x="233" y="-30"/>
      <point x="63" y="188"/>
      <point x="63" y="531" type="curve" smooth="yes"/>
      <point x="63" y="994"/>
      <point x="324" y="1470"/>
      <point x="837" y="1470" type="curve" smooth="yes"/>
      <point x="1148" y="1470"/>
      <point x="1336" y="1300"/>
      <point x="1359" y="988" type="curve"/>
      <point x="1269" y="968" type="line"/>
      <point x="1247" y="1237"/>
      <point x="1095" y="1386"/>
      <point x="823" y="1386" type="curve" smooth="yes"/>
      <point x="367" y="1386"/>
      <point x="152" y="938"/>
      <point x="152" y="536" type="curve" smooth="yes"/>
      <point x="152" y="245"/>
      <point x="302" y="54"/>
      <point x="603" y="54" type="curve" smooth="yes"/>
      <point x="884" y="54"/>
      <point x="1084" y="218"/>
      <point x="1187" y="472" type="curve"/>
      <point x="1270" y="452" type="line"/>
      <point x="1149" y="156"/>
      <point x="915" y="-30"/>
    </contour>
  </outline>
</glyph>
<glyph name="Egrave" format="2">
  <advance width="1080"/>
  <unicode hex="00C8"/>
  <outline>
    <contour>
      <point x="832" y="1890" type="line"/>
      <point x="852" y="1620" type="line"/>
      <point x="787" y="1620" type="line"/>
      <point x="738" y="1890" type="line"/>
    </contour>
    <contour>
      <point x="93" y="0" type="line"/>
      <point x="332" y="1440" type="line"/>
      <point x="1194" y="1440" type="line"/>
      <point x="1180" y="1356" type="line"/>
      <point x="400" y="1356" type="line"/>
      <point x="302" y="762" type="line"/>
      <point x="964" y="762" type="line"/>
      <point x="950" y="678" type="line"/>
      <point x="288" y="678" type="line"/>
      <point x="190" y="84" type="line"/>
      <point x="970" y="84" type="line"/>
      <point x="956" y="0" type="line"/>
    </contour>
  </outline>
</glyph>
<glyph name="Eacute" format="2">
  <advance width="1080"/>
  <unicode hex="00C9"/>
  <outline>
    <contour>
      <point x="867" y="1890" type="line"/>
      <point x="961" y="1890" type="line"/>
      <point x="822" y="1620" type="line"/>
      <point x="758" y="1620" type="line"/>
    </contour>
    <contour>
      <point x="58" y="0" type="line"/>
      <point x="297" y="1440" type="line"/>
      <point x="1159" y="1440" type="line"/>
      <point x="1145" y="1356" type="line"/>
      <point x="365" y="1356" type="line"/>
      <point x="267" y="762" type="line"/>
      <point x="929" y="762" type="line"/>
      <point x="915" y="678" type="line"/>
      <point x="253" y="678" type="line"/>
      <point x="155" y="84" type="line"/>
      <point x="935" y="84" type="line"/>
      <point x="921" y="0" type="line"/>
    </contour>
  </outline>
</glyph>
<glyph name="Ecircumflex" format="2">
  <advance width="1080"/>
  <unicode hex="00CA"/>
  <outline>
    <contour>
      <point x="467" y="1620" type="line"/>
      <point x="703" y="1860" type="line"/>
      <point x="793" y="1860" type="line"/>
      <point x="949" y="1620" type="line"/>
      <point x="851" y="1620" type="line"/>
      <point x="736" y="1790" type="line"/>
      <point x="565" y="1620" type="line"/>
    </contour>
    <contour>
      <point x="18" y="0" type="line"/>
      <point x="257" y="1440" type="line"/>
      <point x="1119" y="1440" type="line"/>
      <point x="1105" y="1356" type="line"/>
      <point x="325" y="1356" type="line"/>
      <point x="227" y="762" type="line"/>
      <point x="889" y="762" type="line"/>
      <point x="875" y="678" type="line"/>
      <point x="213" y="678" type="line"/>
      <point x="115" y="84" type="line"/>
      <point x="895" y="84" type="line"/>
      <point x="881" y="0" type="line"/>
    </contour>
  </outline>
</glyph>
<glyph name="Igrave" format="2">
  <advance width="380"/>
  <unicode hex="00CC"/>
  <outline>
    <contour>
      <point x="393" y="1890" type="line"/>
      <point x="413" y="1620" type="line"/>
      <point x="348" y="1620" type="line"/>
      <point x="298" y="1890" type="line"/>
    </contour>
    <contour>
      <point x="84" y="0" type="line"/>
      <point x="322" y="1440" type="line"/>
      <point x="404" y="1440" type="line"/>
      <point x="166" y="0" type="line"/>
    </contour>
  </outline>
</glyph>
<glyph name="Iacute" format="2">
  <advance width="380"/>
  <unicode hex="00CD"/>
  <outline>
    <contour>
      <point x="476" y="1890" type="line"/>
      <point x="570" y="1890" type="line"/>
      <point x="431" y="1620" type="line"/>
      <point x="366" y="1620" type="line"/>
    </contour>
    <contour>
      <point x="77" y="0" type="line"/>
      <point x="315" y="1440" type="line"/>
      <point x="397" y="1440" type="line"/>
      <point x="159" y="0" type="line"/>
    </contour>
  </outline>
</glyph>
<glyph name="Icircumflex" format="2">
  <advance width="402"/>
  <unicode hex="00CE"/>
  <outline>
    <contour>
      <point x="134" y="1620" type="line"/>
      <point x="370" y="1860" type="line"/>
      <point x="460" y="1860" type="line"/>
      <point x="616" y="1620" type="line"/>
      <point x="518" y="1620" type="line"/>
      <point x="403" y="1790" type="line"/>
      <point x="232" y="1620" type="line"/>
    </contour>
    <contour>
      <point x="66" y="0" type="line"/>
      <point x="304" y="1440" type="line"/>
      <point x="387" y="1440" type="line"/>
      <point x="148" y="0" type="line"/>
    </contour>
  </outline>
</glyph>
<glyph name="Eth" format="2">
  <advance width="1249"/>
  <unicode hex="00D0"/>
  <outline>
    <contour>
      <point x="21" y="678" type="line"/>
      <point x="35" y="762" type="line"/>
      <point x="623" y="762" type="line"/>
      <point x="609" y="678" type="line"/>
    </contour>
    <contour>
      <point x="5" y="0" type="line"/>
      <point x="244" y="1440" type="line"/>
      <point x="690" y="1440" type="line" smooth="yes"/>
      <point x="1034" y="1440"/>
      <point x="1204" y="1285"/>
      <point x="1204" y="919" type="curve" smooth="yes"/>
      <point x="1204" y="393"/>
      <point x="958" y="0"/>
      <point x="419" y="0" type="curve" smooth="yes"/>
    </contour>
    <contour>
      <point x="107" y="84" type="line"/>
      <point x="433" y="84" type="line" smooth="yes"/>
      <point x="921" y="84"/>
      <point x="1116" y="445"/>
      <point x="1116" y="911" type="curve" smooth="yes"/>
      <point x="1116" y="1245"/>
      <point x="963" y="1356"/>
      <point x="643" y="1356" type="curve" smooth="yes"/>
      <point x="318" y="1356" type="line"/>
    </contour>
  </outline>
</glyph>
<glyph name="Ntilde" format="2">
  <advance width="1277"/>
  <unicode hex="00D1"/>
  <outline>
    <contour>
      <point x="978" y="1620" type="curve" smooth="yes"/>
      <point x="873" y="1620"/>
      <point x="801" y="1716"/>
      <point x="717" y="1716" type="curve" smooth="yes"/>
      <point x="667" y="1716"/>
      <point x="645" y="1676"/>
      <point x="650" y="1630" type="curve"/>
      <point x="580" y="1630" type="line"/>
      <point x="579" y="1638"/>
      <point x="579" y="1646"/>
      <point x="580" y="1654" type="curve"/>
      <point x="585" y="1735"/>
      <point x="646" y="1796"/>
      <point x="733" y="1796" type="curve" smooth="yes"/>
      <point x="839" y="1796"/>
      <point x="913" y="1700"/>
      <point x="995" y="1700" type="curve" smooth="yes"/>
      <point x="1045" y="1700"/>
      <point x="1070" y="1744"/>
      <point x="1063" y="1790" type="curve"/>
      <point x="1133" y="1790" type="line"/>
      <point x="1134" y="1782"/>
      <point x="1133" y="1775"/>
      <point x="1133" y="1767" type="curve"/>
      <point x="1128" y="1685"/>
      <point x="1065" y="1620"/>
    </contour>
    <contour>
      <point x="33" y="0" type="line"/>
      <point x="272" y="1440" type="line"/>
      <point x="354" y="1440" type="line"/>
      <point x="999" y="150" type="line"/>
      <point x="1213" y="1440" type="line"/>
      <point x="1295" y="1440" type="line"/>
      <point x="1057" y="0" type="line"/>
      <point x="974" y="0" type="line"/>
      <point x="330" y="1292" type="line"/>
      <point x="116" y="0" type="line"/>
    </contour>
  </outline>
</glyph>
<glyph name="Oacute" format="2">
  <advance width="1375"/>
  <unicode hex="00D3"/>
  <outline>
    <contour>
      <point x="996" y="1890" type="line"/>
      <point x="1090" y="1890" type="line"/>
      <point x="952" y="1620" type="line"/>
      <point x="887" y="1620" type="line"/>
    </contour>
    <contour>
      <point x="614" y="-30" type="curve" smooth="yes"/>
      <point x="258" y="-30"/>
      <point x="88" y="188"/>
      <point x="88" y="531" type="curve" smooth="yes"/>
      <point x="88" y="994"/>
      <point x="349" y="1470"/>
      <point x="862" y="1470" type="curve" smooth="yes"/>
      <point x="1216" y="1470"/>
      <point x="1388" y="1255"/>
      <point x="1388" y="913" type="curve" smooth="yes"/>
      <point x="1388" y="448"/>
      <point x="1131" y="-30"/>
    </contour>
    <contour>
      <point x="628" y="54" type="curve" smooth="yes"/>
      <point x="1081" y="54"/>
      <point x="1298" y="493"/>
      <point x="1298" y="894" type="curve" smooth="yes"/>
      <point x="1298" y="1188"/>
      <point x="1158" y="1386"/>
      <point x="848" y="1386" type="curve" smooth="yes"/>
      <point x="392" y="1386"/>
      <point x="177" y="938"/>
      <point x="177" y="536" type="curve" smooth="yes"/>
      <point x="177" y="245"/>
      <point x="327" y="54"/>
    </contour>
  </outline>
</glyph>
<glyph name="multiply" format="2">
  <advance width="914"/>
  <unicode hex="00D7"/>
  <outline>
    <contour>
      <point x="713" y="364" type="line"/>
      <point x="472" y="660" type="line"/>
      <point x="133" y="364" type="line"/>
      <point x="85" y="424" type="line"/>
      <point x="424" y="719" type="line"/>
      <point x="183" y="1015" type="line"/>
      <point x="251" y="1074" type="line"/>
      <point x="492" y="778" type="line"/>
      <point x="831" y="1074" type="line"/>
      <point x="879" y="1015" type="line"/>
      <point x="540" y="719" type="line"/>
      <point x="781" y="424" type="line"/>
    </contour>
  </outline>
</glyph>
<glyph name="Oslash" format="2">
  <advance width="1382"/>
  <unicode hex="00D8"/>
  <outline>
    <contour>
      <point x="-28" y="-26" type="line"/>
      <point x="-80" y="32" type="line"/>
      <point x="142" y="237" type="line"/>
      <point x="187" y="278" type="line"/>
      <point x="1227" y="1239" type="line"/>
      <point x="1259" y="1269" type="line"/>
      <point x="1465" y="1459" type="line"/>
      <point x="1517" y="1404" type="line"/>
      <point x="1292" y="1196" type="line"/>
      <point x="1259" y="1165" type="line"/>
      <point x="224" y="207" type="line"/>
      <point x="184" y="170" type="line"/>
    </contour>
    <contour>
      <point x="592" y="-30" type="curve" smooth="yes"/>
      <point x="239" y="-30"/>
      <point x="66" y="186"/>
      <point x="66" y="527" type="curve" smooth="yes"/>
      <point x="66" y="993"/>
      <point x="324" y="1470"/>
      <point x="841" y="1470" type="curve" smooth="yes"/>
      <point x="1197" y="1470"/>
      <point x="1366" y="1252"/>
      <point x="1366" y="909" type="curve" smooth="yes"/>
      <point x="1366" y="445"/>
      <point x="1106" y="-30"/>
    </contour>
    <contour>
      <point x="606" y="54" type="curve" smooth="yes"/>
      <point x="1066" y="54"/>
      <point x="1277" y="499"/>
      <point x="1277" y="904" type="curve" smooth="yes"/>
      <point x="1277" y="1195"/>
      <point x="1129" y="1386"/>
      <point x="827" y="1386" type="curve" smooth="yes"/>
      <point x="372" y="1386"/>
      <point x="155" y="938"/>
      <point x="155" y="536" type="curve" smooth="yes"/>
      <point x="155" y="245"/>
      <point x="305" y="54"/>
    </contour>
  </outline>
</glyph>
<glyph name="Ugrave" format="2">
  <advance width="1332"/>
  <unicode hex="00D9"/>
  <outline>
    <contour>
      <point x="925" y="1890" type="line"/>
      <point x="945" y="1620" type="line"/>
      <point x="880" y="1620" type="line"/>
      <point x="831" y="1890" type="line"/>
    </contour>
    <contour>
      <point x="627" y="-30" type="qcurve" smooth="yes"/>
      <point x="548" y="-30"/>
      <point x="416" y="3"/>
      <point x="360" y="37" type="qcurve" smooth="yes"/>
      <point x="249" y="104"/>
      <point x="151" y="346"/>
      <point x="178" y="510" type="qcurve" smooth="yes"/>
      <point x="332" y="1440" type="line"/>
      <point x="414" y="1440" type="line"/>
      <point x="265" y="538" type="line" smooth="yes"/>
      <point x="243" y="405"/>
      <point x="300" y="218"/>
      <point x="360" y="161" type="qcurve" smooth="yes"/>
      <point x="421" y="103"/>
      <point x="570" y="50"/>
      <point x="641" y="50" type="qcurve" smooth="yes"/>
      <point x="712" y="50"/>
      <point x="878" y="103"/>
      <point x="958" y="161" type="qcurve" smooth="yes"/>
      <point x="1037" y="218"/>
      <point x="1156" y="405"/>
      <point x="1178" y="538" type="qcurve" smooth="yes"/>
      <point x="1327" y="1440" type="line"/>
      <point x="1410" y="1440" type="line"/>
      <point x="1256" y="510" type="line" smooth="yes"/>
      <point x="1243" y="429"/>
      <point x="1184" y="288"/>
      <point x="1139" y="227" type="qcurve" smooth="yes"/>
      <point x="1048" y="105"/>
      <point x="785" y="-30"/>
    </contour>
  </outline>
</glyph>
<glyph name="Uacute" format="2">
  <advance width="1332"/>
  <unicode hex="00DA"/>
  <outline>
    <contour>
      <point x="931" y="1890" type="line"/>
      <point x="1025" y="1890" type="line"/>
      <point x="886" y="1620" type="line"/>
      <point x="821" y="1620" type="line"/>
    </contour>
    <contour>
      <point x="592" y="-30" type="qcurve" smooth="yes"/>
      <point x="513" y="-30"/>
      <point x="381" y="3"/>
      <point x="325" y="37" type="qcurve" smooth="yes"/>
      <point x="214" y="104"/>
      <point x="116" y="346"/>
      <point x="143" y="510" type="qcurve" smooth="yes"/>
      <point x="297" y="1440" type="line"/>
      <point x="379" y="1440" type="line"/>
      <point x="230" y="538" type="line" smooth="yes"/>
      <point x="208" y="405"/>
      <point x="265" y="218"/>
      <point x="325" y="161" type="qcurve" smooth="yes"/>
      <point x="386" y="103"/>
      <point x="535" y="50"/>
      <point x="606" y="50" type="qcurve" smooth="yes"/>
      <point x="677" y="50"/>
      <point x="843" y="103"/>
      <point x="923" y="161" type="qcurve" smooth="yes"/>
      <point x="1002" y="218"/>
      <point x="1121" y="405"/>
      <point x="1143" y="538" type="qcurve" smooth="yes"/>
      <point x="1292" y="1440" type="line"/>
      <point x="1375" y="1440" type="line"/>
      <point x="1221" y="510" type="line" smooth="yes"/>
      <point x="1208" y="429"/>
      <point x="1149" y="288"/>
      <point x="1104" y="227" type="qcurve" smooth="yes"/>
      <point x="1013" y="105"/>
      <point x="750" y="-30"/>
    </contour>
  </outline>
</glyph>
<glyph name="Udieresis" format="2">
  <advance width="1332"/>
  <unicode hex="00DC"/>
  <outline>
    <contour>
      <point x="672" y="1667" type="qcurve" smooth="yes"/>
      <point x="656" y="1667"/>
      <point x="634" y="1678"/>
      <point x="625" y="1689" type="qcurve" smooth="yes"/>
      <point x="616" y="1700"/>
      <point x="609" y="1725"/>
      <point x="612" y="1740" type="qcurve" smooth="yes"/>
      <point x="615" y="1756"/>
      <point x="629" y="1782"/>
      <point x="642" y="1793" type="qcurve" smooth="yes"/>
      <point x="655" y="1804"/>
      <point x="681" y="1814"/>
      <point x="696" y="1814" type="qcurve" smooth="yes"/>
      <point x="712" y="1814"/>
      <point x="736" y="1804"/>
      <point x="745" y="1793" type="qcurve" smooth="yes"/>
      <point x="754" y="1782"/>
      <point x="759" y="1756"/>
      <point x="757" y="1740" type="qcurve"/>
      <point x="754" y="1724"/>
      <point x="740" y="1699"/>
      <point x="727" y="1688" type="qcurve" smooth="yes"/>
      <point x="714" y="1677"/>
      <point x="688" y="1667"/>
    </contour>
    <contour>
      <point x="1025" y="1667" type="qcurve" smooth="yes"/>
      <point x="1009" y="1667"/>
      <point x="986" y="1678"/>
      <point x="977" y="1689" type="qcurve" smooth="yes"/>
      <point x="968" y="1700"/>
      <point x="962" y="1725"/>
      <point x="964" y="1740" type="qcurve"/>
      <point x="967" y="1756"/>
      <point x="982" y="1782"/>
      <point x="995" y="1793" type="qcurve" smooth="yes"/>
      <point x="1008" y="1804"/>
      <point x="1033" y="1814"/>
      <point x="1049" y="1814" type="qcurve" smooth="yes"/>
      <point x="1065" y="1814"/>
      <point x="1089" y="1804"/>
      <point x="1098" y="1793" type="qcurve" smooth="yes"/>
      <point x="1107" y="1782"/>
      <point x="1112" y="1756"/>
      <point x="1109" y="1740" type="qcurve" smooth="yes"/>
      <point x="1106" y="1724"/>
      <point x="1093" y="1699"/>
      <point x="1080" y="1688" type="qcurve" smooth="yes"/>
      <point x="1067" y="1677"/>
      <point x="1041" y="1667"/>
    </contour>
    <contour>
      <point x="567" y="-30" type="qcurve" smooth="yes"/>
      <point x="488" y="-30"/>
      <point x="356" y="3"/>
      <point x="300" y="37" type="qcurve" smooth="yes"/>
      <point x="189" y="104"/>
      <point x="91" y="346"/>
      <point x="118" y="510" type="qcurve" smooth="yes"/>
      <point x="272" y="1440" type="line"/>
      <point x="354" y="1440" type="line"/>
      <point x="205" y="538" type="line" smooth="yes"/>
      <point x="183" y="405"/>
      <point x="240" y="218"/>
      <point x="300" y="161" type="qcurve" smooth="yes"/>
      <point x="361" y="103"/>
      <point x="510" y="50"/>
      <point x="581" y="50" type="qcurve" smooth="yes"/>
      <point x="652" y="50"/>
      <point x="818" y="103"/>
      <point x="898" y="161" type="qcurve" smooth="yes"/>
      <point x="977" y="218"/>
      <point x="1096" y="405"/>
      <point x="1118" y="538" type="qcurve" smooth="yes"/>
      <point x="1267" y="1440" type="line"/>
      <point x="1350" y="1440" type="line"/>
      <point x="1196" y="510" type="line" smooth="yes"/>
      <point x="1183" y="429"/>
      <point x="1124" y="288"/>
      <point x="1079" y="227" type="qcurve" smooth="yes"/>
      <point x="988" y="105"/>
      <point x="725" y="-30"/>
    </contour>
  </outline>
</glyph>
<glyph name="Yacute" format="2">
  <advance width="1017"/>
  <unicode hex="00DD"/>
  <outline>
    <contour>
      <point x="743" y="1890" type="line"/>
      <point x="837" y="1890" type="line"/>
      <point x="698" y="1620" type="line"/>
      <point x="634" y="1620" type="line"/>
    </contour>
    <contour>
      <point x="374" y="0" type="line"/>
      <point x="476" y="612" type="line"/>
      <point x="144" y="1440" type="line"/>
      <point x="238" y="1440" type="line"/>
      <point x="533" y="708" type="line"/>
      <point x="1068" y="1440" type="line"/>
      <point x="1162" y="1440" type="line"/>
      <point x="558" y="612" type="line"/>
      <point x="457" y="0" type="line"/>
    </contour>
  </outline>
</glyph>
<glyph name="Thorn" format="2">
  <advance width="1105"/>
  <unicode hex="00DE"/>
  <outline>
    <contour>
      <point x="33" y="0" type="line"/>
      <point x="272" y="1440" type="line"/>
      <point x="354" y="1440" type="line"/>
      <point x="306" y="1152" type="line"/>
      <point x="724" y="1152" type="line" smooth="yes"/>
      <point x="763" y="1152"/>
      <point x="835" y="1137"/>
      <point x="870" y="1122" type="qcurve" smooth="yes"/>
      <point x="906" y="1107"/>
      <point x="970" y="1061"/>
      <point x="994" y="1032" type="qcurve"/>
      <point x="1049" y="972"/>
      <point x="1090" y="808"/>
      <point x="1076" y="720" type="qcurve" smooth="yes"/>
      <point x="1063" y="639"/>
      <point x="979" y="490"/>
      <point x="916" y="430" type="qcurve" smooth="yes"/>
      <point x="882" y="397"/>
      <point x="804" y="345"/>
      <point x="759" y="326" type="qcurve" smooth="yes"/>
      <point x="714" y="307"/>
      <point x="625" y="288"/>
      <point x="581" y="288" type="qcurve" smooth="yes"/>
      <point x="163" y="288" type="line"/>
      <point x="116" y="0" type="line"/>
    </contour>
    <contour>
      <point x="177" y="372" type="line"/>
      <point x="595" y="372" type="line" smooth="yes"/>
      <point x="669" y="372"/>
      <point x="814" y="439"/>
      <point x="870" y="496" type="qcurve" smooth="yes"/>
      <point x="916" y="544"/>
      <point x="979" y="659"/>
      <point x="988" y="720" type="qcurve" smooth="yes"/>
      <point x="999" y="792"/>
      <point x="967" y="921"/>
      <point x="925" y="970" type="qcurve" smooth="yes"/>
      <point x="888" y="1015"/>
      <point x="775" y="1068"/>
      <point x="710" y="1068" type="qcurve" smooth="yes"/>
      <point x="293" y="1068" type="line"/>
    </contour>
  </outline>
</glyph>
<glyph name="germandbls" format="2">
  <advance width="1088"/>
  <unicode hex="00DF"/>
  <outline>
    <contour>
      <point x="437" y="-28" type="curve" smooth="yes"/>
      <point x="379" y="-28"/>
      <point x="320" y="-24"/>
      <point x="267" y="0" type="curve"/>
      <point x="281" y="84" type="line"/>
      <point x="338" y="63"/>
      <point x="391" y="58"/>
      <point x="451" y="58" type="curve" smooth="yes"/>
      <point x="679" y="58"/>
      <point x="856" y="229"/>
      <point x="856" y="459" type="curve" smooth="yes"/>
      <point x="856" y="655"/>
      <point x="670" y="724"/>
      <point x="503" y="728" type="curve"/>
      <point x="517" y="812" type="line"/>
      <point x="713" y="839"/>
      <point x="847" y="964"/>
      <point x="847" y="1169" type="curve" smooth="yes"/>
      <point x="847" y="1315"/>
      <point x="755" y="1386"/>
      <point x="614" y="1386" type="curve" smooth="yes"/>
      <point x="394" y="1386"/>
      <point x="310" y="1237"/>
      <point x="278" y="1042" type="curve" smooth="yes"/>
      <point x="106" y="0" type="line"/>
      <point x="18" y="0" type="line"/>
      <point x="195" y="1064" type="line" smooth="yes"/>
      <point x="235" y="1303"/>
      <point x="369" y="1470"/>
      <point x="626" y="1470" type="curve" smooth="yes"/>
      <point x="810" y="1470"/>
      <point x="934" y="1379"/>
      <point x="934" y="1186" type="curve" smooth="yes"/>
      <point x="934" y="1019"/>
      <point x="850" y="829"/>
      <point x="675" y="784" type="curve"/>
      <point x="828" y="777"/>
      <point x="944" y="623"/>
      <point x="944" y="477" type="curve" smooth="yes"/>
      <point x="944" y="183"/>
      <point x="729" y="-28"/>
    </contour>
  </outline>
</glyph>
<glyph name="agrave" format="2">
  <advance width="1131"/>
  <unicode hex="00E0"/>
  <outline>
    <component base="a" xOffset="1"/>
    <contour>
      <point x="650" y="1530" type="line"/>
      <point x="668" y="1260" type="line"/>
      <point x="605" y="1260" type="line"/>
      <point x="559" y="1530" type="line"/>
    </contour>
  </outline>
</glyph>
<glyph name="aacute" format="2">
  <advance width="1131"/>
  <unicode hex="00E1"/>
  <outline>
    <component base="a" xOffset="1"/>
    <contour>
      <point x="725" y="1530" type="line"/>
      <point x="816" y="1530" type="line"/>
      <point x="680" y="1260" type="line"/>
      <point x="617" y="1260" type="line"/>
    </contour>
  </outline>
</glyph>
<glyph name="acircumflex" format="2">
  <advance width="1131"/>
  <unicode hex="00E2"/>
  <outline>
    <component base="a"/>
    <contour>
      <point x="445" y="1260" type="line"/>
      <point x="677" y="1500" type="line"/>
      <point x="765" y="1500" type="line"/>
      <point x="918" y="1260" type="line"/>
      <point x="822" y="1260" type="line"/>
      <point x="710" y="1430" type="line"/>
      <point x="541" y="1260" type="line"/>
    </contour>
  </outline>
</glyph>
<glyph name="atilde" format="2">
  <advance width="1131"/>
  <unicode hex="00E3"/>
  <outline>
    <component base="a" xOffset="1"/>
    <contour>
      <point x="819" y="1260" type="curve" smooth="yes"/>
      <point x="716" y="1260"/>
      <point x="647" y="1356"/>
      <point x="565" y="1356" type="curve" smooth="yes"/>
      <point x="514" y="1356"/>
      <point x="495" y="1316"/>
      <point x="499" y="1270" type="curve"/>
      <point x="431" y="1270" type="line"/>
      <point x="431" y="1278"/>
      <point x="431" y="1285"/>
      <point x="431" y="1292" type="curve"/>
      <point x="435" y="1373"/>
      <point x="495" y="1436"/>
      <point x="581" y="1436" type="curve" smooth="yes"/>
      <point x="686" y="1436"/>
      <point x="757" y="1340"/>
      <point x="837" y="1340" type="curve" smooth="yes"/>
      <point x="888" y="1340"/>
      <point x="908" y="1385"/>
      <point x="904" y="1430" type="curve"/>
      <point x="972" y="1430" type="line"/>
      <point x="973" y="1422"/>
      <point x="973" y="1414"/>
      <point x="972" y="1406" type="curve"/>
      <point x="966" y="1326"/>
      <point x="905" y="1260"/>
    </contour>
  </outline>
</glyph>
<glyph name="aring" format="2">
  <advance width="1013"/>
  <unicode hex="00E5"/>
  <outline>
    <contour>
      <point x="591" y="1200" type="qcurve" smooth="yes"/>
      <point x="557" y="1200"/>
      <point x="500" y="1225"/>
      <point x="459" y="1268"/>
      <point x="436" y="1326"/>
      <point x="436" y="1359" type="qcurve" smooth="yes"/>
      <point x="436" y="1402"/>
      <point x="470" y="1484"/>
      <point x="529" y="1549"/>
      <point x="608" y="1588"/>
      <point x="653" y="1588" type="qcurve" smooth="yes"/>
      <point x="688" y="1588"/>
      <point x="745" y="1563"/>
      <point x="786" y="1519"/>
      <point x="809" y="1460"/>
      <point x="809" y="1426" type="qcurve" smooth="yes"/>
      <point x="809" y="1383"/>
      <point x="774" y="1301"/>
      <point x="714" y="1238"/>
      <point x="635" y="1200"/>
    </contour>
    <contour>
      <point x="605" y="1284" type="qcurve" smooth="yes"/>
      <point x="631" y="1284"/>
      <point x="676" y="1306"/>
      <point x="710" y="1342"/>
      <point x="729" y="1388"/>
      <point x="729" y="1413" type="qcurve" smooth="yes"/>
      <point x="729" y="1452"/>
      <point x="679" y="1504"/>
      <point x="640" y="1504" type="qcurve" smooth="yes"/>
      <point x="615" y="1504"/>
      <point x="569" y="1482"/>
      <point x="536" y="1446"/>
      <point x="516" y="1400"/>
      <point x="516" y="1375" type="qcurve" smooth="yes"/>
      <point x="516" y="1337"/>
      <point x="566" y="1284"/>
    </contour>
    <contour>
      <point x="360" y="-30" type="qcurve" smooth="yes"/>
      <point x="293" y="-30"/>
      <point x="174" y="4"/>
      <point x="84" y="74"/>
      <point x="32" y="180"/>
      <point x="32" y="253" type="qcurve" smooth="yes"/>
      <point x="32" y="342"/>
      <point x="91" y="463"/>
      <point x="191" y="544"/>
      <point x="321" y="591"/>
      <point x="392" y="605" type="qcurve"/>
      <point x="427" y="613"/>
      <point x="499" y="623"/>
      <point x="534" y="628" type="qcurve" smooth="yes"/>
      <point x="615" y="639"/>
      <point x="774" y="657"/>
      <point x="854" y="668" type="qcurve"/>
      <point x="824" y="648" type="line"/>
      <point x="827" y="671"/>
      <point x="830" y="718"/>
      <point x="830" y="741" type="qcurve" smooth="yes"/>
      <point x="830" y="816"/>
      <point x="796" y="924"/>
      <point x="726" y="993"/>
      <point x="617" y="1026"/>
      <point x="542" y="1026" type="qcurve" smooth="yes"/>
      <point x="412" y="1026"/>
      <point x="245" y="902"/>
      <point x="203" y="780" type="qcurve"/>
      <point x="119" y="804" type="line"/>
      <point x="143" y="881"/>
      <point x="225" y="996"/>
      <point x="336" y="1072"/>
      <point x="474" y="1110"/>
      <point x="553" y="1110" type="qcurve" smooth="yes"/>
      <point x="617" y="1110"/>
      <point x="723" y="1086"/>
      <point x="805" y="1039"/>
      <point x="866" y="969"/>
      <point x="885" y="924" type="qcurve" smooth="yes"/>
      <point x="902" y="884"/>
      <point x="919" y="788"/>
      <point x="919" y="732" type="qcurve" smooth="yes"/>
      <point x="919" y="718"/>
      <point x="917" y="690"/>
      <point x="915" y="676" type="qcurve" smooth="yes"/>
      <point x="808" y="0" type="line"/>
      <point x="735" y="0" type="line"/>
      <point x="782" y="296" type="line"/>
      <point x="836" y="294" type="line"/>
      <point x="809" y="216"/>
      <point x="714" y="95"/>
      <point x="590" y="13"/>
      <point x="441" y="-30"/>
    </contour>
    <contour>
      <point x="363" y="54" type="qcurve" smooth="yes"/>
      <point x="431" y="54"/>
      <point x="548" y="84"/>
      <point x="644" y="142"/>
      <point x="721" y="226"/>
      <point x="748" y="279" type="qcurve" smooth="yes"/>
      <point x="763" y="308"/>
      <point x="787" y="373"/>
      <point x="795" y="408" type="qcurve" smooth="yes"/>
      <point x="807" y="460"/>
      <point x="817" y="566"/>
      <point x="821" y="620" type="qcurve"/>
      <point x="860" y="586" type="line"/>
      <point x="777" y="578"/>
      <point x="613" y="562"/>
      <point x="530" y="551" type="qcurve" smooth="yes"/>
      <point x="485" y="545"/>
      <point x="386" y="528"/>
      <point x="291" y="499"/>
      <point x="206" y="455"/>
      <point x="175" y="422" type="qcurve" smooth="yes"/>
      <point x="147" y="393"/>
      <point x="115" y="314"/>
      <point x="115" y="263" type="qcurve" smooth="yes"/>
      <point x="115" y="250"/>
      <point x="117" y="228"/>
      <point x="119" y="217" type="qcurve" smooth="yes"/>
      <point x="127" y="174"/>
      <point x="171" y="112"/>
      <point x="236" y="72"/>
      <point x="318" y="54"/>
    </contour>
  </outline>
</glyph>
<glyph name="ae" format="2">
  <advance width="1806"/>
  <unicode hex="00E6"/>
  <outline>
    <contour>
      <point x="1189" y="-30" type="curve" smooth="yes"/>
      <point x="933" y="-30"/>
      <point x="821" y="152"/>
      <point x="821" y="389" type="curve" smooth="yes"/>
      <point x="821" y="723"/>
      <point x="1001" y="1110"/>
      <point x="1382" y="1110" type="curve" smooth="yes"/>
      <point x="1642" y="1110"/>
      <point x="1741" y="929"/>
      <point x="1741" y="692" type="curve" smooth="yes"/>
      <point x="1741" y="633"/>
      <point x="1735" y="574"/>
      <point x="1725" y="516" type="curve"/>
      <point x="1643" y="516" type="line"/>
      <point x="1651" y="569"/>
      <point x="1657" y="623"/>
      <point x="1657" y="677" type="curve" smooth="yes"/>
      <point x="1657" y="877"/>
      <point x="1585" y="1026"/>
      <point x="1364" y="1026" type="curve" smooth="yes"/>
      <point x="1039" y="1026"/>
      <point x="903" y="678"/>
      <point x="903" y="401" type="curve" smooth="yes"/>
      <point x="903" y="203"/>
      <point x="988" y="54"/>
      <point x="1203" y="54" type="curve" smooth="yes"/>
      <point x="1380" y="54"/>
      <point x="1512" y="151"/>
      <point x="1601" y="298" type="curve"/>
      <point x="1657" y="258" type="line"/>
      <point x="1560" y="86"/>
      <point x="1389" y="-30"/>
    </contour>
    <contour>
      <point x="342" y="54" type="curve" smooth="yes"/>
      <point x="640" y="54"/>
      <point x="811" y="281"/>
      <point x="838" y="560" type="curve"/>
      <point x="835" y="520" type="line"/>
      <point x="500" y="520" type="line" smooth="yes"/>
      <point x="305" y="520"/>
      <point x="105" y="481"/>
      <point x="105" y="239" type="curve" smooth="yes"/>
      <point x="105" y="101"/>
      <point x="222" y="54"/>
    </contour>
    <contour>
      <point x="340" y="-30" type="curve" smooth="yes"/>
      <point x="174" y="-30"/>
      <point x="22" y="38"/>
      <point x="22" y="227" type="curve" smooth="yes"/>
      <point x="22" y="524"/>
      <point x="261" y="600"/>
      <point x="513" y="600" type="curve" smooth="yes"/>
      <point x="847" y="600" type="line"/>
      <point x="843" y="588" type="line"/>
      <point x="855" y="645"/>
      <point x="863" y="702"/>
      <point x="863" y="760" type="curve" smooth="yes"/>
      <point x="863" y="942"/>
      <point x="785" y="1026"/>
      <point x="602" y="1026" type="curve" smooth="yes"/>
      <point x="432" y="1026"/>
      <point x="299" y="955"/>
      <point x="234" y="794" type="curve"/>
      <point x="155" y="822" type="line"/>
      <point x="230" y="1018"/>
      <point x="412" y="1110"/>
      <point x="615" y="1110" type="curve" smooth="yes"/>
      <point x="834" y="1110"/>
      <point x="949" y="1002"/>
      <point x="949" y="782" type="curve" smooth="yes"/>
      <point x="949" y="748"/>
      <point x="946" y="709"/>
      <point x="938" y="676" type="curve" smooth="yes"/>
      <point x="851" y="300" type="line" smooth="yes"/>
      <point x="846" y="280"/>
      <point x="799" y="206"/>
      <point x="786" y="186" type="curve"/>
      <point x="683" y="42"/>
      <point x="514" y="-30"/>
    </contour>
    <contour>
      <point x="879" y="516" type="line"/>
      <point x="893" y="600" type="line"/>
      <point x="1691" y="600" type="line"/>
      <point x="1677" y="516" type="line"/>
    </contour>
  </outline>
</glyph>
<glyph name="ccedilla" format="2">
  <advance width="1025"/>
  <unicode hex="00E7"/>
  <outline>
    <contour>
      <point x="302" y="-478" type="curve" smooth="yes"/>
      <point x="263" y="-478"/>
      <point x="226" y="-467"/>
      <point x="192" y="-450" type="curve"/>
      <point x="231" y="-376" type="line"/>
      <point x="256" y="-387"/>
      <point x="283" y="-396"/>
      <point x="310" y="-396" type="curve" smooth="yes"/>
      <point x="370" y="-396"/>
      <point x="417" y="-343"/>
      <point x="417" y="-284" type="curve" smooth="yes"/>
      <point x="417" y="-228"/>
      <point x="350" y="-208"/>
      <point x="306" y="-192" type="curve"/>
      <point x="413" y="14" type="line"/>
      <point x="493" y="14" type="line"/>
      <point x="412" y="-142" type="line"/>
      <point x="465" y="-167"/>
      <point x="502" y="-210"/>
      <point x="502" y="-270" type="curve" smooth="yes"/>
      <point x="502" y="-378"/>
      <point x="413" y="-478"/>
    </contour>
    <contour>
      <point x="432" y="-30" type="curve" smooth="yes"/>
      <point x="162" y="-30"/>
      <point x="42" y="144"/>
      <point x="42" y="399" type="curve" smooth="yes"/>
      <point x="42" y="743"/>
      <point x="238" y="1110"/>
      <point x="621" y="1110" type="curve" smooth="yes"/>
      <point x="797" y="1110"/>
      <point x="954" y="1024"/>
      <point x="992" y="842" type="curve"/>
      <point x="910" y="808" type="line"/>
      <point x="873" y="955"/>
      <point x="753" y="1026"/>
      <point x="607" y="1026" type="curve" smooth="yes"/>
      <point x="276" y="1026"/>
      <point x="129" y="699"/>
      <point x="129" y="410" type="curve" smooth="yes"/>
      <point x="129" y="199"/>
      <point x="221" y="54"/>
      <point x="446" y="54" type="curve" smooth="yes"/>
      <point x="605" y="54"/>
      <point x="737" y="136"/>
      <point x="819" y="270" type="curve"/>
      <point x="892" y="234" type="line"/>
      <point x="784" y="72"/>
      <point x="632" y="-30"/>
    </contour>
  </outline>
</glyph>
<glyph name="egrave" format="2">
  <advance width="1090"/>
  <unicode hex="00E8"/>
  <outline>
    <contour>
      <point x="744" y="1530" type="line"/>
      <point x="763" y="1260" type="line"/>
      <point x="699" y="1260" type="line"/>
      <point x="653" y="1530" type="line"/>
    </contour>
    <contour>
      <point x="507" y="-30" type="qcurve" smooth="yes"/>
      <point x="433" y="-30"/>
      <point x="314" y="4"/>
      <point x="267" y="39" type="qcurve" smooth="yes"/>
      <point x="219" y="74"/>
      <point x="154" y="172"/>
      <point x="135" y="236" type="qcurve" smooth="yes"/>
      <point x="117" y="300"/>
      <point x="114" y="452"/>
      <point x="128" y="540" type="qcurve" smooth="yes"/>
      <point x="143" y="629"/>
      <point x="197" y="781"/>
      <point x="236" y="845" type="qcurve" smooth="yes"/>
      <point x="315" y="974"/>
      <point x="547" y="1110"/>
      <point x="696" y="1110" type="qcurve" smooth="yes"/>
      <point x="771" y="1110"/>
      <point x="891" y="1075"/>
      <point x="938" y="1040" type="qcurve" smooth="yes"/>
      <point x="1033" y="970"/>
      <point x="1100" y="705"/>
      <point x="1069" y="516" type="qcurve"/>
      <point x="983" y="516" type="line"/>
      <point x="988" y="544" type="line"/>
      <point x="1004" y="661"/>
      <point x="982" y="839"/>
      <point x="942" y="902" type="qcurve" smooth="yes"/>
      <point x="903" y="965"/>
      <point x="773" y="1026"/>
      <point x="682" y="1026" type="qcurve" smooth="yes"/>
      <point x="589" y="1026"/>
      <point x="438" y="963"/>
      <point x="375" y="899" type="qcurve" smooth="yes"/>
      <point x="313" y="835"/>
      <point x="233" y="656"/>
      <point x="214" y="540" type="qcurve" smooth="yes"/>
      <point x="195" y="424"/>
      <point x="215" y="246"/>
      <point x="257" y="182" type="qcurve" smooth="yes"/>
      <point x="298" y="118"/>
      <point x="428" y="54"/>
      <point x="521" y="54" type="qcurve" smooth="yes"/>
      <point x="650" y="54"/>
      <point x="864" y="180"/>
      <point x="941" y="298" type="qcurve"/>
      <point x="1001" y="258" type="line"/>
      <point x="958" y="189"/>
      <point x="852" y="83"/>
      <point x="787" y="45" type="qcurve" smooth="yes"/>
      <point x="722" y="7"/>
      <point x="583" y="-30"/>
    </contour>
    <contour>
      <point x="176" y="516" type="line"/>
      <point x="190" y="600" type="line"/>
      <point x="1033" y="600" type="line"/>
      <point x="1019" y="516" type="line"/>
    </contour>
  </outline>
</glyph>
<glyph name="eacute" format="2">
  <advance width="1090"/>
  <unicode hex="00E9"/>
  <outline>
    <contour>
      <point x="768" y="1530" type="line"/>
      <point x="860" y="1530" type="line"/>
      <point x="724" y="1260" type="line"/>
      <point x="660" y="1260" type="line"/>
    </contour>
    <contour>
      <point x="447" y="-30" type="qcurve" smooth="yes"/>
      <point x="373" y="-30"/>
      <point x="254" y="4"/>
      <point x="207" y="39" type="qcurve" smooth="yes"/>
      <point x="159" y="74"/>
      <point x="94" y="172"/>
      <point x="75" y="236" type="qcurve" smooth="yes"/>
      <point x="57" y="300"/>
      <point x="54" y="452"/>
      <point x="68" y="540" type="qcurve" smooth="yes"/>
      <point x="83" y="629"/>
      <point x="137" y="781"/>
      <point x="176" y="845" type="qcurve" smooth="yes"/>
      <point x="255" y="974"/>
      <point x="487" y="1110"/>
      <point x="636" y="1110" type="qcurve" smooth="yes"/>
      <point x="711" y="1110"/>
      <point x="831" y="1075"/>
      <point x="878" y="1040" type="qcurve" smooth="yes"/>
      <point x="973" y="970"/>
      <point x="1040" y="705"/>
      <point x="1009" y="516" type="qcurve"/>
      <point x="923" y="516" type="line"/>
      <point x="928" y="544" type="line"/>
      <point x="944" y="661"/>
      <point x="922" y="839"/>
      <point x="882" y="902" type="qcurve" smooth="yes"/>
      <point x="843" y="965"/>
      <point x="713" y="1026"/>
      <point x="622" y="1026" type="qcurve" smooth="yes"/>
      <point x="529" y="1026"/>
      <point x="378" y="963"/>
      <point x="315" y="899" type="qcurve" smooth="yes"/>
      <point x="253" y="835"/>
      <point x="173" y="656"/>
      <point x="154" y="540" type="qcurve" smooth="yes"/>
      <point x="135" y="424"/>
      <point x="155" y="246"/>
      <point x="197" y="182" type="qcurve" smooth="yes"/>
      <point x="238" y="118"/>
      <point x="368" y="54"/>
      <point x="461" y="54" type="qcurve" smooth="yes"/>
      <point x="590" y="54"/>
      <point x="804" y="180"/>
      <point x="881" y="298" type="qcurve"/>
      <point x="941" y="258" type="line"/>
      <point x="898" y="189"/>
      <point x="792" y="83"/>
      <point x="727" y="45" type="qcurve" smooth="yes"/>
      <point x="662" y="7"/>
      <point x="523" y="-30"/>
    </contour>
    <contour>
      <point x="116" y="516" type="line"/>
      <point x="130" y="600" type="line"/>
      <point x="973" y="600" type="line"/>
      <point x="959" y="516" type="line"/>
    </contour>
  </outline>
</glyph>
<glyph name="ecircumflex" format="2">
  <advance width="1091"/>
  <unicode hex="00EA"/>
  <outline>
    <contour>
      <point x="410" y="1260" type="line"/>
      <point x="642" y="1500" type="line"/>
      <point x="730" y="1500" type="line"/>
      <point x="882" y="1260" type="line"/>
      <point x="786" y="1260" type="line"/>
      <point x="674" y="1430" type="line"/>
      <point x="506" y="1260" type="line"/>
    </contour>
    <contour>
      <point x="433" y="-30" type="qcurve" smooth="yes"/>
      <point x="359" y="-30"/>
      <point x="239" y="4"/>
      <point x="192" y="39" type="qcurve" smooth="yes"/>
      <point x="144" y="74"/>
      <point x="79" y="172"/>
      <point x="60" y="236" type="qcurve" smooth="yes"/>
      <point x="42" y="300"/>
      <point x="39" y="452"/>
      <point x="53" y="540" type="qcurve" smooth="yes"/>
      <point x="68" y="629"/>
      <point x="122" y="781"/>
      <point x="161" y="845" type="qcurve" smooth="yes"/>
      <point x="240" y="974"/>
      <point x="473" y="1110"/>
      <point x="621" y="1110" type="qcurve" smooth="yes"/>
      <point x="696" y="1110"/>
      <point x="817" y="1075"/>
      <point x="864" y="1040" type="qcurve" smooth="yes"/>
      <point x="959" y="970"/>
      <point x="1026" y="705"/>
      <point x="995" y="516" type="qcurve"/>
      <point x="909" y="516" type="line"/>
      <point x="914" y="544" type="line"/>
      <point x="930" y="661"/>
      <point x="908" y="839"/>
      <point x="868" y="902" type="qcurve" smooth="yes"/>
      <point x="829" y="965"/>
      <point x="699" y="1026"/>
      <point x="608" y="1026" type="qcurve" smooth="yes"/>
      <point x="515" y="1026"/>
      <point x="363" y="963"/>
      <point x="300" y="899" type="qcurve" smooth="yes"/>
      <point x="238" y="835"/>
      <point x="158" y="656"/>
      <point x="139" y="540" type="qcurve" smooth="yes"/>
      <point x="120" y="424"/>
      <point x="140" y="246"/>
      <point x="182" y="182" type="qcurve" smooth="yes"/>
      <point x="223" y="118"/>
      <point x="353" y="54"/>
      <point x="447" y="54" type="qcurve" smooth="yes"/>
      <point x="577" y="54"/>
      <point x="790" y="180"/>
      <point x="867" y="298" type="qcurve"/>
      <point x="927" y="258" type="line"/>
      <point x="884" y="189"/>
      <point x="778" y="83"/>
      <point x="713" y="45" type="qcurve" smooth="yes"/>
      <point x="648" y="7"/>
      <point x="509" y="-30"/>
    </contour>
    <contour>
      <point x="101" y="516" type="line"/>
      <point x="115" y="600" type="line"/>
      <point x="959" y="600" type="line"/>
      <point x="945" y="516" type="line"/>
    </contour>
  </outline>
</glyph>
<glyph name="igrave" format="2">
  <advance width="375"/>
  <unicode hex="00EC"/>
  <outline>
    <contour>
      <point x="330" y="1530" type="line"/>
      <point x="348" y="1260" type="line"/>
      <point x="285" y="1260" type="line"/>
      <point x="239" y="1530" type="line"/>
    </contour>
    <contour>
      <point x="81" y="0" type="line"/>
      <point x="259" y="1080" type="line"/>
      <point x="339" y="1080" type="line"/>
      <point x="160" y="0" type="line"/>
    </contour>
  </outline>
</glyph>
<glyph name="iacute" format="2">
  <advance width="375"/>
  <unicode hex="00ED"/>
  <outline>
    <contour>
      <point x="449" y="1530" type="line"/>
      <point x="540" y="1530" type="line"/>
      <point x="404" y="1260" type="line"/>
      <point x="341" y="1260" type="line"/>
    </contour>
    <contour>
      <point x="112" y="0" type="line"/>
      <point x="290" y="1080" type="line"/>
      <point x="370" y="1080" type="line"/>
      <point x="191" y="0" type="line"/>
    </contour>
  </outline>
</glyph>
<glyph name="icircumflex" format="2">
  <advance width="391"/>
  <unicode hex="00EE"/>
  <outline>
    <contour>
      <point x="75" y="1260" type="line"/>
      <point x="306" y="1500" type="line"/>
      <point x="394" y="1500" type="line"/>
      <point x="546" y="1260" type="line"/>
      <point x="450" y="1260" type="line"/>
      <point x="338" y="1430" type="line"/>
      <point x="171" y="1260" type="line"/>
    </contour>
    <contour>
      <point x="62" y="0" type="line"/>
      <point x="241" y="1080" type="line"/>
      <point x="320" y="1080" type="line"/>
      <point x="142" y="0" type="line"/>
    </contour>
  </outline>
</glyph>
